{
.formatVersion = 3;
axes = (
{
name = Weight;
tag = wght;
}
);
classes = (
{
code = "uni0660 uni0661 uni0662 uni0663 uni0664 uni0665 uni0666 uni0667 uni0668 uni0669 uni06F0 uni06F1 uni06F2 uni06F3 uni06F4 uni06F5 uni06F6 uni06F7 uni06F8 uni06F9 uni06F4.locl uni06F7.locl";
name = tnum;
},
{
code = "uni0620 uni0622 uni0623 uni0624 uni0625 uni0626 uni0627 uni0628 uni0629 uni062A uni062B uni062C uni062D uni062E uni062F uni0630 uni0631 uni0632 uni0633 uni0634 uni0635 uni0636 uni0637 uni0638 uni0639 uni063A uni063B uni063C uni063D uni063E uni063F uni0641 uni0642 uni0643 uni0644 uni0645 uni0646 uni0647 uni0648 uni0649 uni064A uni066E uni066F uni0671 uni0672 uni0673 uni0675 uni0676 uni0677 uni0678 uni0679 uni067A uni067B uni067C uni067D uni067E uni067F uni0680 uni0681 uni0682 uni0683 uni0684 uni0685 uni0686 uni0687 uni0688 uni0689 uni068A uni068B uni068C uni068D uni068E uni068F uni0690 uni0691 uni0692 uni0693 uni0694 uni0695 uni0696 uni0697 uni0698 uni0699 uni069A uni069B uni069C uni069D uni069E uni069F uni06A0 uni06A1 uni06A2 uni06A3 uni06A4 uni06A5 uni06A6 uni06A7 uni06A8 uni06A9 uni06AA uni06AB uni06AC uni06AD uni06AE uni06AF uni06B0 uni06B1 uni06B2 uni06B3 uni06B4 uni06B5 uni06B6 uni06B7 uni06B8 uni06B9 uni06BA uni06BB uni06BC uni06BD uni06BE uni06BF uni06C0 uni06C1 uni06C2 uni06C3 uni06C4 uni06C5 uni06C6 uni06C7 uni06C8 uni06C9 uni06CA uni06CB uni06CC uni06CD uni06CE uni06CF uni06D0 uni06D1 uni06D2 uni06D3 uni06D5 uni06EE uni06EF uni06FA uni06FB uni06FC uni06FF uni0750 uni0751 uni0752 uni0753 uni0754 uni0755 uni0756 uni0757 uni0758 uni0759 uni075A uni075B uni075C uni075D uni075E uni075F uni0760 uni0761 uni0762 uni0763 uni0764 uni0765 uni0766 uni0767 uni0768 uni0769 uni076A uni076B uni076C uni076D uni076E uni076F uni0770 uni0771 uni0772 uni0773 uni0774 uni0775 uni0776 uni0777 uni0778 uni0779 uni077A uni077B uni077C uni077D uni077E uni077F uni08A0 uni08A2 uni08A3 uni08A4 uni08A5 uni08A6 uni08A8 uni08AA uni08AB uni063C uniFD3D uni08A7 uni08A9";
name = fina;
},
{

glyphs = (
{
glyphname = uni0621;
layers = (
{
anchors = (
{
name = bottom;
position = "{256, -81}";
},
{
name = top;
position = "{235, 385}";
}
);
background = {
shapes = (
{
closed = 1;
nodes = (
(85,-32,l),
(156,-21,o),
(207,-14,o),
(255,-10,c),
(305,-4,o),
(349,-2,o),
(379,1,cs),
(411,4,o),
(431,33,o),
(431,64,cs),
(431,86,o),
(419,109,o),
(408,121,c),
(398,120,o),
(386,118,o),
(374,116,cs),
(350,112,o),
(325,107,o),
(301,102,cs),
(292,100,o),
(282,97,o),
(273,95,c),
(260,95,o),
(233,100,o),
(221,104,cs),
(195,111,o),
(178,121,o),
(159,145,c),
(192,191,o),
(224,205,o),
(255,205,cs),
(265,205,o),
(277,203,o),
(290,198,c),
(288,189,o),
(287,182,o),
(285,174,c),
(295,168,o),
(312,161,o),
(330,156,c),
(347,174,o),
(354,201,o),
(354,221,cs),
(354,276,o),
(312,312,o),
(260,312,cs),
(246,312,o),
(233,309,o),
(220,303,cs),
(156,272,o),
(108,186,o),
(108,118,cs),
(108,99,o),
(114,82,o),
(125,66,cs),
(130,60,o),
(135,54,o),
(141,49,c),
(131,45,o),
(85,25,o),
(68,17,c)
);
}
);
};
layerId = "506100EA-3BB8-464E-A0A0-F667AF3F2320";
shapes = (
{
closed = 1;
nodes = (
(85,-32,l),
(156,-21,o),
(207,-14,o),
(255,-10,c),
(305,-4,o),
(349,-2,o),
(379,1,cs),
(411,4,o),
(431,33,o),
(431,64,cs),
(431,86,o),
(419,109,o),
(408,121,c),
(398,120,o),
(386,118,o),
(374,116,cs),
(350,112,o),
(325,107,o),
(301,102,cs),
(292,100,o),
(282,97,o),
(273,95,c),
(260,95,o),
(233,100,o),
(221,104,cs),
(195,111,o),
(178,121,o),
(159,145,c),
(192,191,o),
(224,205,o),
(255,205,cs),
(265,205,o),
(277,203,o),
(290,198,c),
(288,189,o),
(287,182,o),
(285,174,c),
(295,168,o),
(312,161,o),
(330,156,c),
(347,174,o),
(354,201,o),
(354,221,cs),
(354,276,o),
(312,312,o),
(260,312,cs),
(246,312,o),
(233,309,o),
(220,303,cs),
(156,272,o),
(108,186,o),
(108,118,cs),
(108,99,o),
(114,82,o),
(125,66,cs),
(130,60,o),
(135,54,o),
(141,49,c),
(131,45,o),
(85,25,o),
(68,17,c)
);
}
);
width = 452;
}
);
unicode = (1569,65152);
},
{
glyphname = uni0627;
layers = (
{
anchors = (
{
name = bottom;
position = "{151, -110}";
},
{
name = bottom.dot;
position = "{151, -48}";
},
{
name = top;
position = "{142, 729}";
}
);
background = {
shapes = (
{
closed = 1;
nodes = (
(185,17,l),
(192,245,o),
(193,420,o),
(190,531,c),
(225,557,l),
(209,597,o),
(195,638,o),
(184,680,c),
(124,680,o),
(71,645,o),
(77,595,cs),
(96,404,o),
(107,284,o),
(121,9,c)
);
}
);
};
layerId = "506100EA-3BB8-464E-A0A0-F667AF3F2320";
shapes = (
{
closed = 1;
nodes = (
(185,17,l),
(192,245,o),
(193,420,o),
(190,531,c),
(225,557,l),
(209,597,o),
(195,638,o),
(184,680,c),
(124,680,o),
(71,645,o),
(77,595,cs),
(96,404,o),
(107,284,o),
(121,9,c)
);
}
);
width = 284;
}
);
unicode = (1575,65165);
},
{
glyphname = uniFE8E;
layers = (
{
anchors = (
{
name = bottom;
position = "{174, -110}";
},
{
name = bottom.dot;
position = "{174, -48}";
},
{
name = top;
position = "{138, 729}";
}
);
background = {
shapes = (
{
closed = 1;
nodes = (
(302,9,o),
(305,12,o),
(305,17,cs),
(305,119,ls),
(305,124,o),
(303,127,o),
(299,127,cs),
(262,127,o),
(237,133,o),
(213,153,c),
(209,231,ls),
(205,381,o),
(200,530,o),
(195,680,c),
(154,661,o),
(114,639,o),
(76,614,c),
(86,537,o),
(116,222,o),
(124,159,cs),
(133,74,o),
(176,9,o),
(297,9,cs)
);
}
);
};
layerId = "506100EA-3BB8-464E-A0A0-F667AF3F2320";
shapes = (
{
closed = 1;
nodes = (
(302,9,o),
(305,12,o),
(305,17,cs),
(305,119,ls),
(305,124,o),
(303,127,o),
(299,127,cs),
(262,127,o),
(237,133,o),
(213,153,c),
(209,231,ls),
(205,381,o),
(200,530,o),
(195,680,c),
(154,661,o),
(114,639,o),
(76,614,c),
(86,537,o),
(116,222,o),
(124,159,cs),
(133,74,o),
(176,9,o),
(297,9,cs)
);
}
);
width = 288;
}
);
unicode = 65166;
},
{
glyphname = uniFE8E.001;
layers = (
{
anchors = (
{
name = bottom;
position = "{174, -110}";
},
{
name = bottom.dot;
position = "{174, -48}";
},
{
name = top;
position = "{138, 729}";
}
);
background = {
shapes = (
{
closed = 1;
nodes = (
(332,9,o),
(335,12,o),
(335,17,cs),
(335,119,ls),
(335,124,o),
(333,127,o),
(329,127,cs),
(292,127,o),
(237,133,o),
(213,153,c),
(210,231,ls),
(204,381,o),
(200,530,o),
(195,680,c),
(154,661,o),
(114,639,o),
(76,614,c),
(86,537,o),
(116,222,o),
(124,159,cs),
(133,74,o),
(206,9,o),
(327,9,cs)
);
}
);
};
layerId = "506100EA-3BB8-464E-A0A0-F667AF3F2320";
shapes = (
{
closed = 1;
nodes = (
(332,9,o),
(335,12,o),
(335,17,cs),
(335,119,ls),
(335,124,o),
(333,127,o),
(329,127,cs),
(292,127,o),
(237,133,o),
(213,153,c),
(210,231,ls),
(204,381,o),
(200,530,o),
(195,680,c),
(154,661,o),
(114,639,o),
(76,614,c),
(86,537,o),
(116,222,o),
(124,159,cs),
(133,74,o),
(206,9,o),
(327,9,cs)
);
}
);
width = 318;
}
);
},
{
glyphname = uniFE8E.rlig;
layers = (
{
anchors = (
{
name = bottom;
position = "{152, -110}";
},
{
name = top;
position = "{64, 622}";
}
);
background = {
shapes = (
{
closed = 1;
nodes = (
(166,0,o),
(257,2,o),
(282,3,cs),
(337,5,o),
(417,10,o),
(456,17,c),
(465,20,o),
(496,100,o),
(496,119,cs),
(496,140,o),
(431,229,o),
(391,280,cs),
(344,340,o),
(258,426,o),
(191,486,cs),
(154,520,o),
(119,549,o),
(89,569,c),
(56,550,o),
(34,521,o),
(34,484,cs),
(34,441,o),
(58,412,o),
(93,395,c),
(130,397,l),
(200,354,o),
(251,316,o),
(296,275,cs),
(342,234,o),
(382,188,o),
(430,130,c),
(383,122,o),
(332,117,o),
(284,114,cs),
(236,111,o),
(190,110,o),
(153,110,cs),
(146,110,o),
(137,40,o),
(137,12,cs),
(137,5,o),
(138,0,o),
(140,0,cs)
);
}
);
};
layerId = "506100EA-3BB8-464E-A0A0-F667AF3F2320";
shapes = (
{
closed = 1;
nodes = (
(166,0,o),
(257,2,o),
(282,3,cs),
(337,5,o),
(417,10,o),
(456,17,c),
(465,20,o),
(496,100,o),
(496,119,cs),
(496,140,o),
(431,229,o),
(391,280,cs),
(344,340,o),
(258,426,o),
(191,486,cs),
(154,520,o),
(119,549,o),
(89,569,c),
(56,550,o),
(34,521,o),
(34,484,cs),
(34,441,o),
(58,412,o),
(93,395,c),
(130,397,l),
(200,354,o),
(251,316,o),
(296,275,cs),
(342,234,o),
(382,188,o),
(430,130,c),
(383,122,o),
(332,117,o),
(284,114,cs),
(236,111,o),
(190,110,o),
(153,110,cs),
(146,110,o),
(137,40,o),
(137,12,cs),
(137,5,o),
(138,0,o),
(140,0,cs)
);
}
);
width = 0;
}
);
},
{
glyphname = uni066E;
layers = (
{
anchors = (
{
name = bottom;
position = "{378, -110}";
},
{
name = bottom.dot;
position = "{378, -38}";
},
{
name = top;
position = "{365, 498}";
},
{
name = top.dot;
position = "{365, 307}";
}
);
background = {
shapes = (
{
closed = 1;
nodes = (
(458,0,o),
(606,37,o),
(694,90,c),
(715,128,o),
(733,180,o),
(733,211,cs),
(733,234,o),
(723,293,o),
(692,443,c),
(642,418,o),
(601,374,o),
(601,342,cs),
(601,324,o),
(611,304,o),
(625,278,cs),
(637,256,o),
(661,212,o),
(675,182,c),
(583,141,o),
(467,119,o),
(351,119,cs),
(299,119,o),
(256,125,o),
(224,135,c),
(160,157,o),
(131,195,o),
(131,273,cs),
(131,286,o),
(133,317,o),
(134,323,c),
(89,323,l),
(76,277,o),
(70,241,o),
(70,213,cs),
(70,75,o),
(153,0,o),
(314,0,cs)
);
}
);
};
layerId = "506100EA-3BB8-464E-A0A0-F667AF3F2320";
shapes = (
{
closed = 1;
nodes = (
(458,0,o),
(606,37,o),
(694,90,c),
(715,128,o),
(733,180,o),
(733,211,cs),
(733,234,o),
(723,293,o),
(692,443,c),
(642,418,o),
(601,374,o),
(601,342,cs),
(601,324,o),
(611,304,o),
(625,278,cs),
(637,256,o),
(661,212,o),
(675,182,c),
(583,141,o),
(467,119,o),
(351,119,cs),
(299,119,o),
(256,125,o),
(224,135,c),
(160,157,o),
(131,195,o),
(131,273,cs),
(131,286,o),
(133,317,o),
(134,323,c),
(89,323,l),
(76,277,o),
(70,241,o),
(70,213,cs),
(70,75,o),
(153,0,o),
(314,0,cs)
);
}
);
width = 806;
}
);
unicode = 1646;
},
{
glyphname = uni066E.fina;
layers = (
{
anchors = (
{
name = bottom;
position = "{408, -110}";
},
{
name = bottom.dot;
position = "{408, -38}";
},
{
name = top;
position = "{375, 498}";
},
{
name = top.dot;
position = "{385, 307}";
}
);
background = {
shapes = (
{
closed = 1;
nodes = (
(470,0,o),
(607,31,o),
(674,85,c),
(730,29,o),
(776,9,o),
(827,9,cs),
(833,9,o),
(835,12,o),
(835,17,cs),
(835,119,ls),
(835,125,o),
(833,127,o),
(827,127,cs),
(783,127,o),
(754,137,o),
(720,154,c),
(738,186,o),
(753,220,o),
(766,256,c),
(755,265,o),
(742,270,o),
(726,270,cs),
(705,270,o),
(691,264,o),
(672,224,c),
(657,190,o),
(649,179,o),
(636,167,c),
(599,138,o),
(491,119,o),
(351,119,cs),
(299,119,o),
(256,125,o),
(224,135,c),
(160,157,o),
(131,195,o),
(131,273,cs),
(131,286,o),
(133,317,o),
(134,323,c),
(89,323,l),
(76,277,o),
(70,241,o),
(70,213,cs),
(70,71,o),
(151,0,o),
(314,0,cs)
);
}
);
};
layerId = "506100EA-3BB8-464E-A0A0-F667AF3F2320";
shapes = (
{
closed = 1;
nodes = (
(470,0,o),
(607,31,o),
(674,85,c),
(730,29,o),
(776,9,o),
(827,9,cs),
(833,9,o),
(835,12,o),
(835,17,cs),
(835,119,ls),
(835,125,o),
(833,127,o),
(827,127,cs),
(783,127,o),
(754,137,o),
(720,154,c),
(738,186,o),
(753,220,o),
(766,256,c),
(755,265,o),
(742,270,o),
(726,270,cs),
(705,270,o),
(691,264,o),
(672,224,c),
(657,190,o),
(649,179,o),
(636,167,c),
(599,138,o),
(491,119,o),
(351,119,cs),
(299,119,o),
(256,125,o),
(224,135,c),
(160,157,o),
(131,195,o),
(131,273,cs),
(131,286,o),
(133,317,o),
(134,323,c),
(89,323,l),
(76,277,o),
(70,241,o),
(70,213,cs),
(70,71,o),
(151,0,o),
(314,0,cs)
);
}
);
width = 817;
}
);
},
{
glyphname = uni066E.medi;
layers = (
{
anchors = (
{
name = bottom;
position = "{170, -110}";
},
{
name = bottom.dot;
position = "{168, -38}";
},
{
name = top;
position = "{153, 514}";
},
{
name = top.dot;
position = "{153, 303}";
}
);
background = {
shapes = (
{
closed = 1;
nodes = (
(68,9,o),
(116,25,o),
(134,45,cs),
(141,54,o),
(148,64,o),
(156,78,c),
(202,32,o),
(250,9,o),
(301,9,cs),
(306,9,o),
(309,12,o),
(309,17,cs),
(309,119,ls),
(309,125,o),
(306,127,o),
(301,127,cs),
(262,127,o),
(227,136,o),
(195,153,c),
(210,187,o),
(225,222,o),
(240,256,c),
(229,265,o),
(216,270,o),
(200,270,cs),
(178,270,o),
(165,266,o),
(144,223,cs),
(127,189,o),
(115,163,o),
(98,151,cs),
(76,135,o),
(43,127,o),
(0,127,cs),
(-6,127,o),
(-8,125,o),
(-8,119,cs),
(-8,17,ls),
(-8,12,o),
(-6,9,o),
(0,9,cs)
);
}
);
};
layerId = "506100EA-3BB8-464E-A0A0-F667AF3F2320";
shapes = (
{
closed = 1;
nodes = (
(68,9,o),
(116,25,o),
(134,45,cs),
(141,54,o),
(148,64,o),
(156,78,c),
(202,32,o),
(250,9,o),
(301,9,cs),
(306,9,o),
(309,12,o),
(309,17,cs),
(309,119,ls),
(309,125,o),
(306,127,o),
(301,127,cs),
(262,127,o),
(227,136,o),
(195,153,c),
(210,187,o),
(225,222,o),
(240,256,c),
(229,265,o),
(216,270,o),
(200,270,cs),
(178,270,o),
(165,266,o),
(144,223,cs),
(127,189,o),
(115,163,o),
(98,151,cs),
(76,135,o),
(43,127,o),
(0,127,cs),
(-6,127,o),
(-8,125,o),
(-8,119,cs),
(-8,17,ls),
(-8,12,o),
(-6,9,o),
(0,9,cs)
);
}
);
width = 292;
}
);
},
{
glyphname = uni066E.init;
layers = (
{
anchors = (
{
name = bottom;
position = "{143, -110}";
},
{
name = bottom.dot;
position = "{141, -38}";
},
{
name = top;
position = "{153, 616}";
},
{
name = top.dot;
position = "{143, 423}";
}
);
background = {
shapes = (
{
closed = 1;
nodes = (
(71,9,o),
(137,27,o),
(198,64,c),
(219,105,o),
(237,154,o),
(237,185,cs),
(237,198,o),
(234,225,o),
(226,266,cs),
(216,320,o),
(204,375,o),
(195,417,c),
(146,392,o),
(104,348,o),
(104,315,cs),
(104,298,o),
(114,277,o),
(128,252,cs),
(140,230,o),
(165,187,o),
(178,156,c),
(141,140,o),
(66,127,o),
(0,127,cs),
(-6,127,o),
(-8,125,o),
(-8,119,cs),
(-8,17,ls),
(-8,12,o),
(-6,9,o),
(0,9,cs)
);
}
);
};
layerId = "506100EA-3BB8-464E-A0A0-F667AF3F2320";
shapes = (
{
closed = 1;
nodes = (
(71,9,o),
(137,27,o),
(198,64,c),
(219,105,o),
(237,154,o),
(237,185,cs),
(237,198,o),
(234,225,o),
(226,266,cs),
(216,320,o),
(204,375,o),
(195,417,c),
(146,392,o),
(104,348,o),
(104,315,cs),
(104,298,o),
(114,277,o),
(128,252,cs),
(140,230,o),
(165,187,o),
(178,156,c),
(141,140,o),
(66,127,o),
(0,127,cs),
(-6,127,o),
(-8,125,o),
(-8,119,cs),
(-8,17,ls),
(-8,12,o),
(-6,9,o),
(0,9,cs)
);
}
);
width = 275;
}
);
},
{
glyphname = uni062D;
layers = (
{
anchors = (
{
name = bottom;
position = "{373, -337}";
},
{
name = center;
position = "{385, -1}";
},
{
name = top;
position = "{342, 596}";
},
{
name = top.dot;
position = "{342, 413}";
}
);
background = {
shapes = (
{
closed = 1;
nodes = (
(415,-288,o),
(520,-247,o),
(630,-184,c),
(616,-142,l),
(523,-163,o),
(443,-173,o),
(375,-173,cs),
(247,-173,o),
(156,-119,o),
(156,-29,cs),
(156,27,o),
(190,81,o),
(249,128,cs),
(308,175,o),
(397,213,o),
(464,224,c),
(497,221,o),
(559,222,o),
(585,226,c),
(626,338,l),
(535,336,ls),
(484,336,o),
(433,347,o),
(361,374,cs),
(287,400,o),
(245,410,o),
(201,410,cs),
(119,410,o),
(68,372,o),
(68,312,cs),
(68,290,o),
(79,264,o),
(91,252,c),
(138,281,o),
(160,291,o),
(199,291,cs),
(236,291,o),
(272,277,o),
(318,260,c),
(277,240,o),
(242,215,o),
(212,187,cs),
(143,124,o),
(105,42,o),
(105,-44,cs),
(105,-197,o),
(204,-288,o),
(373,-288,cs)
);
}
);
};
layerId = "506100EA-3BB8-464E-A0A0-F667AF3F2320";
shapes = (
{
closed = 1;
nodes = (
(415,-288,o),
(520,-247,o),
(630,-184,c),
(616,-142,l),
(523,-163,o),
(443,-173,o),
(375,-173,cs),
(247,-173,o),
(156,-119,o),
(156,-29,cs),
(156,27,o),
(190,81,o),
(249,128,cs),
(308,175,o),
(397,213,o),
(464,224,c),
(497,221,o),
(559,222,o),
(585,226,c),
(626,338,l),
(535,336,ls),
(484,336,o),
(433,347,o),
(361,374,cs),
(287,400,o),
(245,410,o),
(201,410,cs),
(119,410,o),
(68,372,o),
(68,312,cs),
(68,290,o),
(79,264,o),
(91,252,c),
(138,281,o),
(160,291,o),
(199,291,cs),
(236,291,o),
(272,277,o),
(318,260,c),
(277,240,o),
(242,215,o),
(212,187,cs),
(143,124,o),
(105,42,o),
(105,-44,cs),
(105,-197,o),
(204,-288,o),
(373,-288,cs)
);
}
);
width = 655;
}
);
unicode = (1581,65185);
},
{
glyphname = uniFEA2;
layers = (
{
anchors = (
{
name = bottom;
position = "{340, -340}";
},
{
name = center;
position = "{365, -20}";
},
{
name = top;
position = "{342, 596}";
},
{
name = top.dot;
position = "{342, 373}";
}
);
background = {
shapes = (
{
closed = 1;
nodes = (
(405,-291,o),
(453,-266,o),
(581,-192,c),
(567,-149,l),
(487,-167,o),
(424,-176,o),
(375,-176,cs),
(234,-176,o),
(156,-130,o),
(156,-39,cs),
(156,-5,o),
(169,27,o),
(194,58,cs),
(245,119,o),
(346,167,o),
(451,187,c),
(468,134,o),
(486,97,o),
(506,73,cs),
(546,26,o),
(604,9,o),
(732,9,cs),
(738,9,o),
(741,12,o),
(741,17,cs),
(741,119,ls),
(741,125,o),
(738,127,o),
(732,127,cs),
(660,127,o),
(613,128,o),
(592,131,c),
(542,136,o),
(528,146,o),
(505,184,c),
(515,184,o),
(525,184,o),
(535,184,cs),
(545,184,o),
(569,185,o),
(585,187,c),
(626,299,l),
(535,298,ls),
(484,298,o),
(433,308,o),
(361,335,cs),
(287,362,o),
(245,372,o),
(201,372,cs),
(118,372,o),
(68,333,o),
(68,273,cs),
(68,252,o),
(79,225,o),
(91,213,c),
(146,247,o),
(169,252,o),
(205,252,cs),
(223,252,o),
(242,249,o),
(262,242,cs),
(281,235,o),
(299,229,o),
(318,222,c),
(278,206,o),
(242,184,o),
(209,157,cs),
(144,102,o),
(105,32,o),
(105,-49,cs),
(105,-206,o),
(194,-291,o),
(370,-291,cs)
);
}
);
};
layerId = "506100EA-3BB8-464E-A0A0-F667AF3F2320";
shapes = (
{
closed = 1;
nodes = (
(405,-291,o),
(453,-266,o),
(581,-192,c),
(567,-149,l),
(487,-167,o),
(424,-176,o),
(375,-176,cs),
(234,-176,o),
(156,-130,o),
(156,-39,cs),
(156,-5,o),
(169,27,o),
(194,58,cs),
(245,119,o),
(346,167,o),
(451,187,c),
(468,134,o),
(486,97,o),
(506,73,cs),
(546,26,o),
(604,9,o),
(732,9,cs),
(738,9,o),
(741,12,o),
(741,17,cs),
(741,119,ls),
(741,125,o),
(738,127,o),
(732,127,cs),
(660,127,o),
(613,128,o),
(592,131,c),
(542,136,o),
(528,146,o),
(505,184,c),
(515,184,o),
(525,184,o),
(535,184,cs),
(545,184,o),
(569,185,o),
(585,187,c),
(626,299,l),
(535,298,ls),
(484,298,o),
(433,308,o),
(361,335,cs),
(287,362,o),
(245,372,o),
(201,372,cs),
(118,372,o),
(68,333,o),
(68,273,cs),
(68,252,o),
(79,225,o),
(91,213,c),
(146,247,o),
(169,252,o),
(205,252,cs),
(223,252,o),
(242,249,o),
(262,242,cs),
(281,235,o),
(299,229,o),
(318,222,c),
(278,206,o),
(242,184,o),
(209,157,cs),
(144,102,o),
(105,32,o),
(105,-49,cs),
(105,-206,o),
(194,-291,o),
(370,-291,cs)
);
}
);
width = 724;
}
);
unicode = 65186;
},
{
glyphname = uniFEA4;
layers = (
{
anchors = (
{
name = bottom;
position = "{313, -110}";
},
{
name = bottom.dot;
position = "{343, 12}";
},
{
name = top;
position = "{299, 596}";
},
{
name = top.dot;
position = "{298, 395}";
}
);
background = {
shapes = (
{
closed = 1;
nodes = (
(137,9,o),
(215,9,o),
(311,73,cs),
(371,113,o),
(391,129,o),
(429,137,c),
(437,104,o),
(445,61,o),
(472,41,cs),
(502,20,o),
(594,9,o),
(666,9,cs),
(671,9,o),
(674,12,o),
(674,17,cs),
(674,119,ls),
(674,125,o),
(671,127,o),
(666,127,c),
(636,128,o),
(602,129,o),
(572,130,c),
(552,132,o),
(536,136,o),
(523,148,c),
(539,147,o),
(555,147,o),
(571,146,c),
(615,230,l),
(566,230,o),
(524,235,o),
(490,243,cs),
(421,261,o),
(377,284,o),
(317,325,cs),
(268,358,o),
(232,372,o),
(189,372,cs),
(110,372,o),
(52,331,o),
(52,273,cs),
(52,252,o),
(63,225,o),
(75,213,c),
(120,242,o),
(153,252,o),
(193,252,cs),
(222,252,o),
(247,241,o),
(290,213,cs),
(308,201,o),
(326,189,o),
(344,179,c),
(321,174,o),
(280,163,o),
(223,146,cs),
(159,127,o),
(97,127,o),
(0,127,cs),
(-6,127,o),
(-8,125,o),
(-8,119,cs),
(-8,17,ls),
(-8,12,o),
(-6,9,o),
(0,9,cs)
);
}
);
};
layerId = "506100EA-3BB8-464E-A0A0-F667AF3F2320";
shapes = (
{
closed = 1;
nodes = (
(137,9,o),
(215,9,o),
(311,73,cs),
(371,113,o),
(391,129,o),
(429,137,c),
(437,104,o),
(445,61,o),
(472,41,cs),
(502,20,o),
(594,9,o),
(666,9,cs),
(671,9,o),
(674,12,o),
(674,17,cs),
(674,119,ls),
(674,125,o),
(671,127,o),
(666,127,c),
(636,128,o),
(602,129,o),
(572,130,c),
(552,132,o),
(536,136,o),
(523,148,c),
(539,147,o),
(555,147,o),
(571,146,c),
(615,230,l),
(566,230,o),
(524,235,o),
(490,243,cs),
(421,261,o),
(377,284,o),
(317,325,cs),
(268,358,o),
(232,372,o),
(189,372,cs),
(110,372,o),
(52,331,o),
(52,273,cs),
(52,252,o),
(63,225,o),
(75,213,c),
(120,242,o),
(153,252,o),
(193,252,cs),
(222,252,o),
(247,241,o),
(290,213,cs),
(308,201,o),
(326,189,o),
(344,179,c),
(321,174,o),
(280,163,o),
(223,146,cs),
(159,127,o),
(97,127,o),
(0,127,cs),
(-6,127,o),
(-8,125,o),
(-8,119,cs),
(-8,17,ls),
(-8,12,o),
(-6,9,o),
(0,9,cs)
);
}
);
width = 657;
}
);
unicode = 65188;
},
{
glyphname = uniFEA3;
layers = (
{
anchors = (
{
name = bottom;
position = "{313, -110}";
},
{
name = bottom.dot;
position = "{353, 12}";
},
{
name = top;
position = "{299, 596}";
},
{
name = top.dot;
position = "{298, 395}";
}
);
background = {
shapes = (
{
closed = 1;
nodes = (
(149,9,o),
(208,11,o),
(311,73,cs),
(360,101,o),
(416,125,o),
(463,129,cs),
(500,132,o),
(522,128,o),
(563,124,c),
(615,230,l),
(566,230,o),
(524,235,o),
(490,243,cs),
(421,261,o),
(377,284,o),
(317,325,cs),
(268,358,o),
(232,372,o),
(189,372,cs),
(110,372,o),
(52,331,o),
(52,273,cs),
(52,252,o),
(63,225,o),
(75,213,c),
(120,242,o),
(153,252,o),
(193,252,cs),
(222,252,o),
(247,242,o),
(290,213,cs),
(307,201,o),
(325,190,o),
(344,179,c),
(321,174,o),
(280,163,o),
(223,146,cs),
(159,127,o),
(97,127,o),
(0,127,cs),
(-6,127,o),
(-8,125,o),
(-8,119,cs),
(-8,17,ls),
(-8,12,o),
(-6,9,o),
(0,9,cs)
);
}
);
};
layerId = "506100EA-3BB8-464E-A0A0-F667AF3F2320";
shapes = (
{
closed = 1;
nodes = (
(149,9,o),
(208,11,o),
(311,73,cs),
(360,101,o),
(416,125,o),
(463,129,cs),
(500,132,o),
(522,128,o),
(563,124,c),
(615,230,l),
(566,230,o),
(524,235,o),
(490,243,cs),
(421,261,o),
(377,284,o),
(317,325,cs),
(268,358,o),
(232,372,o),
(189,372,cs),
(110,372,o),
(52,331,o),
(52,273,cs),
(52,252,o),
(63,225,o),
(75,213,c),
(120,242,o),
(153,252,o),
(193,252,cs),
(222,252,o),
(247,242,o),
(290,213,cs),
(307,201,o),
(325,190,o),
(344,179,c),
(321,174,o),
(280,163,o),
(223,146,cs),
(159,127,o),
(97,127,o),
(0,127,cs),
(-6,127,o),
(-8,125,o),
(-8,119,cs),
(-8,17,ls),
(-8,12,o),
(-6,9,o),
(0,9,cs)
);
}
);
width = 649;
}
);
unicode = 65187;
},
{
glyphname = uni062F;
layers = (
{
anchors = (
{
name = bottom;
position = "{214, -100}";
},
{
name = bottom.dot;
position = "{215, -18}";
},
{
name = top;
position = "{229, 637}";
},
{
name = top.dot;
position = "{229, 456}";
}
);
background = {
shapes = (
{
closed = 1;
nodes = (
(238,0,o),
(309,15,o),
(357,39,c),
(373,70,o),
(392,131,o),
(392,149,cs),
(392,185,o),
(377,229,o),
(358,280,cs),
(341,324,o),
(312,398,o),
(297,450,c),
(253,437,o),
(213,393,o),
(213,350,cs),
(213,324,o),
(239,283,o),
(277,229,cs),
(292,208,o),
(309,178,o),
(331,140,c),
(287,126,o),
(243,119,o),
(200,119,cs),
(137,119,o),
(97,132,o),
(64,159,c),
(47,141,o),
(34,106,o),
(34,78,cs),
(34,26,o),
(79,0,o),
(168,0,cs)
);
}
);
};
layerId = "506100EA-3BB8-464E-A0A0-F667AF3F2320";
shapes = (
{
closed = 1;
nodes = (
(238,0,o),
(309,15,o),
(357,39,c),
(373,70,o),
(392,131,o),
(392,149,cs),
(392,185,o),
(377,229,o),
(358,280,cs),
(341,324,o),
(312,398,o),
(297,450,c),
(253,437,o),
(213,393,o),
(213,350,cs),
(213,324,o),
(239,283,o),
(277,229,cs),
(292,208,o),
(309,178,o),
(331,140,c),
(287,126,o),
(243,119,o),
(200,119,cs),
(137,119,o),
(97,132,o),
(64,159,c),
(47,141,o),
(34,106,o),
(34,78,cs),
(34,26,o),
(79,0,o),
(168,0,cs)
);
}
);
width = 435;
}
);
unicode = (1583,65193);
},
{
glyphname = uniFEAA;
layers = (
{
anchors = (
{
name = bottom;
position = "{236, -100}";
},
{
name = bottom.dot;
position = "{237, -18}";
},
{
name = top;
position = "{229, 637}";
},
{
name = top.dot;
position = "{226, 456}";
}
);
background = {
shapes = (
{
closed = 1;
nodes = (
(234,0,o),
(303,18,o),
(377,55,c),
(408,24,o),
(447,9,o),
(494,9,cs),
(499,9,o),
(502,12,o),
(502,17,cs),
(502,119,ls),
(502,125,o),
(499,127,o),
(494,127,cs),
(440,127,o),
(414,144,o),
(389,195,cs),
(358,257,o),
(330,342,o),
(304,450,c),
(258,436,o),
(234,399,o),
(234,351,cs),
(234,312,o),
(268,223,o),
(320,133,c),
(279,124,o),
(239,119,o),
(200,119,cs),
(137,119,o),
(97,132,o),
(64,159,c),
(47,141,o),
(34,106,o),
(34,78,cs),
(34,26,o),
(79,0,o),
(168,0,cs)
);
}
);
};
layerId = "506100EA-3BB8-464E-A0A0-F667AF3F2320";
shapes = (
{
closed = 1;
nodes = (
(234,0,o),
(303,18,o),
(377,55,c),
(408,24,o),
(447,9,o),
(494,9,cs),
(499,9,o),
(502,12,o),
(502,17,cs),
(502,119,ls),
(502,125,o),
(499,127,o),
(494,127,cs),
(440,127,o),
(414,144,o),
(389,195,cs),
(358,257,o),
(330,342,o),
(304,450,c),
(258,436,o),
(234,399,o),
(234,351,cs),
(234,312,o),
(268,223,o),
(320,133,c),
(279,124,o),
(239,119,o),
(200,119,cs),
(137,119,o),
(97,132,o),
(64,159,c),
(47,141,o),
(34,106,o),
(34,78,cs),
(34,26,o),
(79,0,o),
(168,0,cs)
);
}
);
width = 485;
}
);
unicode = 65194;
},
{
glyphname = uni0631;
layers = (
{
anchors = (
{
name = bottom;
position = "{102, -258}";
},
{
name = bottom.dot;
position = "{102, -208}";
},
{
name = center;
position = "{171, 81}";
},
{
name = top;
position = "{199, 592}";
},
{
name = top.dot;
position = "{203, 389}";
}
);
background = {
shapes = (
{
closed = 1;
nodes = (
(146,-195,o),
(186,-183,o),
(222,-158,cs),
(293,-108,o),
(335,-15,o),
(335,89,cs),
(335,132,o),
(322,180,o),
(305,230,cs),
(291,271,o),
(267,341,o),
(256,383,c),
(207,358,o),
(173,317,o),
(173,278,cs),
(173,235,o),
(209,179,o),
(248,119,cs),
(261,99,o),
(272,78,o),
(282,58,c),
(251,-35,o),
(182,-86,o),
(83,-86,cs),
(52,-86,o),
(18,-81,o),
(-18,-72,c),
(-34,-114,l),
(24,-163,o),
(79,-195,o),
(102,-195,cs)
);
}
);
};
layerId = "506100EA-3BB8-464E-A0A0-F667AF3F2320";
shapes = (
{
closed = 1;
nodes = (
(146,-195,o),
(186,-183,o),
(222,-158,cs),
(293,-108,o),
(335,-15,o),
(335,89,cs),
(335,132,o),
(322,180,o),
(305,230,cs),
(291,271,o),
(267,341,o),
(256,383,c),
(207,358,o),
(173,317,o),
(173,278,cs),
(173,235,o),
(209,179,o),
(248,119,cs),
(261,99,o),
(272,78,o),
(282,58,c),
(251,-35,o),
(182,-86,o),
(83,-86,cs),
(52,-86,o),
(18,-81,o),
(-18,-72,c),
(-34,-114,l),
(24,-163,o),
(79,-195,o),
(102,-195,cs)
);
}
);
width = 377;
}
);
unicode = (1585,65197);
},
{
glyphname = uniFEAE;
layers = (
{
anchors = (
{
name = bottom;
position = "{102, -258}";
},
{
name = bottom.dot;
position = "{102, -208}";
},
{
name = center;
position = "{171, 81}";
},
{
name = top;
position = "{199, 592}";
},
{
name = top.dot;
position = "{203, 389}";
}
);
background = {
shapes = (
{
closed = 1;
nodes = (
(217,-195,o),
(308,-105,o),
(330,28,c),
(355,15,o),
(380,9,o),
(404,9,cs),
(409,9,o),
(412,12,o),
(412,17,cs),
(412,119,ls),
(412,125,o),
(409,127,o),
(404,127,cs),
(377,127,o),
(352,133,o),
(329,146,c),
(325,169,o),
(308,222,o),
(279,306,cs),
(270,332,o),
(263,357,o),
(256,383,c),
(207,358,o),
(173,317,o),
(173,278,cs),
(173,262,o),
(178,243,o),
(188,221,cs),
(198,199,o),
(218,165,o),
(248,119,cs),
(261,99,o),
(272,78,o),
(282,58,c),
(251,-35,o),
(182,-86,o),
(83,-86,cs),
(52,-86,o),
(18,-81,o),
(-18,-72,c),
(-34,-114,l),
(24,-163,o),
(79,-195,o),
(102,-195,cs)
);
}
);
};
layerId = "506100EA-3BB8-464E-A0A0-F667AF3F2320";
shapes = (
{
closed = 1;
nodes = (
(217,-195,o),
(308,-105,o),
(330,28,c),
(355,15,o),
(380,9,o),
(404,9,cs),
(409,9,o),
(412,12,o),
(412,17,cs),
(412,119,ls),
(412,125,o),
(409,127,o),
(404,127,cs),
(377,127,o),
(352,133,o),
(329,146,c),
(325,169,o),
(308,222,o),
(279,306,cs),
(270,332,o),
(263,357,o),
(256,383,c),
(207,358,o),
(173,317,o),
(173,278,cs),
(173,262,o),
(178,243,o),
(188,221,cs),
(198,199,o),
(218,165,o),
(248,119,cs),
(261,99,o),
(272,78,o),
(282,58,c),
(251,-35,o),
(182,-86,o),
(83,-86,cs),
(52,-86,o),
(18,-81,o),
(-18,-72,c),
(-34,-114,l),
(24,-163,o),
(79,-195,o),
(102,-195,cs)
);
}
);
width = 395;
}
);
unicode = 65198;
},
{
glyphname = uni075B.fina;
layers = (
{
anchors = (
{
name = bottom;
position = "{104, -258}";
},
{
name = top;
position = "{199, 592}";
}
);
background = {
shapes = (
{
closed = 1;
nodes = (
(217,-195,o),
(308,-105,o),
(330,28,c),
(355,15,o),
(380,9,o),
(404,9,cs),
(409,9,o),
(412,12,o),
(412,17,cs),
(412,119,ls),
(412,125,o),
(409,127,o),
(404,127,cs),
(377,127,o),
(352,133,o),
(329,146,c),
(325,169,o),
(308,222,o),
(279,306,cs),
(270,332,o),
(263,357,o),
(256,383,c),
(207,358,o),
(173,317,o),
(173,278,cs),
(173,236,o),
(208,180,o),
(248,119,cs),
(261,99,o),
(272,78,o),
(282,58,c),
(277,43,o),
(271,29,o),
(265,17,c),
(71,17,l),
(71,-31,l),
(229,-31,l),
(190,-68,o),
(142,-86,o),
(83,-86,cs),
(52,-86,o),
(18,-81,o),
(-18,-72,c),
(-34,-114,l),
(24,-163,o),
(79,-195,o),
(102,-195,cs)
);
}
);
};
layerId = "506100EA-3BB8-464E-A0A0-F667AF3F2320";
shapes = (
{
closed = 1;
nodes = (
(217,-195,o),
(308,-105,o),
(330,28,c),
(355,15,o),
(380,9,o),
(404,9,cs),
(409,9,o),
(412,12,o),
(412,17,cs),
(412,119,ls),
(412,125,o),
(409,127,o),
(404,127,cs),
(377,127,o),
(352,133,o),
(329,146,c),
(325,169,o),
(308,222,o),
(279,306,cs),
(270,332,o),
(263,357,o),
(256,383,c),
(207,358,o),
(173,317,o),
(173,278,cs),
(173,236,o),
(208,180,o),
(248,119,cs),
(261,99,o),
(272,78,o),
(282,58,c),
(277,43,o),
(271,29,o),
(265,17,c),
(71,17,l),
(71,-31,l),
(229,-31,l),
(190,-68,o),
(142,-86,o),
(83,-86,cs),
(52,-86,o),
(18,-81,o),
(-18,-72,c),
(-34,-114,l),
(24,-163,o),
(79,-195,o),
(102,-195,cs)
);
}
);
width = 395;
}
);
},
{
glyphname = uni08AA;
layers = (
{
anchors = (
{
name = bottom;
position = "{202, -258}";
},
{
name = top;
position = "{299, 592}";
}
);
background = {
shapes = (
{
closed = 1;
nodes = (
(468,-200,l),
(442,-161,o),
(413,-117,o),
(379,-76,c),
(403,-26,o),
(416,31,o),
(416,89,cs),
(416,132,o),
(403,180,o),
(386,230,cs),
(372,271,o),
(348,341,o),
(337,383,c),
(299,364,o),
(254,323,o),
(254,278,cs),
(254,247,o),
(270,216,o),
(284,190,c),
(314,138,o),
(343,99,o),
(363,58,c),
(354,28,o),
(341,3,o),
(326,-20,c),
(279,23,o),
(225,54,o),
(162,54,cs),
(85,54,o),
(20,1,o),
(20,-71,cs),
(20,-112,o),
(40,-148,o),
(70,-174,cs),
(100,-199,o),
(141,-215,o),
(183,-215,cs),
(247,-215,o),
(300,-184,o),
(339,-137,c),
(357,-152,o),
(373,-168,o),
(389,-185,c),
(406,-201,o),
(421,-216,o),
(437,-231,c)
);
},
{
closed = 1;
nodes = (
(137,-105,o),
(106,-97,o),
(76,-78,c),
(102,-58,o),
(128,-46,o),
(166,-46,cs),
(199,-46,o),
(232,-59,o),
(264,-78,c),
(234,-96,o),
(200,-105,o),
(165,-105,cs)
);
}
);
};
layerId = "506100EA-3BB8-464E-A0A0-F667AF3F2320";
shapes = (
{
closed = 1;
nodes = (
(468,-200,l),
(442,-161,o),
(413,-117,o),
(379,-76,c),
(403,-26,o),
(416,31,o),
(416,89,cs),
(416,132,o),
(403,180,o),
(386,230,cs),
(372,271,o),
(348,341,o),
(337,383,c),
(299,364,o),
(254,323,o),
(254,278,cs),
(254,247,o),
(270,216,o),
(284,190,c),
(314,138,o),
(343,99,o),
(363,58,c),
(354,28,o),
(341,3,o),
(326,-20,c),
(279,23,o),
(225,54,o),
(162,54,cs),
(85,54,o),
(20,1,o),
(20,-71,cs),
(20,-112,o),
(40,-148,o),
(70,-174,cs),
(100,-199,o),
(141,-215,o),
(183,-215,cs),
(247,-215,o),
(300,-184,o),
(339,-137,c),
(357,-152,o),
(373,-168,o),
(389,-185,c),
(406,-201,o),
(421,-216,o),
(437,-231,c)
);
},
{
closed = 1;
nodes = (
(137,-105,o),
(106,-97,o),
(76,-78,c),
(102,-58,o),
(128,-46,o),
(166,-46,cs),
(199,-46,o),
(232,-59,o),
(264,-78,c),
(234,-96,o),
(200,-105,o),
(165,-105,cs)
);
}
);
width = 458;
}
);
unicode = 2218;
},
{
glyphname = uni08AA.fina;
layers = (
{
anchors = (
{
name = bottom;
position = "{202, -258}";
},
{
name = top;
position = "{299, 592}";
}
);
background = {
shapes = (
{
closed = 1;
nodes = (
(468,-200,l),
(434,-149,o),
(404,-108,o),
(378,-76,c),
(392,-51,o),
(406,-6,o),
(411,27,c),
(434,15,o),
(459,9,o),
(485,9,cs),
(490,9,o),
(493,12,o),
(493,17,cs),
(493,119,ls),
(493,125,o),
(490,127,o),
(485,127,cs),
(458,127,o),
(433,133,o),
(410,146,c),
(402,177,o),
(396,201,o),
(386,230,cs),
(372,271,o),
(348,341,o),
(337,383,c),
(291,360,o),
(254,318,o),
(254,278,cs),
(254,236,o),
(289,178,o),
(329,118,c),
(343,95,o),
(355,75,o),
(363,58,c),
(354,28,o),
(341,2,o),
(326,-20,c),
(303,1,o),
(280,18,o),
(257,29,c),
(225,46,o),
(194,54,o),
(162,54,cs),
(133,54,o),
(106,47,o),
(84,34,cs),
(45,12,o),
(20,-26,o),
(20,-71,cs),
(20,-97,o),
(27,-121,o),
(42,-143,cs),
(73,-187,o),
(128,-215,o),
(183,-215,cs),
(226,-215,o),
(265,-201,o),
(301,-173,cs),
(315,-162,o),
(328,-150,o),
(339,-136,c),
(359,-154,o),
(381,-176,o),
(437,-231,c)
);
},
{
closed = 1;
nodes = (
(134,-105,o),
(105,-96,o),
(76,-78,c),
(103,-57,o),
(133,-46,o),
(166,-46,cs),
(197,-46,o),
(229,-57,o),
(264,-78,c),
(233,-96,o),
(200,-105,o),
(165,-105,cs)
);
}
);
};
layerId = "506100EA-3BB8-464E-A0A0-F667AF3F2320";
shapes = (
{
closed = 1;
nodes = (
(468,-200,l),
(434,-149,o),
(404,-108,o),
(378,-76,c),
(392,-51,o),
(406,-6,o),
(411,27,c),
(434,15,o),
(459,9,o),
(485,9,cs),
(490,9,o),
(493,12,o),
(493,17,cs),
(493,119,ls),
(493,125,o),
(490,127,o),
(485,127,cs),
(458,127,o),
(433,133,o),
(410,146,c),
(402,177,o),
(396,201,o),
(386,230,cs),
(372,271,o),
(348,341,o),
(337,383,c),
(291,360,o),
(254,318,o),
(254,278,cs),
(254,236,o),
(289,178,o),
(329,118,c),
(343,95,o),
(355,75,o),
(363,58,c),
(354,28,o),
(341,2,o),
(326,-20,c),
(303,1,o),
(280,18,o),
(257,29,c),
(225,46,o),
(194,54,o),
(162,54,cs),
(133,54,o),
(106,47,o),
(84,34,cs),
(45,12,o),
(20,-26,o),
(20,-71,cs),
(20,-97,o),
(27,-121,o),
(42,-143,cs),
(73,-187,o),
(128,-215,o),
(183,-215,cs),
(226,-215,o),
(265,-201,o),
(301,-173,cs),
(315,-162,o),
(328,-150,o),
(339,-136,c),
(359,-154,o),
(381,-176,o),
(437,-231,c)
);
},
{
closed = 1;
nodes = (
(134,-105,o),
(105,-96,o),
(76,-78,c),
(103,-57,o),
(133,-46,o),
(166,-46,cs),
(197,-46,o),
(229,-57,o),
(264,-78,c),
(233,-96,o),
(200,-105,o),
(165,-105,cs)
);
}
);
width = 477;
}
);
},
{
glyphname = uni0633;
layers = (
{
anchors = (
{
name = bottom;
position = "{742, -110}";
},
{
name = bottom.dot;
position = "{742, -38}";
},
{
name = top;
position = "{731, 528}";
},
{
name = top.dot;
position = "{735, 337}";
}
);
background = {
shapes = (
{
closed = 1;
nodes = (
(306,-252,o),
(357,-242,o),
(403,-220,cs),
(495,-177,o),
(552,-96,o),
(552,-7,cs),
(552,2,l),
(563,1,o),
(574,0,o),
(585,0,cs),
(620,0,o),
(649,3,o),
(674,8,cs),
(698,13,o),
(713,20,o),
(718,29,cs),
(729,51,l),
(795,21,o),
(886,0,o),
(968,0,c),
(988,38,o),
(1010,111,o),
(1010,142,cs),
(1010,160,o),
(1005,195,o),
(995,248,cs),
(986,292,o),
(977,338,o),
(968,383,c),
(918,358,o),
(877,313,o),
(877,281,cs),
(877,254,o),
(892,227,o),
(908,197,cs),
(923,168,o),
(938,139,o),
(952,110,c),
(873,118,o),
(816,129,o),
(765,155,c),
(784,214,o),
(799,262,o),
(808,283,c),
(796,290,o),
(783,293,o),
(770,293,cs),
(747,293,o),
(731,284,o),
(724,265,cs),
(714,241,o),
(705,217,o),
(695,192,cs),
(683,161,o),
(674,140,o),
(668,130,c),
(632,119,o),
(623,119,o),
(597,119,cs),
(580,119,o),
(560,121,o),
(537,124,c),
(524,196,o),
(516,244,o),
(513,270,c),
(444,236,o),
(412,194,o),
(412,138,cs),
(412,111,o),
(451,43,o),
(497,-45,c),
(426,-109,o),
(359,-134,o),
(254,-134,cs),
(165,-134,o),
(123,-88,o),
(123,7,cs),
(123,30,o),
(128,57,o),
(137,87,c),
(93,98,l),
(76,35,o),
(68,-13,o),
(68,-47,cs),
(68,-180,o),
(132,-252,o),
(251,-252,cs)
);
}
);
};
layerId = "506100EA-3BB8-464E-A0A0-F667AF3F2320";
shapes = (
{
closed = 1;
nodes = (
(306,-252,o),
(357,-242,o),
(403,-220,cs),
(495,-177,o),
(552,-96,o),
(552,-7,cs),
(552,2,l),
(563,1,o),
(574,0,o),
(585,0,cs),
(620,0,o),
(649,3,o),
(674,8,cs),
(698,13,o),
(713,20,o),
(718,29,cs),
(729,51,l),
(795,21,o),
(886,0,o),
(968,0,c),
(988,38,o),
(1010,111,o),
(1010,142,cs),
(1010,160,o),
(1005,195,o),
(995,248,cs),
(986,292,o),
(977,338,o),
(968,383,c),
(918,358,o),
(877,313,o),
(877,281,cs),
(877,254,o),
(892,227,o),
(908,197,cs),
(923,168,o),
(938,139,o),
(952,110,c),
(873,118,o),
(816,129,o),
(765,155,c),
(784,214,o),
(799,262,o),
(808,283,c),
(796,290,o),
(783,293,o),
(770,293,cs),
(747,293,o),
(731,284,o),
(724,265,cs),
(714,241,o),
(705,217,o),
(695,192,cs),
(683,161,o),
(674,140,o),
(668,130,c),
(632,119,o),
(623,119,o),
(597,119,cs),
(580,119,o),
(560,121,o),
(537,124,c),
(524,196,o),
(516,244,o),
(513,270,c),
(444,236,o),
(412,194,o),
(412,138,cs),
(412,111,o),
(451,43,o),
(497,-45,c),
(426,-109,o),
(359,-134,o),
(254,-134,cs),
(165,-134,o),
(123,-88,o),
(123,7,cs),
(123,30,o),
(128,57,o),
(137,87,c),
(93,98,l),
(76,35,o),
(68,-13,o),
(68,-47,cs),
(68,-180,o),
(132,-252,o),
(251,-252,cs)
);
}
);
width = 1061;
}
);
unicode = (1587,65201);
},
{
glyphname = uniFEB2;
layers = (
{
anchors = (
{
name = bottom;
position = "{742, -110}";
},
{
name = bottom.dot;
position = "{742, -38}";
},
{
name = top;
position = "{721, 528}";
},
{
name = top.dot;
position = "{715, 337}";
}
);
background = {
shapes = (
{
closed = 1;
nodes = (
(306,-252,o),
(357,-242,o),
(403,-220,cs),
(495,-177,o),
(552,-96,o),
(552,-7,cs),
(552,1,l),
(559,0,o),
(565,0,o),
(583,0,cs),
(621,0,o),
(674,10,o),
(692,22,c),
(727,7,o),
(754,0,o),
(773,0,cs),
(819,0,o),
(875,7,o),
(885,33,c),
(900,69,l),
(931,36,o),
(994,9,o),
(1047,9,cs),
(1053,9,o),
(1056,12,o),
(1056,17,cs),
(1056,119,ls),
(1056,125,o),
(1053,127,o),
(1047,127,cs),
(1005,127,o),
(970,134,o),
(943,146,c),
(929,154,l),
(951,227,o),
(966,274,o),
(974,293,c),
(964,300,o),
(953,304,o),
(940,304,cs),
(922,304,o),
(908,297,o),
(898,287,c),
(889,276,o),
(882,251,o),
(861,195,cs),
(848,159,o),
(839,136,o),
(832,126,c),
(810,119,o),
(786,115,o),
(761,115,c),
(751,116,o),
(743,116,o),
(733,116,c),
(743,148,ls),
(766,222,o),
(781,268,o),
(788,284,c),
(777,292,o),
(766,295,o),
(753,295,cs),
(729,295,o),
(711,283,o),
(704,265,cs),
(695,241,o),
(685,217,o),
(676,192,cs),
(664,162,o),
(655,141,o),
(649,130,c),
(622,123,o),
(603,119,o),
(577,119,cs),
(564,119,o),
(551,120,o),
(538,121,c),
(520,224,o),
(517,239,o),
(513,270,c),
(444,236,o),
(412,194,o),
(412,138,cs),
(412,118,o),
(445,43,o),
(497,-45,c),
(426,-109,o),
(359,-134,o),
(254,-134,cs),
(165,-134,o),
(123,-88,o),
(123,7,cs),
(123,30,o),
(128,57,o),
(137,87,c),
(93,98,l),
(76,35,o),
(68,-13,o),
(68,-47,cs),
(68,-180,o),
(132,-252,o),
(251,-252,cs)
);
}
);
};
layerId = "506100EA-3BB8-464E-A0A0-F667AF3F2320";
shapes = (
{
closed = 1;
nodes = (
(306,-252,o),
(357,-242,o),
(403,-220,cs),
(495,-177,o),
(552,-96,o),
(552,-7,cs),
(552,1,l),
(559,0,o),
(565,0,o),
(583,0,cs),
(621,0,o),
(674,10,o),
(692,22,c),
(727,7,o),
(754,0,o),
(773,0,cs),
(819,0,o),
(875,7,o),
(885,33,c),
(900,69,l),
(931,36,o),
(994,9,o),
(1047,9,cs),
(1053,9,o),
(1056,12,o),
(1056,17,cs),
(1056,119,ls),
(1056,125,o),
(1053,127,o),
(1047,127,cs),
(1005,127,o),
(970,134,o),
(943,146,c),
(929,154,l),
(951,227,o),
(966,274,o),
(974,293,c),
(964,300,o),
(953,304,o),
(940,304,cs),
(922,304,o),
(908,297,o),
(898,287,c),
(889,276,o),
(882,251,o),
(861,195,cs),
(848,159,o),
(839,136,o),
(832,126,c),
(810,119,o),
(786,115,o),
(761,115,c),
(751,116,o),
(743,116,o),
(733,116,c),
(743,148,ls),
(766,222,o),
(781,268,o),
(788,284,c),
(777,292,o),
(766,295,o),
(753,295,cs),
(729,295,o),
(711,283,o),
(704,265,cs),
(695,241,o),
(685,217,o),
(676,192,cs),
(664,162,o),
(655,141,o),
(649,130,c),
(622,123,o),
(603,119,o),
(577,119,cs),
(564,119,o),
(551,120,o),
(538,121,c),
(520,224,o),
(517,239,o),
(513,270,c),
(444,236,o),
(412,194,o),
(412,138,cs),
(412,118,o),
(445,43,o),
(497,-45,c),
(426,-109,o),
(359,-134,o),
(254,-134,cs),
(165,-134,o),
(123,-88,o),
(123,7,cs),
(123,30,o),
(128,57,o),
(137,87,c),
(93,98,l),
(76,35,o),
(68,-13,o),
(68,-47,cs),
(68,-180,o),
(132,-252,o),
(251,-252,cs)
);
}
);
width = 1039;
}
);
unicode = 65202;
},
{
glyphname = uniFEB4;
layers = (
{
anchors = (
{
name = bottom;
position = "{364, -110}";
},
{
name = bottom.dot;
position = "{364, -38}";
},
{
name = top;
position = "{364, 528}";
},
{
name = top.dot;
position = "{364, 337}";
}
);
background = {
shapes = (
{
closed = 1;
nodes = (
(277,0,o),
(331,9,o),
(350,22,c),
(385,7,o),
(412,0,o),
(431,0,cs),
(460,0,o),
(485,3,o),
(504,8,cs),
(542,18,o),
(548,39,o),
(559,69,c),
(589,36,o),
(652,9,o),
(706,9,cs),
(711,9,o),
(714,12,o),
(714,17,cs),
(714,119,ls),
(714,125,o),
(711,127,o),
(706,127,cs),
(655,127,o),
(616,136,o),
(586,154,c),
(612,238,o),
(624,271,o),
(632,293,c),
(622,300,o),
(611,304,o),
(598,304,cs),
(575,304,o),
(556,291,o),
(548,273,c),
(533,231,o),
(521,201,o),
(513,179,cs),
(501,147,o),
(495,133,o),
(491,126,c),
(468,119,o),
(444,115,o),
(419,115,c),
(410,116,o),
(401,116,o),
(392,116,c),
(423,216,o),
(438,264,o),
(446,284,c),
(436,292,o),
(424,295,o),
(411,295,cs),
(387,295,o),
(369,282,o),
(362,265,c),
(332,184,o),
(317,146,o),
(307,130,c),
(270,119,o),
(262,119,o),
(235,119,cs),
(217,119,o),
(199,120,o),
(181,122,c),
(197,163,o),
(212,203,o),
(229,243,c),
(218,250,o),
(208,254,o),
(198,254,cs),
(180,254,o),
(164,243,o),
(156,229,cs),
(130,183,o),
(121,167,o),
(106,153,cs),
(87,134,o),
(61,127,o),
(0,127,cs),
(-6,127,o),
(-8,125,o),
(-8,119,cs),
(-8,17,ls),
(-8,12,o),
(-6,9,o),
(0,9,cs),
(42,9,o),
(88,19,o),
(115,32,c),
(159,11,o),
(197,0,o),
(230,0,cs)
);
}
);
};
layerId = "506100EA-3BB8-464E-A0A0-F667AF3F2320";
shapes = (
{
closed = 1;
nodes = (
(277,0,o),
(331,9,o),
(350,22,c),
(385,7,o),
(412,0,o),
(431,0,cs),
(460,0,o),
(485,3,o),
(504,8,cs),
(542,18,o),
(548,39,o),
(559,69,c),
(589,36,o),
(652,9,o),
(706,9,cs),
(711,9,o),
(714,12,o),
(714,17,cs),
(714,119,ls),
(714,125,o),
(711,127,o),
(706,127,cs),
(655,127,o),
(616,136,o),
(586,154,c),
(612,238,o),
(624,271,o),
(632,293,c),
(622,300,o),
(611,304,o),
(598,304,cs),
(575,304,o),
(556,291,o),
(548,273,c),
(533,231,o),
(521,201,o),
(513,179,cs),
(501,147,o),
(495,133,o),
(491,126,c),
(468,119,o),
(444,115,o),
(419,115,c),
(410,116,o),
(401,116,o),
(392,116,c),
(423,216,o),
(438,264,o),
(446,284,c),
(436,292,o),
(424,295,o),
(411,295,cs),
(387,295,o),
(369,282,o),
(362,265,c),
(332,184,o),
(317,146,o),
(307,130,c),
(270,119,o),
(262,119,o),
(235,119,cs),
(217,119,o),
(199,120,o),
(181,122,c),
(197,163,o),
(212,203,o),
(229,243,c),
(218,250,o),
(208,254,o),
(198,254,cs),
(180,254,o),
(164,243,o),
(156,229,cs),
(130,183,o),
(121,167,o),
(106,153,cs),
(87,134,o),
(61,127,o),
(0,127,cs),
(-6,127,o),
(-8,125,o),
(-8,119,cs),
(-8,17,ls),
(-8,12,o),
(-6,9,o),
(0,9,cs),
(42,9,o),
(88,19,o),
(115,32,c),
(159,11,o),
(197,0,o),
(230,0,cs)
);
}
);
width = 697;
}
);
unicode = 65204;
},
{
glyphname = uniFEB3;
layers = (
{
anchors = (
{
name = bottom;
position = "{364, -110}";
},
{
name = bottom.dot;
position = "{364, -38}";
},
{
name = top;
position = "{364, 528}";
},
{
name = top.dot;
position = "{364, 337}";
}
);
background = {
shapes = (
{
closed = 1;
nodes = (
(288,0,o),
(346,12,o),
(356,27,cs),
(360,34,o),
(364,42,o),
(368,51,c),
(438,20,o),
(527,0,o),
(607,0,c),
(625,36,o),
(649,109,o),
(649,142,cs),
(649,168,o),
(640,213,o),
(607,383,c),
(557,358,o),
(516,313,o),
(516,281,cs),
(516,251,o),
(550,191,o),
(591,110,c),
(519,118,o),
(455,129,o),
(404,155,c),
(416,199,o),
(430,244,o),
(446,284,c),
(436,292,o),
(424,295,o),
(411,295,cs),
(387,295,o),
(369,282,o),
(362,265,c),
(332,183,o),
(316,145,o),
(307,130,c),
(280,122,o),
(262,119,o),
(235,119,cs),
(217,119,o),
(199,120,o),
(181,122,c),
(192,146,o),
(208,187,o),
(229,243,c),
(218,250,o),
(208,254,o),
(198,254,cs),
(180,254,o),
(164,243,o),
(156,229,cs),
(128,181,o),
(120,167,o),
(106,153,cs),
(87,134,o),
(61,127,o),
(0,127,cs),
(-6,127,o),
(-8,125,o),
(-8,119,cs),
(-8,17,ls),
(-8,12,o),
(-6,9,o),
(0,9,cs),
(42,9,o),
(88,19,o),
(115,32,c),
(159,11,o),
(197,0,o),
(230,0,cs)
);
}
);
};
layerId = "506100EA-3BB8-464E-A0A0-F667AF3F2320";
shapes = (
{
closed = 1;
nodes = (
(288,0,o),
(346,12,o),
(356,27,cs),
(360,34,o),
(364,42,o),
(368,51,c),
(438,20,o),
(527,0,o),
(607,0,c),
(625,36,o),
(649,109,o),
(649,142,cs),
(649,168,o),
(640,213,o),
(607,383,c),
(557,358,o),
(516,313,o),
(516,281,cs),
(516,251,o),
(550,191,o),
(591,110,c),
(519,118,o),
(455,129,o),
(404,155,c),
(416,199,o),
(430,244,o),
(446,284,c),
(436,292,o),
(424,295,o),
(411,295,cs),
(387,295,o),
(369,282,o),
(362,265,c),
(332,183,o),
(316,145,o),
(307,130,c),
(280,122,o),
(262,119,o),
(235,119,cs),
(217,119,o),
(199,120,o),
(181,122,c),
(192,146,o),
(208,187,o),
(229,243,c),
(218,250,o),
(208,254,o),
(198,254,cs),
(180,254,o),
(164,243,o),
(156,229,cs),
(128,181,o),
(120,167,o),
(106,153,cs),
(87,134,o),
(61,127,o),
(0,127,cs),
(-6,127,o),
(-8,125,o),
(-8,119,cs),
(-8,17,ls),
(-8,12,o),
(-6,9,o),
(0,9,cs),
(42,9,o),
(88,19,o),
(115,32,c),
(159,11,o),
(197,0,o),
(230,0,cs)
);
}
);
width = 700;
}
);
unicode = 65203;
},
{
glyphname = uni0635;
layers = (
{
anchors = (
{
name = bottom;
position = "{792, -110}";
},
{
name = bottom.dot;
position = "{792, -38}";
},
{
name = top;
position = "{741, 606}";
},
{
name = top.dot;
position = "{749, 415}";
}
);
background = {
shapes = (
{
closed = 1;
nodes = (
(306,-252,o),
(357,-242,o),
(403,-220,cs),
(495,-177,o),
(552,-96,o),
(552,-7,cs),
(552,3,o),
(551,13,o),
(551,23,c),
(617,8,o),
(680,0,o),
(741,0,cs),
(801,0,o),
(858,10,o),
(914,30,cs),
(1025,69,o),
(1081,139,o),
(1081,226,cs),
(1081,245,o),
(1069,269,o),
(1045,297,cs),
(997,354,o),
(927,400,o),
(878,400,cs),
(800,400,o),
(694,312,o),
(561,135,c),
(534,144,l),
(521,217,o),
(513,268,o),
(513,270,c),
(444,236,o),
(412,194,o),
(412,144,cs),
(412,106,o),
(450,43,o),
(497,-45,c),
(426,-109,o),
(359,-134,o),
(254,-134,cs),
(165,-134,o),
(123,-88,o),
(123,7,cs),
(123,30,o),
(128,57,o),
(137,87,c),
(93,98,l),
(76,35,o),
(68,-13,o),
(68,-47,cs),
(68,-180,o),
(132,-252,o),
(251,-252,cs)
);
},
{
closed = 1;
nodes = (
(717,110,o),
(675,114,o),
(626,120,c),
(693,197,o),
(783,282,o),
(854,282,cs),
(906,282,o),
(963,248,o),
(1022,179,c),
(925,132,o),
(847,110,o),
(751,110,cs)
);
}
);
};
layerId = "506100EA-3BB8-464E-A0A0-F667AF3F2320";
shapes = (
{
closed = 1;
nodes = (
(306,-252,o),
(357,-242,o),
(403,-220,cs),
(495,-177,o),
(552,-96,o),
(552,-7,c),
(552,3,o),
(551,13,o),
(551,23,c),
(617,8,o),
(680,0,o),
(741,0,cs),
(801,0,o),
(858,10,o),
(914,30,cs),
(1025,69,o),
(1081,139,o),
(1081,226,cs),
(1081,245,o),
(1069,269,o),
(1045,297,cs),
(997,354,o),
(927,400,o),
(878,400,cs),
(800,400,o),
(694,312,o),
(561,135,c),
(534,144,l),
(521,217,o),
(513,268,o),
(513,270,c),
(444,236,o),
(412,194,o),
(412,144,cs),
(412,106,o),
(450,43,o),
(497,-45,c),
(426,-109,o),
(359,-134,o),
(254,-134,cs),
(165,-134,o),
(123,-88,o),
(123,7,cs),
(123,30,o),
(128,57,o),
(137,87,c),
(93,98,l),
(76,35,o),
(68,-13,o),
(68,-47,cs),
(68,-180,o),
(132,-252,o),
(251,-252,cs)
);
},
{
closed = 1;
nodes = (
(717,110,o),
(675,114,o),
(626,120,c),
(693,197,o),
(783,282,o),
(854,282,cs),
(906,282,o),
(963,248,o),
(1022,179,c),
(925,132,o),
(847,110,o),
(751,110,cs)
);
}
);
width = 1131;
}
);
unicode = (1589,65209);
},
{
glyphname = uniFEBA;
layers = (
{
anchors = (
{
name = bottom;
position = "{792, -110}";
},
{
name = bottom.dot;
position = "{792, -38}";
},
{
name = top;
position = "{741, 606}";
},
{
name = top.dot;
position = "{749, 415}";
}
);
background = {
shapes = (
{
closed = 1;
nodes = (
(306,-252,o),
(357,-242,o),
(403,-220,cs),
(495,-177,o),
(552,-96,o),
(552,-7,cs),
(552,3,o),
(551,13,o),
(551,23,c),
(617,8,o),
(680,0,o),
(741,0,cs),
(847,0,o),
(955,34,o),
(1020,90,c),
(1066,39,o),
(1132,9,o),
(1195,9,cs),
(1201,9,o),
(1204,12,o),
(1204,17,cs),
(1204,119,ls),
(1204,125,o),
(1201,127,o),
(1195,127,cs),
(1146,127,o),
(1122,136,o),
(1071,166,c),
(1077,184,o),
(1081,204,o),
(1081,226,cs),
(1081,245,o),
(1069,269,o),
(1045,297,cs),
(997,354,o),
(927,400,o),
(878,400,cs),
(800,400,o),
(694,312,o),
(561,135,c),
(534,144,l),
(527,186,o),
(520,228,o),
(513,270,c),
(444,236,o),
(412,194,o),
(412,138,cs),
(412,119,o),
(417,107,o),
(497,-45,c),
(426,-109,o),
(359,-134,o),
(254,-134,cs),
(165,-134,o),
(123,-88,o),
(123,7,cs),
(123,30,o),
(128,57,o),
(137,87,c),
(93,98,l),
(76,35,o),
(68,-13,o),
(68,-47,cs),
(68,-180,o),
(132,-252,o),
(251,-252,cs)
);
},
{
closed = 1;
nodes = (
(717,110,o),
(675,114,o),
(626,120,c),
(654,152,o),
(682,181,o),
(710,206,cs),
(767,257,o),
(814,282,o),
(854,282,cs),
(906,282,o),
(963,248,o),
(1022,179,c),
(925,132,o),
(847,110,o),
(751,110,cs)
);
}
);
};
layerId = "506100EA-3BB8-464E-A0A0-F667AF3F2320";
shapes = (
{
closed = 1;
nodes = (
(306,-252,o),
(357,-242,o),
(403,-220,cs),
(495,-177,o),
(552,-96,o),
(552,-7,c),
(552,3,o),
(551,13,o),
(551,23,c),
(617,8,o),
(680,0,o),
(741,0,cs),
(847,0,o),
(955,34,o),
(1020,90,c),
(1066,39,o),
(1132,9,o),
(1195,9,cs),
(1201,9,o),
(1204,12,o),
(1204,17,cs),
(1204,119,ls),
(1204,125,o),
(1201,127,o),
(1195,127,cs),
(1146,127,o),
(1122,136,o),
(1071,166,c),
(1077,184,o),
(1081,204,o),
(1081,226,cs),
(1081,245,o),
(1069,269,o),
(1045,297,cs),
(997,354,o),
(927,400,o),
(878,400,cs),
(800,400,o),
(694,312,o),
(561,135,c),
(534,144,l),
(527,186,o),
(520,228,o),
(513,270,c),
(444,236,o),
(412,194,o),
(412,138,cs),
(412,119,o),
(417,107,o),
(497,-45,c),
(426,-109,o),
(359,-134,o),
(254,-134,cs),
(165,-134,o),
(123,-88,o),
(123,7,cs),
(123,30,o),
(128,57,o),
(137,87,c),
(93,98,l),
(76,35,o),
(68,-13,o),
(68,-47,cs),
(68,-180,o),
(132,-252,o),
(251,-252,cs)
);
},
{
closed = 1;
nodes = (
(717,110,o),
(675,114,o),
(626,120,c),
(654,152,o),
(682,181,o),
(710,206,cs),
(767,257,o),
(814,282,o),
(854,282,cs),
(906,282,o),
(963,248,o),
(1022,179,c),
(925,132,o),
(847,110,o),
(751,110,cs)
);
}
);
width = 1187;
}
);
unicode = 65210;
},
{
glyphname = uniFEBC;
layers = (
{
anchors = (
{
name = bottom;
position = "{452, -110}";
},
{
name = bottom.dot;
position = "{452, -38}";
},
{
name = top;
position = "{401, 606}";
},
{
name = top.dot;
position = "{409, 415}";
}
);
background = {
shapes = (
{
closed = 1;
nodes = (
(439,0,o),
(473,4,o),
(509,11,cs),
(581,26,o),
(649,57,o),
(681,88,c),
(729,36,o),
(793,9,o),
(854,9,cs),
(860,9,o),
(863,12,o),
(863,17,cs),
(863,119,ls),
(863,125,o),
(860,127,o),
(854,127,cs),
(807,127,o),
(781,136,o),
(733,164,c),
(740,182,o),
(744,203,o),
(744,226,cs),
(744,243,o),
(733,266,o),
(710,294,cs),
(666,350,o),
(591,400,o),
(542,400,cs),
(503,400,o),
(458,379,o),
(407,336,cs),
(355,294,o),
(294,227,o),
(225,135,c),
(211,140,o),
(198,144,o),
(184,149,c),
(197,181,o),
(210,213,o),
(223,246,c),
(213,252,o),
(202,256,o),
(191,256,cs),
(172,256,o),
(156,247,o),
(146,229,cs),
(141,219,o),
(136,210,o),
(131,201,cs),
(97,139,o),
(79,127,o),
(0,127,cs),
(-6,127,o),
(-8,125,o),
(-8,119,cs),
(-8,17,ls),
(-8,12,o),
(-6,9,o),
(0,9,cs),
(43,9,o),
(88,19,o),
(116,38,cs),
(123,42,o),
(129,47,o),
(133,53,c),
(213,15,o),
(316,0,o),
(405,0,cs)
);
},
{
closed = 1;
nodes = (
(375,110,o),
(334,114,o),
(291,121,c),
(378,223,o),
(458,282,o),
(517,282,cs),
(570,282,o),
(626,248,o),
(686,179,c),
(588,132,o),
(511,110,o),
(415,110,cs)
);
}
);
};
layerId = "506100EA-3BB8-464E-A0A0-F667AF3F2320";
shapes = (
{
closed = 1;
nodes = (
(439,0,o),
(473,4,o),
(509,11,cs),
(581,26,o),
(649,57,o),
(681,88,c),
(729,36,o),
(793,9,o),
(854,9,cs),
(860,9,o),
(863,12,o),
(863,17,cs),
(863,119,ls),
(863,125,o),
(860,127,o),
(854,127,cs),
(807,127,o),
(781,136,o),
(733,164,c),
(740,182,o),
(744,203,o),
(744,226,cs),
(744,243,o),
(733,266,o),
(710,294,cs),
(666,350,o),
(591,400,o),
(542,400,cs),
(503,400,o),
(458,379,o),
(407,336,cs),
(355,294,o),
(294,227,o),
(225,135,c),
(211,140,o),
(198,144,o),
(184,149,c),
(197,181,o),
(210,213,o),
(223,246,c),
(213,252,o),
(202,256,o),
(191,256,cs),
(172,256,o),
(156,247,o),
(146,229,cs),
(141,219,o),
(136,210,o),
(131,201,cs),
(97,139,o),
(79,127,o),
(0,127,cs),
(-6,127,o),
(-8,125,o),
(-8,119,cs),
(-8,17,ls),
(-8,12,o),
(-6,9,o),
(0,9,cs),
(43,9,o),
(88,19,o),
(116,38,cs),
(123,42,o),
(129,47,o),
(133,53,c),
(213,15,o),
(316,0,o),
(405,0,cs)
);
},
{
closed = 1;
nodes = (
(375,110,o),
(334,114,o),
(291,121,c),
(378,223,o),
(458,282,o),
(517,282,cs),
(570,282,o),
(626,248,o),
(686,179,c),
(588,132,o),
(511,110,o),
(415,110,cs)
);
}
);
width = 846;
}
);
unicode = 65212;
},
{
glyphname = uniFEBB;
layers = (
{
anchors = (
{
name = bottom;
position = "{452, -110}";
},
{
name = bottom.dot;
position = "{452, -38}";
},
{
name = top;
position = "{401, 606}";
},
{
name = top.dot;
position = "{409, 415}";
}
);
background = {
shapes = (
{
closed = 1;
nodes = (
(465,0,o),
(523,10,o),
(578,30,cs),
(689,71,o),
(744,138,o),
(744,226,cs),
(744,243,o),
(733,266,o),
(710,294,cs),
(666,350,o),
(591,400,o),
(542,400,cs),
(503,400,o),
(458,379,o),
(407,336,cs),
(355,294,o),
(294,227,o),
(225,135,c),
(211,140,o),
(198,144,o),
(184,149,c),
(197,181,o),
(210,213,o),
(223,246,c),
(213,252,o),
(202,256,o),
(191,256,cs),
(172,256,o),
(156,247,o),
(146,229,cs),
(140,217,o),
(134,208,o),
(129,199,cs),
(92,135,o),
(76,127,o),
(0,127,cs),
(-6,127,o),
(-8,125,o),
(-8,119,cs),
(-8,17,ls),
(-8,12,o),
(-6,9,o),
(0,9,cs),
(42,9,o),
(86,19,o),
(114,36,cs),
(122,41,o),
(128,47,o),
(133,53,c),
(213,15,o),
(316,0,o),
(405,0,cs)
);
},
{
closed = 1;
nodes = (
(375,110,o),
(334,114,o),
(291,121,c),
(378,223,o),
(458,282,o),
(517,282,cs),
(570,282,o),
(626,248,o),
(686,179,c),
(588,132,o),
(511,110,o),
(415,110,cs)
);
}
);
};
layerId = "506100EA-3BB8-464E-A0A0-F667AF3F2320";
shapes = (
{
closed = 1;
nodes = (
(465,0,o),
(523,10,o),
(578,30,cs),
(689,71,o),
(744,138,o),
(744,226,cs),
(744,243,o),
(733,266,o),
(710,294,cs),
(666,350,o),
(591,400,o),
(542,400,cs),
(503,400,o),
(458,379,o),
(407,336,cs),
(355,294,o),
(294,227,o),
(225,135,c),
(211,140,o),
(198,144,o),
(184,149,c),
(197,181,o),
(210,213,o),
(223,246,c),
(213,252,o),
(202,256,o),
(191,256,cs),
(172,256,o),
(156,247,o),
(146,229,cs),
(140,217,o),
(134,208,o),
(129,199,cs),
(92,135,o),
(76,127,o),
(0,127,cs),
(-6,127,o),
(-8,125,o),
(-8,119,cs),
(-8,17,ls),
(-8,12,o),
(-6,9,o),
(0,9,cs),
(42,9,o),
(86,19,o),
(114,36,cs),
(122,41,o),
(128,47,o),
(133,53,c),
(213,15,o),
(316,0,o),
(405,0,cs)
);
},
{
closed = 1;
nodes = (
(375,110,o),
(334,114,o),
(291,121,c),
(378,223,o),
(458,282,o),
(517,282,cs),
(570,282,o),
(626,248,o),
(686,179,c),
(588,132,o),
(511,110,o),
(415,110,cs)
);
}
);
width = 795;
}
);
unicode = 65211;
},
{
glyphname = uni0637;
layers = (
{
anchors = (
{
name = bottom;
position = "{402, -110}";
},
{
name = bottom.dot;
position = "{402, -38}";
},
{
name = top;
position = "{501, 616}";
},
{
name = top.dot;
position = "{509, 425}";
}
);
background = {
shapes = (
{
closed = 1;
nodes = (
(463,0,o),
(520,10,o),
(576,30,cs),
(686,71,o),
(741,138,o),
(741,226,cs),
(741,244,o),
(729,268,o),
(706,297,c),
(658,354,o),
(587,400,o),
(539,400,cs),
(478,400,o),
(399,346,o),
(304,238,c),
(302,262,o),
(301,282,o),
(300,299,cs),
(288,461,o),
(296,352,o),
(282,533,c),
(314,557,l),
(298,597,o),
(285,638,o),
(273,680,c),
(217,680,o),
(172,637,o),
(172,582,cs),
(172,544,o),
(200,414,o),
(252,175,c),
(239,158,o),
(226,140,o),
(212,123,c),
(173,129,o),
(119,139,o),
(49,156,c),
(34,113,l),
(86,67,o),
(148,24,o),
(175,16,cs),
(209,6,o),
(325,0,o),
(402,0,cs)
);
},
{
closed = 1;
nodes = (
(370,110,o),
(327,112,o),
(283,115,c),
(385,231,o),
(458,282,o),
(514,282,cs),
(567,282,o),
(624,248,o),
(684,179,c),
(589,133,o),
(510,110,o),
(412,110,cs)
);
}
);
};
layerId = "506100EA-3BB8-464E-A0A0-F667AF3F2320";
shapes = (
{
closed = 1;
nodes = (
(463,0,o),
(520,10,o),
(576,30,cs),
(686,71,o),
(741,138,o),
(741,226,cs),
(741,244,o),
(729,268,o),
(706,297,c),
(658,354,o),
(587,400,o),
(539,400,cs),
(478,400,o),
(399,346,o),
(304,238,c),
(302,262,o),
(301,282,o),
(300,299,cs),
(288,461,o),
(296,352,o),
(282,533,c),
(314,557,l),
(298,597,o),
(285,638,o),
(273,680,c),
(217,680,o),
(172,637,o),
(172,582,cs),
(172,544,o),
(200,414,o),
(252,175,c),
(239,158,o),
(226,140,o),
(212,123,c),
(173,129,o),
(119,139,o),
(49,156,c),
(34,113,l),
(86,67,o),
(148,24,o),
(175,16,cs),
(209,6,o),
(325,0,o),
(402,0,cs)
);
},
{
closed = 1;
nodes = (
(370,110,o),
(327,112,o),
(283,115,c),
(385,231,o),
(458,282,o),
(514,282,cs),
(567,282,o),
(624,248,o),
(684,179,c),
(589,133,o),
(510,110,o),
(412,110,cs)
);
}
);
width = 792;
}
);
unicode = (1591,65217);
},
{
glyphname = uniFEC2;
layers = (
{
anchors = (
{
name = bottom;
position = "{402, -110}";
},
{
name = bottom.dot;
position = "{402, -38}";
},
{
name = top;
position = "{501, 616}";
},
{
name = top.dot;
position = "{509, 425}";
}
);
background = {
shapes = (
{
closed = 1;
nodes = (
(504,0,o),
(614,33,o),
(677,87,c),
(723,37,o),
(787,9,o),
(849,9,cs),
(855,9,o),
(858,12,o),
(858,17,cs),
(858,119,ls),
(858,125,o),
(855,127,o),
(849,127,cs),
(806,127,o),
(766,139,o),
(731,162,c),
(738,181,o),
(741,202,o),
(741,226,cs),
(741,244,o),
(730,268,o),
(706,297,cs),
(658,354,o),
(588,400,o),
(539,400,cs),
(478,400,o),
(400,346,o),
(304,238,c),
(302,276,o),
(299,314,o),
(296,352,cs),
(292,413,o),
(287,473,o),
(282,533,c),
(314,557,l),
(299,594,o),
(286,635,o),
(274,680,c),
(217,680,o),
(172,637,o),
(172,582,cs),
(172,575,o),
(173,567,o),
(174,559,cs),
(187,493,o),
(201,420,o),
(217,342,cs),
(228,289,o),
(239,233,o),
(252,174,c),
(239,157,o),
(225,140,o),
(212,123,c),
(166,130,o),
(112,141,o),
(49,156,c),
(34,113,l),
(84,68,o),
(148,24,o),
(175,16,cs),
(210,6,o),
(327,0,o),
(402,0,cs)
);
},
{
closed = 1;
nodes = (
(370,110,o),
(327,112,o),
(283,115,c),
(379,226,o),
(456,282,o),
(514,282,cs),
(567,282,o),
(624,248,o),
(684,179,c),
(584,131,o),
(507,110,o),
(412,110,cs)
);
}
);
};
layerId = "506100EA-3BB8-464E-A0A0-F667AF3F2320";
shapes = (
{
closed = 1;
nodes = (
(504,0,o),
(614,33,o),
(677,87,c),
(723,37,o),
(787,9,o),
(849,9,cs),
(855,9,o),
(858,12,o),
(858,17,cs),
(858,119,ls),
(858,125,o),
(855,127,o),
(849,127,cs),
(806,127,o),
(766,139,o),
(731,162,c),
(738,181,o),
(741,202,o),
(741,226,cs),
(741,244,o),
(730,268,o),
(706,297,cs),
(658,354,o),
(588,400,o),
(539,400,cs),
(478,400,o),
(400,346,o),
(304,238,c),
(302,276,o),
(299,314,o),
(296,352,cs),
(292,413,o),
(287,473,o),
(282,533,c),
(314,557,l),
(299,594,o),
(286,635,o),
(274,680,c),
(217,680,o),
(172,637,o),
(172,582,cs),
(172,575,o),
(173,567,o),
(174,559,cs),
(187,493,o),
(201,420,o),
(217,342,cs),
(228,289,o),
(239,233,o),
(252,174,c),
(239,157,o),
(225,140,o),
(212,123,c),
(166,130,o),
(112,141,o),
(49,156,c),
(34,113,l),
(84,68,o),
(148,24,o),
(175,16,cs),
(210,6,o),
(327,0,o),
(402,0,cs)
);
},
{
closed = 1;
nodes = (
(370,110,o),
(327,112,o),
(283,115,c),
(379,226,o),
(456,282,o),
(514,282,cs),
(567,282,o),
(624,248,o),
(684,179,c),
(584,131,o),
(507,110,o),
(412,110,cs)
);
}
);
width = 841;
}
);
unicode = 65218;
},
{
glyphname = uniFEC4;
layers = (
{
anchors = (
{
name = bottom;
position = "{352, -110}";
},
{
name = bottom.dot;
position = "{352, -38}";
},
{
name = top;
position = "{401, 626}";
},
{
name = top.dot;
position = "{409, 435}";
}
);
background = {
shapes = (
{
closed = 1;
nodes = (
(273,9,o),
(435,40,o),
(535,94,c),
(581,41,o),
(648,9,o),
(714,9,cs),
(720,9,o),
(723,12,o),
(723,17,cs),
(723,119,ls),
(723,125,o),
(720,127,o),
(714,127,cs),
(675,127,o),
(640,136,o),
(607,154,c),
(630,185,o),
(642,218,o),
(642,254,cs),
(642,271,o),
(629,295,o),
(605,324,cs),
(557,382,o),
(493,417,o),
(438,417,cs),
(372,417,o),
(292,362,o),
(197,251,c),
(195,286,o),
(192,320,o),
(189,355,cs),
(185,414,o),
(180,474,o),
(176,533,c),
(208,557,l),
(193,594,o),
(180,635,o),
(167,680,c),
(110,680,o),
(65,637,o),
(65,582,cs),
(65,560,o),
(79,496,o),
(144,185,c),
(130,167,o),
(117,148,o),
(103,128,c),
(69,128,o),
(34,128,o),
(0,127,c),
(-6,127,o),
(-8,125,o),
(-8,119,cs),
(-8,17,ls),
(-8,12,o),
(-6,9,o),
(0,9,cs)
);
},
{
closed = 1;
nodes = (
(275,240,o),
(353,295,o),
(414,295,cs),
(471,295,o),
(508,272,o),
(577,196,c),
(450,160,o),
(409,152,o),
(358,143,cs),
(306,134,o),
(194,130,o),
(181,130,c)
);
}
);
};
layerId = "506100EA-3BB8-464E-A0A0-F667AF3F2320";
shapes = (
{
closed = 1;
nodes = (
(273,9,o),
(435,40,o),
(535,94,c),
(581,41,o),
(648,9,o),
(714,9,cs),
(720,9,o),
(723,12,o),
(723,17,cs),
(723,119,ls),
(723,125,o),
(720,127,o),
(714,127,cs),
(675,127,o),
(640,136,o),
(607,154,c),
(630,185,o),
(642,218,o),
(642,254,cs),
(642,271,o),
(629,295,o),
(605,324,cs),
(557,382,o),
(493,417,o),
(438,417,cs),
(372,417,o),
(292,362,o),
(197,251,c),
(195,286,o),
(192,320,o),
(189,355,cs),
(185,414,o),
(180,474,o),
(176,533,c),
(208,557,l),
(193,594,o),
(180,635,o),
(167,680,c),
(110,680,o),
(65,637,o),
(65,582,cs),
(65,560,o),
(79,496,o),
(144,185,c),
(130,167,o),
(117,148,o),
(103,128,c),
(69,128,o),
(34,128,o),
(0,127,c),
(-6,127,o),
(-8,125,o),
(-8,119,cs),
(-8,17,ls),
(-8,12,o),
(-6,9,o),
(0,9,cs)
);
},
{
closed = 1;
nodes = (
(275,240,o),
(353,295,o),
(414,295,cs),
(471,295,o),
(508,272,o),
(577,196,c),
(450,160,o),
(409,152,o),
(358,143,cs),
(306,134,o),
(194,130,o),
(181,130,c)
);
}
);
width = 706;
}
);
unicode = 65220;
},
{
glyphname = uniFEC3;
layers = (
{
anchors = (
{
name = bottom;
position = "{358, -110}";
},
{
name = bottom.dot;
position = "{358, -38}";
},
{
name = top;
position = "{401, 626}";
},
{
name = top.dot;
position = "{409, 435}";
}
);
background = {
shapes = (
{
closed = 1;
nodes = (
(153,9,o),
(276,19,o),
(369,38,cs),
(555,77,o),
(642,150,o),
(642,254,cs),
(642,271,o),
(629,295,o),
(605,324,cs),
(557,382,o),
(493,417,o),
(438,417,cs),
(372,417,o),
(292,362,o),
(197,251,c),
(195,283,o),
(192,313,o),
(190,345,cs),
(185,407,o),
(181,470,o),
(176,533,c),
(208,557,l),
(193,594,o),
(180,635,o),
(167,680,c),
(110,680,o),
(65,637,o),
(65,582,cs),
(65,561,o),
(78,502,o),
(144,185,c),
(130,167,o),
(117,148,o),
(103,128,c),
(83,128,l),
(0,127,ls),
(-6,127,o),
(-8,125,o),
(-8,119,cs),
(-8,17,ls),
(-8,12,o),
(-6,9,o),
(0,9,cs)
);
},
{
closed = 1;
nodes = (
(275,240,o),
(353,295,o),
(414,295,cs),
(471,295,o),
(508,272,o),
(577,196,c),
(450,160,o),
(409,152,o),
(358,143,cs),
(306,134,o),
(194,130,o),
(181,130,c)
);
}
);
};
layerId = "506100EA-3BB8-464E-A0A0-F667AF3F2320";
shapes = (
{
closed = 1;
nodes = (
(153,9,o),
(276,19,o),
(369,38,cs),
(555,77,o),
(642,150,o),
(642,254,cs),
(642,271,o),
(629,295,o),
(605,324,cs),
(557,382,o),
(493,417,o),
(438,417,cs),
(372,417,o),
(292,362,o),
(197,251,c),
(195,283,o),
(192,313,o),
(190,345,cs),
(185,407,o),
(181,470,o),
(176,533,c),
(208,557,l),
(193,594,o),
(180,635,o),
(167,680,c),
(110,680,o),
(65,637,o),
(65,582,cs),
(65,561,o),
(78,502,o),
(144,185,c),
(130,167,o),
(117,148,o),
(103,128,c),
(83,128,l),
(0,127,ls),
(-6,127,o),
(-8,125,o),
(-8,119,cs),
(-8,17,ls),
(-8,12,o),
(-6,9,o),
(0,9,cs)
);
},
{
closed = 1;
nodes = (
(275,240,o),
(353,295,o),
(414,295,cs),
(471,295,o),
(508,272,o),
(577,196,c),
(450,160,o),
(409,152,o),
(358,143,cs),
(306,134,o),
(194,130,o),
(181,130,c)
);
}
);
width = 693;
}
);
unicode = 65219;
},
{
glyphname = uni0639;
layers = (
{
anchors = (
{
name = bottom;
position = "{365, -342}";
},
{
name = center;
position = "{374, -40}";
},
{
name = top;
position = "{239, 666}";
},
{
name = top.dot;
position = "{239, 485}";
}
);
background = {
shapes = (
{
closed = 1;
nodes = (
(408,-301,o),
(498,-263,o),
(613,-192,c),
(600,-150,l),
(530,-166,o),
(481,-176,o),
(453,-180,cs),
(424,-184,o),
(396,-186,o),
(369,-186,cs),
(236,-186,o),
(164,-141,o),
(164,-65,cs),
(164,-41,o),
(171,-17,o),
(185,5,cs),
(213,49,o),
(263,82,o),
(379,128,cs),
(415,143,o),
(439,154,o),
(450,162,cs),
(475,179,o),
(486,201,o),
(486,229,cs),
(486,253,o),
(482,270,o),
(475,280,c),
(403,256,o),
(339,227,o),
(281,193,c),
(205,211,o),
(158,261,o),
(154,333,c),
(197,356,o),
(229,365,o),
(276,365,cs),
(306,365,o),
(341,358,o),
(381,342,c),
(402,382,l),
(347,444,o),
(296,475,o),
(250,475,cs),
(223,475,o),
(197,465,o),
(172,444,cs),
(121,402,o),
(83,321,o),
(83,261,cs),
(83,244,o),
(87,227,o),
(95,209,cs),
(111,173,o),
(145,138,o),
(188,118,c),
(138,64,o),
(113,1,o),
(113,-71,cs),
(113,-212,o),
(210,-301,o),
(367,-301,cs)
);
}
);
};
layerId = "506100EA-3BB8-464E-A0A0-F667AF3F2320";
shapes = (
{
closed = 1;
nodes = (
(408,-301,o),
(498,-263,o),
(613,-192,c),
(600,-150,l),
(530,-166,o),
(481,-176,o),
(453,-180,cs),
(424,-184,o),
(396,-186,o),
(369,-186,cs),
(236,-186,o),
(164,-141,o),
(164,-65,cs),
(164,-41,o),
(171,-17,o),
(185,5,cs),
(213,49,o),
(263,82,o),
(379,128,cs),
(415,143,o),
(439,154,o),
(450,162,cs),
(475,179,o),
(486,201,o),
(486,229,cs),
(486,253,o),
(482,270,o),
(475,280,c),
(403,256,o),
(339,227,o),
(281,193,c),
(205,211,o),
(158,261,o),
(154,333,c),
(197,356,o),
(229,365,o),
(276,365,cs),
(306,365,o),
(341,358,o),
(381,342,c),
(402,382,l),
(347,444,o),
(296,475,o),
(250,475,cs),
(223,475,o),
(197,465,o),
(172,444,cs),
(121,402,o),
(83,321,o),
(83,261,cs),
(83,244,o),
(87,227,o),
(95,209,cs),
(111,173,o),
(145,138,o),
(188,118,c),
(138,64,o),
(113,1,o),
(113,-71,cs),
(113,-212,o),
(210,-301,o),
(367,-301,cs)
);
}
);
width = 604;
}
);
unicode = (1593,65225);
},
{
glyphname = uniFECA;
layers = (
{
anchors = (
{
name = bottom;
position = "{335, -342}";
},
{
name = center;
position = "{319, -80}";
},
{
name = top;
position = "{266, 616}";
},
{
name = top.dot;
position = "{266, 425}";
}
);
background = {
shapes = (
{
closed = 1;
nodes = (
(401,-301,o),
(452,-275,o),
(574,-202,c),
(561,-159,l),
(481,-177,o),
(415,-186,o),
(363,-186,cs),
(231,-186,o),
(160,-145,o),
(160,-72,cs),
(160,-22,o),
(196,27,o),
(270,74,c),
(326,27,o),
(393,9,o),
(483,9,cs),
(490,9,o),
(494,12,o),
(494,18,cs),
(494,118,ls),
(494,124,o),
(490,127,o),
(483,127,cs),
(432,127,o),
(394,129,o),
(363,134,c),
(418,179,o),
(446,226,o),
(446,275,cs),
(446,352,o),
(369,417,o),
(280,417,cs),
(248,417,o),
(215,411,o),
(180,398,cs),
(110,374,o),
(69,341,o),
(69,296,cs),
(69,272,o),
(78,251,o),
(95,232,c),
(114,245,l),
(125,235,o),
(136,225,o),
(148,214,c),
(170,191,o),
(193,163,o),
(208,144,cs),
(215,134,o),
(222,125,o),
(224,122,c),
(143,57,o),
(108,-11,o),
(108,-92,cs),
(108,-133,o),
(119,-170,o),
(140,-202,cs),
(183,-265,o),
(264,-301,o),
(367,-301,cs)
);
},
{
closed = 1;
nodes = (
(264,195,l),
(243,219,o),
(224,240,o),
(207,256,cs),
(196,266,o),
(187,274,o),
(178,282,c),
(221,301,o),
(249,306,o),
(283,306,cs),
(318,306,o),
(346,286,o),
(346,252,cs),
(346,239,o),
(343,228,o),
(336,216,cs),
(327,201,o),
(312,186,o),
(289,169,c)
);
}
);
};
layerId = "506100EA-3BB8-464E-A0A0-F667AF3F2320";
shapes = (
{
closed = 1;
nodes = (
(401,-301,o),
(452,-275,o),
(574,-202,c),
(561,-159,l),
(481,-177,o),
(415,-186,o),
(363,-186,cs),
(231,-186,o),
(160,-145,o),
(160,-72,cs),
(160,-22,o),
(196,27,o),
(270,74,c),
(326,27,o),
(393,9,o),
(483,9,cs),
(490,9,o),
(494,12,o),
(494,18,cs),
(494,118,ls),
(494,124,o),
(490,127,o),
(483,127,cs),
(432,127,o),
(394,129,o),
(363,134,c),
(418,179,o),
(446,226,o),
(446,275,cs),
(446,352,o),
(369,417,o),
(280,417,cs),
(248,417,o),
(215,411,o),
(180,398,cs),
(110,374,o),
(69,341,o),
(69,296,cs),
(69,272,o),
(78,251,o),
(95,232,c),
(114,245,l),
(125,235,o),
(136,225,o),
(148,214,c),
(170,191,o),
(193,163,o),
(208,144,cs),
(215,134,o),
(222,125,o),
(224,122,c),
(143,57,o),
(108,-11,o),
(108,-92,cs),
(108,-133,o),
(119,-170,o),
(140,-202,cs),
(183,-265,o),
(264,-301,o),
(367,-301,cs)
);
},
{
closed = 1;
nodes = (
(264,195,l),
(243,219,o),
(224,240,o),
(207,256,cs),
(196,266,o),
(187,274,o),
(178,282,c),
(221,301,o),
(249,306,o),
(283,306,cs),
(318,306,o),
(346,286,o),
(346,252,cs),
(346,239,o),
(343,228,o),
(336,216,cs),
(327,201,o),
(312,186,o),
(289,169,c)
);
}
);
width = 477;
}
);
unicode = 65226;
},
{
glyphname = uniFECC;
layers = (
{
anchors = (
{
name = bottom;
position = "{234, -110}";
},
{
name = bottom.dot;
position = "{234, -38}";
},
{
name = top;
position = "{231, 616}";
},
{
name = top.dot;
position = "{231, 425}";
}
);
background = {
shapes = (
{
closed = 1;
nodes = (
(88,9,o),
(167,29,o),
(239,70,c),
(284,31,o),
(361,9,o),
(455,9,cs),
(462,9,o),
(465,12,o),
(465,18,cs),
(465,118,ls),
(465,124,o),
(462,127,o),
(455,127,cs),
(407,127,o),
(367,129,o),
(331,134,c),
(381,180,o),
(409,227,o),
(409,275,cs),
(409,300,o),
(401,323,o),
(386,345,cs),
(356,390,o),
(300,417,o),
(242,417,cs),
(211,417,o),
(177,411,o),
(143,399,cs),
(73,374,o),
(31,341,o),
(31,296,cs),
(31,272,o),
(40,251,o),
(58,232,c),
(76,245,l),
(86,236,o),
(97,227,o),
(108,216,cs),
(122,202,o),
(137,186,o),
(156,161,c),
(176,136,l),
(130,128,o),
(71,127,o),
(1,127,cs),
(-5,127,o),
(-8,124,o),
(-8,118,cs),
(-8,18,ls),
(-8,12,o),
(-5,9,o),
(1,9,cs)
);
},
{
closed = 1;
nodes = (
(245,176,o),
(236,186,o),
(228,195,cs),
(186,240,o),
(156,269,o),
(141,282,c),
(184,301,o),
(211,306,o),
(246,306,cs),
(282,306,o),
(309,285,o),
(309,252,cs),
(309,220,o),
(289,189,o),
(254,166,c)
);
}
);
};
layerId = "506100EA-3BB8-464E-A0A0-F667AF3F2320";
shapes = (
{
closed = 1;
nodes = (
(88,9,o),
(167,29,o),
(239,70,c),
(284,31,o),
(361,9,o),
(455,9,cs),
(462,9,o),
(465,12,o),
(465,18,cs),
(465,118,ls),
(465,124,o),
(462,127,o),
(455,127,cs),
(407,127,o),
(367,129,o),
(331,134,c),
(381,180,o),
(409,227,o),
(409,275,cs),
(409,300,o),
(401,323,o),
(386,345,cs),
(356,390,o),
(300,417,o),
(242,417,cs),
(211,417,o),
(177,411,o),
(143,399,cs),
(73,374,o),
(31,341,o),
(31,296,cs),
(31,272,o),
(40,251,o),
(58,232,c),
(76,245,l),
(86,236,o),
(97,227,o),
(108,216,cs),
(122,202,o),
(137,186,o),
(156,161,c),
(176,136,l),
(130,128,o),
(71,127,o),
(1,127,cs),
(-5,127,o),
(-8,124,o),
(-8,118,cs),
(-8,18,ls),
(-8,12,o),
(-5,9,o),
(1,9,cs)
);
},
{
closed = 1;
nodes = (
(245,176,o),
(236,186,o),
(228,195,cs),
(186,240,o),
(156,269,o),
(141,282,c),
(184,301,o),
(211,306,o),
(246,306,cs),
(282,306,o),
(309,285,o),
(309,252,cs),
(309,220,o),
(289,189,o),
(254,166,c)
);
}
);
width = 448;
}
);
unicode = 65228;
},
{
glyphname = uniFECB;
layers = (
{
anchors = (
{
name = bottom;
position = "{264, -110}";
},
{
name = bottom.dot;
position = "{264, -38}";
},
{
name = top;
position = "{221, 616}";
},
{
name = top.dot;
position = "{221, 425}";
}
);
background = {
shapes = (
{
closed = 1;
nodes = (
(146,9,o),
(250,17,o),
(353,39,cs),
(404,49,o),
(437,58,o),
(449,64,cs),
(475,77,o),
(491,106,o),
(491,138,cs),
(491,154,o),
(486,177,o),
(475,187,c),
(391,153,o),
(314,137,o),
(209,131,c),
(201,135,o),
(193,140,o),
(186,145,cs),
(149,172,o),
(131,212,o),
(128,261,c),
(169,283,o),
(203,293,o),
(250,293,cs),
(279,293,o),
(314,286,o),
(355,270,c),
(376,311,l),
(321,372,o),
(271,403,o),
(225,403,cs),
(199,403,o),
(173,393,o),
(148,373,cs),
(97,333,o),
(57,251,o),
(57,189,cs),
(57,168,o),
(64,147,o),
(78,127,c),
(52,127,o),
(26,127,o),
(0,127,cs),
(-6,127,o),
(-8,125,o),
(-8,119,cs),
(-8,17,ls),
(-8,12,o),
(-6,9,o),
(0,9,cs)
);
}
);
};
layerId = "506100EA-3BB8-464E-A0A0-F667AF3F2320";
shapes = (
{
closed = 1;
nodes = (
(146,9,o),
(250,17,o),
(353,39,cs),
(404,49,o),
(437,58,o),
(449,64,cs),
(475,77,o),
(491,106,o),
(491,138,cs),
(491,154,o),
(486,177,o),
(475,187,c),
(391,153,o),
(314,137,o),
(209,131,c),
(201,135,o),
(193,140,o),
(186,145,cs),
(149,172,o),
(131,212,o),
(128,261,c),
(169,283,o),
(203,293,o),
(250,293,cs),
(279,293,o),
(314,286,o),
(355,270,c),
(376,311,l),
(321,372,o),
(271,403,o),
(225,403,cs),
(199,403,o),
(173,393,o),
(148,373,cs),
(97,333,o),
(57,251,o),
(57,189,cs),
(57,168,o),
(64,147,o),
(78,127,c),
(52,127,o),
(26,127,o),
(0,127,cs),
(-6,127,o),
(-8,125,o),
(-8,119,cs),
(-8,17,ls),
(-8,12,o),
(-6,9,o),
(0,9,cs)
);
}
);
width = 517;
}
);
unicode = 65227;
},
{
glyphname = uni06A1.fina;
layers = (
{
anchors = (
{
name = bottom;
position = "{351, -110}";
},
{
name = bottom.dot;
position = "{615, -38}";
},
{
name = top;
position = "{630, 611}";
},
{
name = top.dot;
position = "{633, 428}";
}
);
background = {
shapes = (
{
closed = 1;
nodes = (
(422,0,o),
(544,19,o),
(615,44,c),
(671,21,o),
(744,9,o),
(834,9,cs),
(840,9,o),
(843,12,o),
(843,17,cs),
(843,119,ls),
(843,125,o),
(840,127,o),
(834,127,c),
(804,128,o),
(773,128,o),
(742,128,c),
(762,155,o),
(772,180,o),
(772,204,cs),
(772,233,o),
(766,263,o),
(754,294,cs),
(731,357,o),
(692,400,o),
(655,400,cs),
(595,400,o),
(524,347,o),
(488,279,cs),
(479,263,o),
(470,209,o),
(470,174,cs),
(470,158,o),
(476,142,o),
(488,125,c),
(401,118,o),
(378,118,o),
(343,118,cs),
(291,118,o),
(249,124,o),
(217,135,cs),
(154,156,o),
(124,195,o),
(124,273,cs),
(124,288,o),
(125,305,o),
(127,323,c),
(83,323,l),
(69,277,o),
(63,241,o),
(63,213,cs),
(63,75,o),
(145,0,o),
(307,0,cs)
);
},
{
closed = 1;
nodes = (
(585,134,o),
(549,156,o),
(524,184,c),
(569,246,o),
(609,277,o),
(645,277,cs),
(652,277,o),
(662,271,o),
(671,260,cs),
(688,241,o),
(706,208,o),
(715,173,c),
(691,151,o),
(658,135,o),
(617,124,c)
);
}
);
};
layerId = "506100EA-3BB8-464E-A0A0-F667AF3F2320";
shapes = (
{
closed = 1;
nodes = (
(422,0,o),
(544,19,o),
(615,44,c),
(671,21,o),
(744,9,o),
(834,9,cs),
(840,9,o),
(843,12,o),
(843,17,cs),
(843,119,ls),
(843,125,o),
(840,127,o),
(834,127,c),
(804,128,o),
(773,128,o),
(742,128,c),
(762,155,o),
(772,180,o),
(772,204,cs),
(772,233,o),
(766,263,o),
(754,294,cs),
(731,357,o),
(692,400,o),
(655,400,cs),
(595,400,o),
(524,347,o),
(488,279,cs),
(479,263,o),
(470,209,o),
(470,174,cs),
(470,158,o),
(476,142,o),
(488,125,c),
(401,118,o),
(378,118,o),
(343,118,cs),
(291,118,o),
(249,124,o),
(217,135,cs),
(154,156,o),
(124,195,o),
(124,273,cs),
(124,288,o),
(125,305,o),
(127,323,c),
(83,323,l),
(69,277,o),
(63,241,o),
(63,213,cs),
(63,75,o),
(145,0,o),
(307,0,cs)
);
},
{
closed = 1;
nodes = (
(585,134,o),
(549,156,o),
(524,184,c),
(569,246,o),
(609,277,o),
(645,277,cs),
(652,277,o),
(662,271,o),
(671,260,cs),
(688,241,o),
(706,208,o),
(715,173,c),
(691,151,o),
(658,135,o),
(617,124,c)
);
}
);
width = 832;
}
);
},
{
glyphname = uni066F;
layers = (
{
anchors = (
{
name = bottom;
position = "{254, -311}";
},
{
name = bottom.dot;
position = "{254, -256}";
},
{
name = top;
position = "{409, 549}";
},
{
name = top.dot;
position = "{413, 398}";
}
);
background = {
shapes = (
{
closed = 1;
nodes = (
(334,-252,o),
(434,-216,o),
(499,-162,cs),
(564,-108,o),
(601,-35,o),
(601,50,cs),
(601,109,o),
(593,162,o),
(576,211,cs),
(542,308,o),
(478,366,o),
(411,366,cs),
(386,366,o),
(363,355,o),
(340,333,cs),
(294,290,o),
(264,213,o),
(264,138,cs),
(264,50,o),
(311,0,o),
(394,0,cs),
(437,0,o),
(479,20,o),
(521,61,c),
(528,31,o),
(532,0,o),
(535,-31,c),
(512,-49,o),
(488,-64,o),
(465,-77,cs),
(396,-115,o),
(327,-134,o),
(263,-134,cs),
(170,-134,o),
(123,-86,o),
(123,7,cs),
(123,30,o),
(128,57,o),
(137,87,c),
(93,98,l),
(76,35,o),
(68,-13,o),
(68,-47,cs),
(68,-180,o),
(132,-252,o),
(251,-252,cs)
);
},
{
closed = 1;
nodes = (
(353,110,o),
(318,131,o),
(318,171,cs),
(318,184,o),
(321,195,o),
(326,206,cs),
(338,229,o),
(363,246,o),
(393,246,cs),
(406,246,o),
(419,242,o),
(432,234,cs),
(459,217,o),
(483,181,o),
(503,125,c),
(472,115,o),
(442,110,o),
(414,110,cs)
);
}
);
};
layerId = "506100EA-3BB8-464E-A0A0-F667AF3F2320";
shapes = (
{
closed = 1;
nodes = (
(334,-252,o),
(434,-216,o),
(499,-162,cs),
(564,-108,o),
(601,-35,o),
(601,50,cs),
(601,109,o),
(593,162,o),
(576,211,cs),
(542,308,o),
(478,366,o),
(411,366,cs),
(386,366,o),
(363,355,o),
(340,333,cs),
(294,290,o),
(264,213,o),
(264,138,cs),
(264,50,o),
(311,0,o),
(394,0,cs),
(437,0,o),
(479,20,o),
(521,61,c),
(528,31,o),
(532,0,o),
(535,-31,c),
(512,-49,o),
(488,-64,o),
(465,-77,cs),
(396,-115,o),
(327,-134,o),
(263,-134,cs),
(170,-134,o),
(123,-86,o),
(123,7,cs),
(123,30,o),
(128,57,o),
(137,87,c),
(93,98,l),
(76,35,o),
(68,-13,o),
(68,-47,cs),
(68,-180,o),
(132,-252,o),
(251,-252,cs)
);
},
{
closed = 1;
nodes = (
(353,110,o),
(318,131,o),
(318,171,cs),
(318,184,o),
(321,195,o),
(326,206,cs),
(338,229,o),
(363,246,o),
(393,246,cs),
(406,246,o),
(419,242,o),
(432,234,cs),
(459,217,o),
(483,181,o),
(503,125,c),
(472,115,o),
(442,110,o),
(414,110,cs)
);
}
);
width = 652;
}
);
unicode = 1647;
},
{
glyphname = uni066F.medi;
layers = (
{
anchors = (
{
name = bottom;
position = "{214, -110}";
},
{
name = bottom.dot;
position = "{212, -38}";
},
{
name = top;
position = "{227, 611}";
},
{
name = top.dot;
position = "{230, 428}";
}
);
background = {
shapes = (
{
closed = 1;
nodes = (
(84,9,o),
(146,17,o),
(207,42,c),
(265,20,o),
(336,9,o),
(421,9,cs),
(426,9,o),
(429,12,o),
(429,17,cs),
(429,119,ls),
(429,125,o),
(426,127,o),
(421,127,cs),
(393,127,o),
(364,128,o),
(336,128,c),
(351,153,o),
(358,178,o),
(358,204,cs),
(358,232,o),
(352,262,o),
(341,293,cs),
(318,355,o),
(278,400,o),
(242,400,cs),
(182,400,o),
(111,347,o),
(74,279,cs),
(65,263,o),
(56,200,o),
(56,174,cs),
(56,159,o),
(61,144,o),
(71,128,c),
(47,128,o),
(24,127,o),
(1,127,cs),
(-5,127,o),
(-8,124,o),
(-8,118,cs),
(-8,18,ls),
(-8,12,o),
(-5,9,o),
(1,9,cs)
);
},
{
closed = 1;
nodes = (
(170,134,o),
(134,156,o),
(110,184,c),
(156,246,o),
(196,277,o),
(231,277,cs),
(237,277,o),
(245,273,o),
(252,265,c),
(271,247,o),
(292,209,o),
(302,173,c),
(276,151,o),
(243,135,o),
(203,124,c)
);
}
);
};
layerId = "506100EA-3BB8-464E-A0A0-F667AF3F2320";
shapes = (
{
closed = 1;
nodes = (
(84,9,o),
(146,17,o),
(207,42,c),
(265,20,o),
(336,9,o),
(421,9,cs),
(426,9,o),
(429,12,o),
(429,17,cs),
(429,119,ls),
(429,125,o),
(426,127,o),
(421,127,cs),
(393,127,o),
(364,128,o),
(336,128,c),
(351,153,o),
(358,178,o),
(358,204,cs),
(358,232,o),
(352,262,o),
(341,293,cs),
(318,355,o),
(278,400,o),
(242,400,cs),
(182,400,o),
(111,347,o),
(74,279,cs),
(65,263,o),
(56,200,o),
(56,174,cs),
(56,159,o),
(61,144,o),
(71,128,c),
(47,128,o),
(24,127,o),
(1,127,cs),
(-5,127,o),
(-8,124,o),
(-8,118,cs),
(-8,18,ls),
(-8,12,o),
(-5,9,o),
(1,9,cs)
);
},
{
closed = 1;
nodes = (
(170,134,o),
(134,156,o),
(110,184,c),
(156,246,o),
(196,277,o),
(231,277,cs),
(237,277,o),
(245,273,o),
(252,265,c),
(271,247,o),
(292,209,o),
(302,173,c),
(276,151,o),
(243,135,o),
(203,124,c)
);
}
);
width = 412;
}
);
},
{
glyphname = uni066F.init;
layers = (
{
anchors = (
{
name = bottom;
position = "{222, -110}";
},
{
name = bottom.dot;
position = "{224, -28}";
},
{
name = top;
position = "{217, 616}";
},
{
name = top.dot;
position = "{219, 466}";
}
);
background = {
shapes = (
{
closed = 1;
nodes = (
(168,9,o),
(297,37,o),
(342,62,c),
(379,85,o),
(376,142,o),
(376,163,cs),
(376,208,o),
(370,252,o),
(357,292,cs),
(329,385,o),
(273,453,o),
(218,453,cs),
(192,453,o),
(168,442,o),
(147,425,cs),
(106,393,o),
(79,333,o),
(79,267,cs),
(79,207,o),
(116,162,o),
(192,162,cs),
(239,162,o),
(277,177,o),
(309,205,c),
(315,189,o),
(319,177,o),
(322,168,c),
(243,132,o),
(147,127,o),
(1,127,cs),
(-5,127,o),
(-8,125,o),
(-8,119,cs),
(-8,18,ls),
(-8,12,o),
(-5,9,o),
(1,9,cs)
);
},
{
closed = 1;
nodes = (
(152,235,o),
(130,251,o),
(130,283,cs),
(130,308,o),
(155,333,o),
(196,333,cs),
(237,333,o),
(264,307,o),
(290,249,c),
(261,240,o),
(233,235,o),
(206,235,cs)
);
}
);
};
layerId = "506100EA-3BB8-464E-A0A0-F667AF3F2320";
shapes = (
{
closed = 1;
nodes = (
(168,9,o),
(297,37,o),
(342,62,c),
(379,85,o),
(376,142,o),
(376,163,cs),
(376,208,o),
(370,252,o),
(357,292,cs),
(329,385,o),
(273,453,o),
(218,453,cs),
(192,453,o),
(168,442,o),
(147,425,cs),
(106,393,o),
(79,333,o),
(79,267,cs),
(79,207,o),
(116,162,o),
(192,162,cs),
(239,162,o),
(277,177,o),
(309,205,c),
(315,189,o),
(319,177,o),
(322,168,c),
(243,132,o),
(147,127,o),
(1,127,cs),
(-5,127,o),
(-8,125,o),
(-8,119,cs),
(-8,18,ls),
(-8,12,o),
(-5,9,o),
(1,9,cs)
);
},
{
closed = 1;
nodes = (
(152,235,o),
(130,251,o),
(130,283,cs),
(130,308,o),
(155,333,o),
(196,333,cs),
(237,333,o),
(264,307,o),
(290,249,c),
(261,240,o),
(233,235,o),
(206,235,cs)
);
}
);
width = 427;
}
);
},
{
glyphname = uni066F.fina;
layers = (
{
anchors = (
{
name = bottom;
position = "{254, -311}";
},
{
name = bottom.dot;
position = "{254, -256}";
},
{
name = top;
position = "{409, 568}";
},
{
name = top.dot;
position = "{413, 417}";
}
);
background = {
shapes = (
{
closed = 1;
nodes = (
(303,-252,o),
(355,-240,o),
(408,-215,cs),
(514,-166,o),
(577,-85,o),
(589,9,c),
(641,9,ls),
(646,9,o),
(649,12,o),
(649,17,cs),
(649,119,ls),
(649,125,o),
(646,127,o),
(641,127,cs),
(586,127,l),
(580,168,o),
(569,206,o),
(556,239,cs),
(521,329,o),
(465,387,o),
(409,387,cs),
(385,387,o),
(362,376,o),
(340,354,cs),
(294,310,o),
(264,232,o),
(264,159,cs),
(264,87,o),
(286,51,o),
(357,29,cs),
(387,19,o),
(440,13,o),
(521,10,c),
(526,-31,l),
(437,-100,o),
(349,-134,o),
(263,-134,cs),
(170,-134,o),
(123,-86,o),
(123,7,cs),
(123,30,o),
(128,57,o),
(137,87,c),
(93,98,l),
(76,35,o),
(68,-13,o),
(68,-47,cs),
(68,-180,o),
(132,-252,o),
(251,-252,cs)
);
},
{
closed = 1;
nodes = (
(456,130,o),
(431,132,o),
(415,134,cs),
(384,138,o),
(361,145,o),
(345,155,cs),
(326,167,o),
(316,182,o),
(316,202,cs),
(316,212,o),
(319,223,o),
(325,232,cs),
(337,252,o),
(360,268,o),
(387,268,cs),
(432,268,o),
(468,221,o),
(496,128,c)
);
}
);
};
layerId = "506100EA-3BB8-464E-A0A0-F667AF3F2320";
shapes = (
{
closed = 1;
nodes = (
(303,-252,o),
(355,-240,o),
(408,-215,cs),
(514,-166,o),
(577,-85,o),
(589,9,c),
(641,9,ls),
(646,9,o),
(649,12,o),
(649,17,cs),
(649,119,ls),
(649,125,o),
(646,127,o),
(641,127,cs),
(586,127,l),
(580,168,o),
(569,206,o),
(556,239,cs),
(521,329,o),
(465,387,o),
(409,387,cs),
(385,387,o),
(362,376,o),
(340,354,cs),
(294,310,o),
(264,232,o),
(264,159,cs),
(264,87,o),
(286,51,o),
(357,29,cs),
(387,19,o),
(440,13,o),
(521,10,c),
(526,-31,l),
(437,-100,o),
(349,-134,o),
(263,-134,cs),
(170,-134,o),
(123,-86,o),
(123,7,cs),
(123,30,o),
(128,57,o),
(137,87,c),
(93,98,l),
(76,35,o),
(68,-13,o),
(68,-47,cs),
(68,-180,o),
(132,-252,o),
(251,-252,cs)
);
},
{
closed = 1;
nodes = (
(456,130,o),
(431,132,o),
(415,134,cs),
(384,138,o),
(361,145,o),
(345,155,cs),
(326,167,o),
(316,182,o),
(316,202,cs),
(316,212,o),
(319,223,o),
(325,232,cs),
(337,252,o),
(360,268,o),
(387,268,cs),
(432,268,o),
(468,221,o),
(496,128,c)
);
}
);
width = 632;
}
);
},
{
glyphname = uni0643;
layers = (
{
anchors = (
{
name = bottom;
position = "{295, -110}";
},
{
name = bottom.dot;
position = "{295, -38}";
},
{
name = top;
position = "{264, 468}";
},
{
name = top.dot;
position = "{264, 447}";
}
);
background = {
shapes = (
{
closed = 1;
nodes = (
(358,1,o),
(443,6,o),
(520,17,c),
(543,46,o),
(559,96,o),
(559,130,cs),
(559,187,o),
(548,321,o),
(527,533,c),
(559,557,l),
(544,594,o),
(531,635,o),
(519,680,c),
(459,680,o),
(411,634,o),
(411,577,cs),
(411,547,o),
(437,424,o),
(452,366,c),
(458,339,o),
(476,267,o),
(508,139,c),
(435,126,o),
(360,119,o),
(283,119,cs),
(212,119,o),
(112,128,o),
(60,140,c),
(46,112,o),
(34,59,o),
(34,20,cs),
(34,15,o),
(62,10,o),
(116,7,cs),
(171,3,o),
(220,1,o),
(264,1,cs)
);
},
{
closed = 1;
nodes = (
(262,225,o),
(331,278,o),
(331,306,cs),
(331,313,o),
(328,320,o),
(321,324,c),
(304,337,o),
(261,336,o),
(239,346,c),
(244,368,o),
(275,395,o),
(291,395,cs),
(295,395,o),
(299,393,o),
(302,390,c),
(318,397,l),
(314,416,o),
(303,425,o),
(285,425,cs),
(248,425,o),
(206,380,o),
(206,348,cs),
(206,308,o),
(242,300,o),
(305,299,c),
(301,292,o),
(294,285,o),
(283,277,cs),
(260,262,o),
(226,248,o),
(191,245,c),
(191,234,o),
(198,225,o),
(214,225,cs)
);
}
);
};
layerId = "506100EA-3BB8-464E-A0A0-F667AF3F2320";
shapes = (
{
closed = 1;
nodes = (
(358,1,o),
(443,6,o),
(520,17,c),
(543,46,o),
(559,96,o),
(559,130,cs),
(559,187,o),
(548,321,o),
(527,533,c),
(559,557,l),
(544,594,o),
(531,635,o),
(519,680,c),
(459,680,o),
(411,634,o),
(411,577,cs),
(411,547,o),
(437,424,o),
(452,366,c),
(458,339,o),
(476,267,o),
(508,139,c),
(435,126,o),
(360,119,o),
(283,119,cs),
(212,119,o),
(112,128,o),
(60,140,c),
(46,112,o),
(34,59,o),
(34,20,cs),
(34,15,o),
(62,10,o),
(116,7,cs),
(171,3,o),
(220,1,o),
(264,1,cs)
);
},
{
closed = 1;
nodes = (
(262,225,o),
(331,278,o),
(331,306,cs),
(331,313,o),
(328,320,o),
(321,324,c),
(304,337,o),
(261,336,o),
(239,346,c),
(244,368,o),
(275,395,o),
(291,395,cs),
(295,395,o),
(299,393,o),
(302,390,c),
(318,397,l),
(314,416,o),
(303,425,o),
(285,425,cs),
(248,425,o),
(206,380,o),
(206,348,cs),
(206,308,o),
(242,300,o),
(305,299,c),
(301,292,o),
(294,285,o),
(283,277,cs),
(260,262,o),
(226,248,o),
(191,245,c),
(191,234,o),
(198,225,o),
(214,225,cs)
);
}
);
width = 618;
}
);
unicode = (1603,65241);
},
{
glyphname = uniFEDA;
layers = (
{
anchors = (
{
name = bottom;
position = "{355, -110}";
},
{
name = bottom.dot;
position = "{355, -38}";
},
{
name = top;
position = "{354, 478}";
},
{
name = top.dot;
position = "{354, 447}";
}
);
background = {
shapes = (
{
closed = 1;
nodes = (
(400,0,o),
(500,21,o),
(615,62,c),
(644,25,o),
(683,9,o),
(753,9,cs),
(759,9,o),
(762,12,o),
(762,17,cs),
(762,119,ls),
(762,125,o),
(759,127,o),
(753,127,cs),
(708,127,o),
(674,134,o),
(643,155,c),
(643,247,o),
(645,381,o),
(652,697,c),
(609,678,o),
(568,657,o),
(533,631,c),
(556,416,o),
(576,254,o),
(593,146,c),
(516,130,o),
(442,119,o),
(337,119,cs),
(166,119,o),
(123,128,o),
(123,227,cs),
(123,240,o),
(125,252,o),
(126,265,c),
(82,266,l),
(78,254,o),
(68,189,o),
(68,161,cs),
(68,122,o),
(76,91,o),
(93,67,cs),
(126,21,o),
(185,0,o),
(316,0,cs)
);
},
{
closed = 1;
nodes = (
(355,225,o),
(423,278,o),
(423,306,cs),
(423,313,o),
(421,320,o),
(414,324,c),
(397,337,o),
(354,336,o),
(332,346,c),
(336,368,o),
(367,395,o),
(383,395,cs),
(388,395,o),
(392,393,o),
(395,390,c),
(411,397,l),
(406,416,o),
(395,425,o),
(377,425,cs),
(340,425,o),
(299,380,o),
(299,348,cs),
(299,308,o),
(335,300,o),
(398,299,c),
(394,292,o),
(386,285,o),
(376,277,c),
(353,262,o),
(319,248,o),
(284,245,c),
(284,234,o),
(290,225,o),
(307,225,cs)
);
}
);
};
layerId = "506100EA-3BB8-464E-A0A0-F667AF3F2320";
shapes = (
{
closed = 1;
nodes = (
(400,0,o),
(500,21,o),
(615,62,c),
(644,25,o),
(683,9,o),
(753,9,cs),
(759,9,o),
(762,12,o),
(762,17,cs),
(762,119,ls),
(762,125,o),
(759,127,o),
(753,127,cs),
(708,127,o),
(674,134,o),
(643,155,c),
(643,247,o),
(645,381,o),
(652,697,c),
(609,678,o),
(568,657,o),
(533,631,c),
(556,416,o),
(576,254,o),
(593,146,c),
(516,130,o),
(442,119,o),
(337,119,cs),
(166,119,o),
(123,128,o),
(123,227,cs),
(123,240,o),
(125,252,o),
(126,265,c),
(82,266,l),
(78,254,o),
(68,189,o),
(68,161,cs),
(68,122,o),
(76,91,o),
(93,67,cs),
(126,21,o),
(185,0,o),
(316,0,cs)
);
},
{
closed = 1;
nodes = (
(355,225,o),
(423,278,o),
(423,306,cs),
(423,313,o),
(421,320,o),
(414,324,c),
(397,337,o),
(354,336,o),
(332,346,c),
(336,368,o),
(367,395,o),
(383,395,cs),
(388,395,o),
(392,393,o),
(395,390,c),
(411,397,l),
(406,416,o),
(395,425,o),
(377,425,cs),
(340,425,o),
(299,380,o),
(299,348,cs),
(299,308,o),
(335,300,o),
(398,299,c),
(394,292,o),
(386,285,o),
(376,277,c),
(353,262,o),
(319,248,o),
(284,245,c),
(284,234,o),
(290,225,o),
(307,225,cs)
);
}
);
width = 745;
}
);
unicode = 65242;
},
{
glyphname = uniFEDC;
layers = (
{
anchors = (
{
name = bottom;
position = "{214, -110}";
},
{
name = bottom.dot;
position = "{212, -38}";
},
{
name = top;
position = "{110, 614}";
}
);
background = {
shapes = (
{
closed = 1;
nodes = (
(117,9,o),
(206,23,o),
(266,51,cs),
(286,61,o),
(303,72,o),
(315,83,c),
(362,34,o),
(416,9,o),
(476,9,cs),
(482,9,o),
(485,12,o),
(485,17,cs),
(485,119,ls),
(485,125,o),
(482,127,o),
(476,127,cs),
(432,127,o),
(392,139,o),
(355,162,c),
(356,164,o),
(356,168,o),
(356,173,cs),
(356,206,o),
(343,240,o),
(317,277,cs),
(267,347,o),
(181,405,o),
(88,428,c),
(254,485,o),
(319,511,o),
(396,549,cs),
(427,564,o),
(450,596,o),
(450,630,cs),
(450,650,o),
(443,667,o),
(429,680,c),
(322,636,o),
(65,527,o),
(42,506,cs),
(23,489,o),
(10,461,o),
(10,434,cs),
(10,403,o),
(44,367,o),
(113,328,cs),
(155,303,o),
(188,281,o),
(213,263,c),
(257,228,o),
(290,192,o),
(305,161,c),
(282,149,o),
(248,141,o),
(202,136,cs),
(154,130,o),
(87,127,o),
(0,127,cs),
(-6,127,o),
(-8,125,o),
(-8,119,cs),
(-8,17,ls),
(-8,12,o),
(-6,9,o),
(0,9,cs)
);
}
);
};
layerId = "506100EA-3BB8-464E-A0A0-F667AF3F2320";
shapes = (
{
closed = 1;
nodes = (
(117,9,o),
(206,23,o),
(266,51,cs),
(286,61,o),
(303,72,o),
(315,83,c),
(362,34,o),
(416,9,o),
(476,9,cs),
(482,9,o),
(485,12,o),
(485,17,cs),
(485,119,ls),
(485,125,o),
(482,127,o),
(476,127,cs),
(432,127,o),
(392,139,o),
(355,162,c),
(356,164,o),
(356,168,o),
(356,173,cs),
(356,206,o),
(343,240,o),
(317,277,cs),
(267,347,o),
(181,405,o),
(88,428,c),
(254,485,o),
(319,511,o),
(396,549,cs),
(427,564,o),
(450,596,o),
(450,630,cs),
(450,650,o),
(443,667,o),
(429,680,c),
(322,636,o),
(65,527,o),
(42,506,cs),
(23,489,o),
(10,461,o),
(10,434,cs),
(10,403,o),
(44,367,o),
(113,328,cs),
(155,303,o),
(188,281,o),
(213,263,c),
(257,228,o),
(290,192,o),
(305,161,c),
(282,149,o),
(248,141,o),
(202,136,cs),
(154,130,o),
(87,127,o),
(0,127,cs),
(-6,127,o),
(-8,125,o),
(-8,119,cs),
(-8,17,ls),
(-8,12,o),
(-6,9,o),
(0,9,cs)
);
}
);
width = 467;
}
);
unicode = 65244;
},
{
glyphname = uniFEDB;
layers = (
{
anchors = (
{
name = bottom;
position = "{214, -110}";
},
{
name = bottom.dot;
position = "{212, -38}";
},
{
name = top;
position = "{109, 612}";
}
);
background = {
shapes = (
{
closed = 1;
nodes = (
(117,9,o),
(205,23,o),
(266,51,cs),
(326,79,o),
(356,120,o),
(356,173,cs),
(356,206,o),
(343,241,o),
(317,277,cs),
(265,349,o),
(173,410,o),
(74,435,c),
(203,471,o),
(276,500,o),
(371,546,cs),
(408,564,o),
(425,582,o),
(425,629,cs),
(425,649,o),
(419,666,o),
(405,680,c),
(273,626,o),
(213,599,o),
(44,514,cs),
(37,511,o),
(18,418,o),
(18,389,cs),
(18,353,o),
(50,324,o),
(87,324,cs),
(97,324,o),
(105,325,o),
(113,328,c),
(157,302,o),
(190,280,o),
(213,262,cs),
(258,228,o),
(290,191,o),
(305,161,c),
(282,150,o),
(248,141,o),
(202,136,cs),
(155,130,o),
(88,127,o),
(0,127,cs),
(-6,127,o),
(-8,125,o),
(-8,119,cs),
(-8,17,ls),
(-8,12,o),
(-6,9,o),
(0,9,cs)
);
}
);
};
layerId = "506100EA-3BB8-464E-A0A0-F667AF3F2320";
shapes = (
{
closed = 1;
nodes = (
(117,9,o),
(205,23,o),
(266,51,cs),
(326,79,o),
(356,120,o),
(356,173,cs),
(356,206,o),
(343,241,o),
(317,277,cs),
(265,349,o),
(173,410,o),
(74,435,c),
(203,471,o),
(276,500,o),
(371,546,cs),
(408,564,o),
(425,582,o),
(425,629,cs),
(425,649,o),
(419,666,o),
(405,680,c),
(273,626,o),
(213,599,o),
(44,514,cs),
(37,511,o),
(18,418,o),
(18,389,cs),
(18,353,o),
(50,324,o),
(87,324,cs),
(97,324,o),
(105,325,o),
(113,328,c),
(157,302,o),
(190,280,o),
(213,262,cs),
(258,228,o),
(290,191,o),
(305,161,c),
(282,150,o),
(248,141,o),
(202,136,cs),
(155,130,o),
(88,127,o),
(0,127,cs),
(-6,127,o),
(-8,125,o),
(-8,119,cs),
(-8,17,ls),
(-8,12,o),
(-6,9,o),
(0,9,cs)
);
}
);
width = 443;
}
);
unicode = 65243;
},
{
glyphname = uni06A9;
layers = (
{
anchors = (
{
name = bottom;
position = "{442, -110}";
},
{
name = bottom.dot;
position = "{442, -38}";
},
{
name = top;
position = "{355, 602}";
}
);
background = {
shapes = (
{
closed = 1;
nodes = (
(520,0,o),
(654,63,o),
(654,173,cs),
(654,206,o),
(641,241,o),
(615,277,cs),
(563,349,o),
(472,410,o),
(373,435,c),
(496,469,o),
(572,498,o),
(669,546,cs),
(703,563,o),
(724,596,o),
(724,630,cs),
(724,650,o),
(717,667,o),
(704,680,c),
(573,626,o),
(501,594,o),
(342,514,cs),
(335,511,o),
(316,418,o),
(316,389,cs),
(316,353,o),
(349,324,o),
(385,324,cs),
(395,324,o),
(404,325,o),
(412,328,c),
(455,302,o),
(488,280,o),
(510,262,c),
(555,228,o),
(588,191,o),
(604,160,c),
(522,131,o),
(459,119,o),
(337,119,cs),
(281,119,o),
(238,122,o),
(208,129,cs),
(146,143,o),
(124,172,o),
(123,227,cs),
(123,240,o),
(125,252,o),
(126,265,c),
(82,266,l),
(78,254,o),
(68,189,o),
(68,161,cs),
(68,121,o),
(75,89,o),
(90,66,cs),
(120,20,o),
(174,0,o),
(301,0,cs)
);
}
);
};
layerId = "506100EA-3BB8-464E-A0A0-F667AF3F2320";
shapes = (
{
closed = 1;
nodes = (
(520,0,o),
(654,63,o),
(654,173,cs),
(654,206,o),
(641,241,o),
(615,277,cs),
(563,349,o),
(472,410,o),
(373,435,c),
(496,469,o),
(572,498,o),
(669,546,cs),
(703,563,o),
(724,596,o),
(724,630,cs),
(724,650,o),
(717,667,o),
(704,680,c),
(573,626,o),
(501,594,o),
(342,514,cs),
(335,511,o),
(316,418,o),
(316,389,cs),
(316,353,o),
(349,324,o),
(385,324,cs),
(395,324,o),
(404,325,o),
(412,328,c),
(455,302,o),
(488,280,o),
(510,262,c),
(555,228,o),
(588,191,o),
(604,160,c),
(522,131,o),
(459,119,o),
(337,119,cs),
(281,119,o),
(238,122,o),
(208,129,cs),
(146,143,o),
(124,172,o),
(123,227,cs),
(123,240,o),
(125,252,o),
(126,265,c),
(82,266,l),
(78,254,o),
(68,189,o),
(68,161,cs),
(68,121,o),
(75,89,o),
(90,66,cs),
(120,20,o),
(174,0,o),
(301,0,cs)
);
}
);
width = 741;
}
);
unicode = (1705,64398);
},
{
glyphname = uniFB8F;
layers = (
{
anchors = (
{
name = bottom;
position = "{442, -110}";
},
{
name = bottom.dot;
position = "{442, -38}";
},
{
name = top;
position = "{387, 614}";
}
);
background = {
shapes = (
{
closed = 1;
nodes = (
(449,0,o),
(559,29,o),
(614,83,c),
(661,33,o),
(715,9,o),
(775,9,cs),
(781,9,o),
(784,12,o),
(784,17,cs),
(784,119,ls),
(784,125,o),
(781,127,o),
(775,127,cs),
(731,127,o),
(691,139,o),
(654,162,c),
(654,166,o),
(655,169,o),
(655,173,cs),
(655,206,o),
(642,240,o),
(616,277,cs),
(566,347,o),
(480,405,o),
(387,428,c),
(553,485,o),
(618,511,o),
(695,549,cs),
(725,564,o),
(749,596,o),
(749,630,cs),
(749,650,o),
(742,667,o),
(728,680,c),
(625,638,o),
(532,599,o),
(447,560,cs),
(391,535,o),
(356,519,o),
(344,508,cs),
(323,491,o),
(309,462,o),
(309,434,cs),
(309,403,o),
(343,367,o),
(412,328,c),
(453,303,o),
(487,281,o),
(512,263,c),
(556,228,o),
(588,193,o),
(604,160,c),
(521,125,o),
(475,119,o),
(337,119,cs),
(281,119,o),
(237,123,o),
(207,129,cs),
(146,142,o),
(123,170,o),
(123,227,c),
(124,240,o),
(125,252,o),
(126,265,c),
(81,266,l),
(77,252,o),
(67,187,o),
(67,161,cs),
(67,24,o),
(151,0,o),
(300,0,cs)
);
}
);
};
layerId = "506100EA-3BB8-464E-A0A0-F667AF3F2320";
shapes = (
{
closed = 1;
nodes = (
(449,0,o),
(559,29,o),
(614,83,c),
(661,33,o),
(715,9,o),
(775,9,cs),
(781,9,o),
(784,12,o),
(784,17,cs),
(784,119,ls),
(784,125,o),
(781,127,o),
(775,127,cs),
(731,127,o),
(691,139,o),
(654,162,c),
(654,166,o),
(655,169,o),
(655,173,cs),
(655,206,o),
(642,240,o),
(616,277,cs),
(566,347,o),
(480,405,o),
(387,428,c),
(553,485,o),
(618,511,o),
(695,549,cs),
(725,564,o),
(749,596,o),
(749,630,cs),
(749,650,o),
(742,667,o),
(728,680,c),
(625,638,o),
(532,599,o),
(447,560,cs),
(391,535,o),
(356,519,o),
(344,508,cs),
(323,491,o),
(309,462,o),
(309,434,cs),
(309,403,o),
(343,367,o),
(412,328,c),
(453,303,o),
(487,281,o),
(512,263,c),
(556,228,o),
(588,193,o),
(604,160,c),
(521,125,o),
(475,119,o),
(337,119,cs),
(281,119,o),
(237,123,o),
(207,129,cs),
(146,142,o),
(123,170,o),
(123,227,c),
(124,240,o),
(125,252,o),
(126,265,c),
(81,266,l),
(77,252,o),
(67,187,o),
(67,161,cs),
(67,24,o),
(151,0,o),
(300,0,cs)
);
}
);
width = 768;
}
);
unicode = 64399;
},
{
glyphname = uni06AA;
layers = (
{
anchors = (
{
name = bottom;
position = "{760, -110}";
},
{
name = top;
position = "{392, 637}";
}
);
background = {
shapes = (
{
closed = 1;
nodes = (
(510,9,o),
(782,26,o),
(956,53,c),
(970,85,o),
(977,112,o),
(977,134,cs),
(977,249,o),
(903,324,o),
(791,324,cs),
(755,324,o),
(687,321,o),
(586,316,cs),
(499,312,o),
(433,310,o),
(389,310,cs),
(364,310,o),
(341,313,o),
(319,320,cs),
(298,326,o),
(287,334,o),
(287,342,cs),
(287,351,o),
(299,362,o),
(324,376,cs),
(352,392,o),
(396,410,o),
(483,444,cs),
(518,458,o),
(538,492,o),
(539,540,cs),
(539,555,o),
(537,571,o),
(534,588,c),
(461,569,o),
(376,528,o),
(319,477,cs),
(263,426,o),
(235,374,o),
(235,325,cs),
(235,239,o),
(275,198,o),
(371,198,cs),
(419,198,o),
(491,201,o),
(585,207,cs),
(679,212,o),
(748,214,o),
(791,214,cs),
(867,214,o),
(901,201,o),
(923,157,c),
(766,138,o),
(500,127,o),
(271,127,cs),
(173,127,o),
(86,135,o),
(10,151,c),
(9,71,o),
(40,26,o),
(96,16,cs),
(127,11,o),
(182,9,o),
(286,9,cs)
);
}
);
};
layerId = "506100EA-3BB8-464E-A0A0-F667AF3F2320";
shapes = (
{
closed = 1;
nodes = (
(510,9,o),
(782,26,o),
(956,53,c),
(970,85,o),
(977,112,o),
(977,134,cs),
(977,249,o),
(903,324,o),
(791,324,cs),
(755,324,o),
(687,321,o),
(586,316,cs),
(499,312,o),
(433,310,o),
(389,310,cs),
(364,310,o),
(341,313,o),
(319,320,cs),
(298,326,o),
(287,334,o),
(287,342,cs),
(287,351,o),
(299,362,o),
(324,376,cs),
(352,392,o),
(396,410,o),
(483,444,cs),
(518,458,o),
(538,492,o),
(539,540,cs),
(539,555,o),
(537,571,o),
(534,588,c),
(461,569,o),
(376,528,o),
(319,477,cs),
(263,426,o),
(235,374,o),
(235,325,cs),
(235,239,o),
(275,198,o),
(371,198,cs),
(419,198,o),
(491,201,o),
(585,207,cs),
(679,212,o),
(748,214,o),
(791,214,cs),
(867,214,o),
(901,201,o),
(923,157,c),
(766,138,o),
(500,127,o),
(271,127,cs),
(173,127,o),
(86,135,o),
(10,151,c),
(9,71,o),
(40,26,o),
(96,16,cs),
(127,11,o),
(182,9,o),
(286,9,cs)
);
}
);
width = 1015;
}
);
unicode = 1706;
},
{
glyphname = uni06AA.fina;
layers = (
{
anchors = (
{
name = bottom;
position = "{792, -58}";
},
{
name = top;
position = "{389, 637}";
}
);
background = {
shapes = (
{
closed = 1;
nodes = (
(507,9,o),
(768,24,o),
(943,51,c),
(946,49,ls),
(985,22,o),
(1028,9,o),
(1074,9,cs),
(1079,9,o),
(1082,12,o),
(1082,17,cs),
(1082,119,ls),
(1082,125,o),
(1079,127,o),
(1074,127,cs),
(1038,127,o),
(1004,135,o),
(975,149,c),
(975,156,l),
(969,202,o),
(957,234,o),
(937,260,c),
(904,300,o),
(853,324,o),
(791,324,cs),
(704,324,o),
(482,310,o),
(389,310,cs),
(364,310,o),
(341,313,o),
(319,320,cs),
(298,326,o),
(287,334,o),
(287,342,cs),
(287,351,o),
(299,362,o),
(324,376,cs),
(351,391,o),
(394,410,o),
(483,444,cs),
(518,458,o),
(538,492,o),
(539,540,cs),
(539,555,o),
(537,571,o),
(534,588,c),
(461,569,o),
(376,528,o),
(319,477,cs),
(263,426,o),
(235,374,o),
(235,325,cs),
(235,239,o),
(275,198,o),
(371,198,cs),
(478,198,o),
(686,214,o),
(791,214,cs),
(867,214,o),
(901,201,o),
(923,157,c),
(766,138,o),
(500,127,o),
(271,127,cs),
(173,127,o),
(86,135,o),
(10,151,c),
(9,132,l),
(9,73,o),
(45,25,o),
(96,16,cs),
(123,11,o),
(173,9,o),
(246,9,cs)
);
}
);
};
layerId = "506100EA-3BB8-464E-A0A0-F667AF3F2320";
shapes = (
{
closed = 1;
nodes = (
(507,9,o),
(768,24,o),
(943,51,c),
(946,49,ls),
(985,22,o),
(1028,9,o),
(1074,9,cs),
(1079,9,o),
(1082,12,o),
(1082,17,cs),
(1082,119,ls),
(1082,125,o),
(1079,127,o),
(1074,127,cs),
(1038,127,o),
(1004,135,o),
(975,149,c),
(975,156,l),
(969,202,o),
(957,234,o),
(937,260,c),
(904,300,o),
(853,324,o),
(791,324,cs),
(704,324,o),
(482,310,o),
(389,310,cs),
(364,310,o),
(341,313,o),
(319,320,cs),
(298,326,o),
(287,334,o),
(287,342,cs),
(287,351,o),
(299,362,o),
(324,376,cs),
(351,391,o),
(394,410,o),
(483,444,cs),
(518,458,o),
(538,492,o),
(539,540,cs),
(539,555,o),
(537,571,o),
(534,588,c),
(461,569,o),
(376,528,o),
(319,477,cs),
(263,426,o),
(235,374,o),
(235,325,cs),
(235,239,o),
(275,198,o),
(371,198,cs),
(478,198,o),
(686,214,o),
(791,214,cs),
(867,214,o),
(901,201,o),
(923,157,c),
(766,138,o),
(500,127,o),
(271,127,cs),
(173,127,o),
(86,135,o),
(10,151,c),
(9,132,l),
(9,73,o),
(45,25,o),
(96,16,cs),
(123,11,o),
(173,9,o),
(246,9,cs)
);
}
);
width = 1065;
}
);
},
{
glyphname = uni06AA.medi;
layers = (
{
anchors = (
{
name = bottom;
position = "{675, -58}";
},
{
name = top;
position = "{259, 637}";
}
);
background = {
shapes = (
{
closed = 1;
nodes = (
(243,9,o),
(639,27,o),
(816,51,c),
(859,23,o),
(902,9,o),
(947,9,cs),
(953,9,o),
(956,12,o),
(956,17,cs),
(956,119,ls),
(956,125,o),
(953,127,o),
(947,127,cs),
(909,127,o),
(875,136,o),
(845,152,c),
(845,157,l),
(842,189,o),
(833,218,o),
(818,243,cs),
(787,293,o),
(731,324,o),
(660,324,cs),
(573,324,o),
(352,310,o),
(258,310,cs),
(222,310,o),
(156,321,o),
(156,342,cs),
(156,351,o),
(169,362,o),
(193,376,cs),
(220,391,o),
(263,410,o),
(353,444,cs),
(388,458,o),
(408,494,o),
(408,540,cs),
(408,555,o),
(406,571,o),
(403,588,c),
(358,577,o),
(311,558,o),
(264,531,cs),
(169,479,o),
(104,398,o),
(104,325,cs),
(104,239,o),
(143,198,o),
(240,198,cs),
(347,198,o),
(555,214,o),
(660,214,cs),
(735,214,o),
(768,202,o),
(792,157,c),
(644,140,o),
(273,127,o),
(0,127,cs),
(-6,127,o),
(-8,125,o),
(-8,119,cs),
(-8,17,ls),
(-8,12,o),
(-6,9,o),
(0,9,cs)
);
}
);
};
layerId = "506100EA-3BB8-464E-A0A0-F667AF3F2320";
shapes = (
{
closed = 1;
nodes = (
(243,9,o),
(639,27,o),
(816,51,c),
(859,23,o),
(902,9,o),
(947,9,cs),
(953,9,o),
(956,12,o),
(956,17,cs),
(956,119,ls),
(956,125,o),
(953,127,o),
(947,127,cs),
(909,127,o),
(875,136,o),
(845,152,c),
(845,157,l),
(842,189,o),
(833,218,o),
(818,243,cs),
(787,293,o),
(731,324,o),
(660,324,cs),
(573,324,o),
(352,310,o),
(258,310,cs),
(222,310,o),
(156,321,o),
(156,342,cs),
(156,351,o),
(169,362,o),
(193,376,cs),
(220,391,o),
(263,410,o),
(353,444,cs),
(388,458,o),
(408,494,o),
(408,540,cs),
(408,555,o),
(406,571,o),
(403,588,c),
(358,577,o),
(311,558,o),
(264,531,cs),
(169,479,o),
(104,398,o),
(104,325,cs),
(104,239,o),
(143,198,o),
(240,198,cs),
(347,198,o),
(555,214,o),
(660,214,cs),
(735,214,o),
(768,202,o),
(792,157,c),
(644,140,o),
(273,127,o),
(0,127,cs),
(-6,127,o),
(-8,125,o),
(-8,119,cs),
(-8,17,ls),
(-8,12,o),
(-6,9,o),
(0,9,cs)
);
}
);
width = 938;
}
);
},
{
glyphname = uni06AA.init;
layers = (
{
anchors = (
{
name = bottom;
position = "{672, -58}";
},
{
name = top;
position = "{259, 637}";
}
);
background = {
shapes = (
{
closed = 1;
nodes = (
(264,9,o),
(663,28,o),
(825,53,c),
(839,85,o),
(846,112,o),
(846,134,cs),
(846,248,o),
(772,324,o),
(660,324,cs),
(573,324,o),
(352,310,o),
(258,310,cs),
(233,310,o),
(210,313,o),
(188,320,cs),
(167,326,o),
(156,334,o),
(156,342,cs),
(156,351,o),
(169,362,o),
(193,376,cs),
(220,391,o),
(263,410,o),
(353,444,cs),
(388,458,o),
(408,494,o),
(408,540,cs),
(408,555,o),
(406,571,o),
(403,588,c),
(358,577,o),
(311,558,o),
(264,531,cs),
(169,479,o),
(104,398,o),
(104,325,cs),
(104,239,o),
(143,198,o),
(240,198,cs),
(347,198,o),
(555,214,o),
(660,214,cs),
(735,214,o),
(768,202,o),
(792,157,c),
(644,140,o),
(273,127,o),
(0,127,cs),
(-6,127,o),
(-8,125,o),
(-8,119,cs),
(-8,17,ls),
(-8,12,o),
(-6,9,o),
(0,9,cs)
);
}
);
};
layerId = "506100EA-3BB8-464E-A0A0-F667AF3F2320";
shapes = (
{
closed = 1;
nodes = (
(264,9,o),
(663,28,o),
(825,53,c),
(839,85,o),
(846,112,o),
(846,134,cs),
(846,248,o),
(772,324,o),
(660,324,cs),
(573,324,o),
(352,310,o),
(258,310,cs),
(233,310,o),
(210,313,o),
(188,320,cs),
(167,326,o),
(156,334,o),
(156,342,cs),
(156,351,o),
(169,362,o),
(193,376,cs),
(220,391,o),
(263,410,o),
(353,444,cs),
(388,458,o),
(408,494,o),
(408,540,cs),
(408,555,o),
(406,571,o),
(403,588,c),
(358,577,o),
(311,558,o),
(264,531,cs),
(169,479,o),
(104,398,o),
(104,325,cs),
(104,239,o),
(143,198,o),
(240,198,cs),
(347,198,o),
(555,214,o),
(660,214,cs),
(735,214,o),
(768,202,o),
(792,157,c),
(644,140,o),
(273,127,o),
(0,127,cs),
(-6,127,o),
(-8,125,o),
(-8,119,cs),
(-8,17,ls),
(-8,12,o),
(-6,9,o),
(0,9,cs)
);
}
);
width = 887;
}
);
},
{
glyphname = uni0644;
layers = (
{
anchors = (
{
name = bottom;
position = "{268, -311}";
},
{
name = bottom.dot;
position = "{268, -256}";
},
{
name = top;
position = "{430, 729}";
},
{
name = top.dot;
position = "{432, 669}";
}
);
background = {
shapes = (
{
closed = 1;
nodes = (
(305,-252,o),
(355,-242,o),
(401,-220,cs),
(492,-178,o),
(549,-97,o),
(549,-7,cs),
(549,66,o),
(542,123,o),
(532,221,cs),
(502,533,l),
(534,557,l),
(519,594,o),
(506,635,o),
(494,680,c),
(435,680,o),
(386,634,o),
(386,578,cs),
(386,551,o),
(442,219,o),
(471,72,cs),
(493,-45,l),
(472,-64,o),
(451,-81,o),
(430,-93,cs),
(380,-122,o),
(326,-134,o),
(253,-134,cs),
(165,-134,o),
(123,-88,o),
(123,7,cs),
(123,30,o),
(127,57,o),
(136,87,c),
(92,98,l),
(76,35,o),
(67,-13,o),
(67,-47,cs),
(67,-180,o),
(131,-252,o),
(251,-252,cs)
);
}
);
};
layerId = "506100EA-3BB8-464E-A0A0-F667AF3F2320";
shapes = (
{
closed = 1;
nodes = (
(305,-252,o),
(355,-242,o),
(401,-220,cs),
(492,-178,o),
(549,-97,o),
(549,-7,cs),
(549,66,o),
(542,123,o),
(532,221,cs),
(502,533,l),
(534,557,l),
(519,594,o),
(506,635,o),
(494,680,c),
(435,680,o),
(386,634,o),
(386,578,cs),
(386,551,o),
(442,219,o),
(471,72,cs),
(493,-45,l),
(472,-64,o),
(451,-81,o),
(430,-93,cs),
(380,-122,o),
(326,-134,o),
(253,-134,cs),
(165,-134,o),
(123,-88,o),
(123,7,cs),
(123,30,o),
(127,57,o),
(136,87,c),
(92,98,l),
(76,35,o),
(67,-13,o),
(67,-47,cs),
(67,-180,o),
(131,-252,o),
(251,-252,cs)
);
}
);
width = 612;
}
);
unicode = (1604,65245);
},
{
glyphname = uni0644.rlig;
layers = (
{
anchors = (
{
name = bottom;
position = "{419, -110}";
},
{
name = top;
position = "{376, 737}";
}
);
background = {
shapes = (
{
closed = 1;
nodes = (
(231,79,l),
(285,116,o),
(330,155,o),
(369,204,cs),
(421,271,o),
(453,351,o),
(453,436,cs),
(453,446,o),
(451,522,o),
(449,549,c),
(482,574,l),
(465,616,o),
(455,647,o),
(442,697,c),
(380,697,o),
(337,662,o),
(337,608,cs),
(337,570,o),
(368,427,o),
(368,387,cs),
(368,329,o),
(349,279,o),
(316,232,cs),
(283,186,o),
(235,142,o),
(177,97,c)
);
}
);
};
layerId = "506100EA-3BB8-464E-A0A0-F667AF3F2320";
shapes = (
{
closed = 1;
nodes = (
(231,79,l),
(285,116,o),
(330,155,o),
(369,204,cs),
(421,271,o),
(453,351,o),
(453,436,cs),
(453,446,o),
(451,522,o),
(449,549,c),
(482,574,l),
(465,616,o),
(455,647,o),
(442,697,c),
(380,697,o),
(337,662,o),
(337,608,cs),
(337,570,o),
(368,427,o),
(368,387,cs),
(368,329,o),
(349,279,o),
(316,232,cs),
(283,186,o),
(235,142,o),
(177,97,c)
);
}
);
width = 546;
}
);
},
{
glyphname = uniFEDE;
layers = (
{
anchors = (
{
name = bottom;
position = "{268, -311}";
},
{
name = bottom.dot;
position = "{268, -256}";
},
{
name = top;
position = "{430, 729}";
},
{
name = top.dot;
position = "{412, 669}";
}
);
background = {
shapes = (
{
closed = 1;
nodes = (
(305,-252,o),
(355,-242,o),
(401,-220,cs),
(492,-178,o),
(549,-97,o),
(549,-7,c),
(548,30,l),
(576,14,o),
(600,9,o),
(625,9,cs),
(631,9,o),
(634,12,o),
(634,17,cs),
(634,119,ls),
(634,125,o),
(631,127,o),
(625,127,cs),
(595,127,o),
(566,136,o),
(539,152,c),
(527,280,o),
(514,408,o),
(502,533,c),
(534,557,l),
(519,594,o),
(506,635,o),
(494,680,c),
(435,680,o),
(386,634,o),
(386,578,cs),
(386,549,o),
(413,410,o),
(426,326,cs),
(450,187,o),
(465,103,o),
(471,72,cs),
(493,-45,l),
(474,-63,o),
(455,-78,o),
(435,-90,cs),
(384,-122,o),
(329,-134,o),
(253,-134,cs),
(165,-134,o),
(123,-88,o),
(123,7,cs),
(123,30,o),
(127,57,o),
(136,87,c),
(92,98,l),
(76,35,o),
(67,-13,o),
(67,-47,cs),
(67,-180,o),
(131,-252,o),
(251,-252,cs)
);
}
);
};
layerId = "506100EA-3BB8-464E-A0A0-F667AF3F2320";
shapes = (
{
closed = 1;
nodes = (
(305,-252,o),
(355,-242,o),
(401,-220,cs),
(492,-178,o),
(549,-97,o),
(549,-7,c),
(548,30,l),
(576,14,o),
(600,9,o),
(625,9,cs),
(631,9,o),
(634,12,o),
(634,17,cs),
(634,119,ls),
(634,125,o),
(631,127,o),
(625,127,cs),
(595,127,o),
(566,136,o),
(539,152,c),
(527,280,o),
(514,408,o),
(502,533,c),
(534,557,l),
(519,594,o),
(506,635,o),
(494,680,c),
(435,680,o),
(386,634,o),
(386,578,cs),
(386,549,o),
(413,410,o),
(426,326,cs),
(450,187,o),
(465,103,o),
(471,72,cs),
(493,-45,l),
(474,-63,o),
(455,-78,o),
(435,-90,cs),
(384,-122,o),
(329,-134,o),
(253,-134,cs),
(165,-134,o),
(123,-88,o),
(123,7,cs),
(123,30,o),
(127,57,o),
(136,87,c),
(92,98,l),
(76,35,o),
(67,-13,o),
(67,-47,cs),
(67,-180,o),
(131,-252,o),
(251,-252,cs)
);
}
);
width = 617;
}
);
unicode = 65246;
},
{
glyphname = uniFEE0;
layers = (
{
anchors = (
{
name = bottom;
position = "{125, -110}";
},
{
name = bottom.dot;
position = "{125, -38}";
},
{
name = top;
position = "{99, 729}";
},
{
name = top.dot;
position = "{91, 669}";
}
);
background = {
shapes = (
{
closed = 1;
nodes = (
(52,9,o),
(100,25,o),
(130,44,c),
(156,21,o),
(197,9,o),
(253,9,cs),
(259,9,o),
(262,12,o),
(262,17,cs),
(262,119,ls),
(262,125,o),
(259,127,o),
(253,127,cs),
(207,127,o),
(174,135,o),
(144,155,c),
(144,184,o),
(144,213,o),
(144,271,cs),
(145,434,o),
(150,605,o),
(152,680,c),
(109,661,o),
(69,640,o),
(33,614,c),
(38,566,o),
(43,521,o),
(48,478,cs),
(63,351,o),
(78,240,o),
(93,146,c),
(63,134,o),
(32,127,o),
(0,127,cs),
(-6,127,o),
(-8,125,o),
(-8,119,cs),
(-8,17,ls),
(-8,12,o),
(-6,9,o),
(0,9,cs)
);
}
);
};
layerId = "506100EA-3BB8-464E-A0A0-F667AF3F2320";
shapes = (
{
closed = 1;
nodes = (
(52,9,o),
(100,25,o),
(130,44,c),
(156,21,o),
(197,9,o),
(253,9,cs),
(259,9,o),
(262,12,o),
(262,17,cs),
(262,119,ls),
(262,125,o),
(259,127,o),
(253,127,cs),
(207,127,o),
(174,135,o),
(144,155,c),
(144,184,o),
(144,213,o),
(144,271,cs),
(145,434,o),
(150,605,o),
(152,680,c),
(109,661,o),
(69,640,o),
(33,614,c),
(38,566,o),
(43,521,o),
(48,478,cs),
(63,351,o),
(78,240,o),
(93,146,c),
(63,134,o),
(32,127,o),
(0,127,cs),
(-6,127,o),
(-8,125,o),
(-8,119,cs),
(-8,17,ls),
(-8,12,o),
(-6,9,o),
(0,9,cs)
);
}
);
width = 245;
}
);
unicode = 65248;
},
{
glyphname = uni0644.medi;
layers = (
{
anchors = (
{
name = bottom;
position = "{125, -110}";
},
{
name = bottom.dot;
position = "{125, -38}";
},
{
name = top;
position = "{99, 729}";
},
{
name = top.dot;
position = "{91, 669}";
}
);
background = {
shapes = (
{
closed = 1;
nodes = (
(52,9,o),
(100,25,o),
(130,44,c),
(156,21,o),
(197,9,o),
(253,9,cs),
(259,9,o),
(262,12,o),
(262,17,cs),
(262,119,ls),
(262,125,o),
(259,127,o),
(253,127,cs),
(207,127,o),
(174,135,o),
(144,155,c),
(144,184,o),
(144,213,o),
(144,271,cs),
(145,434,o),
(150,605,o),
(152,680,c),
(109,661,o),
(69,640,o),
(33,614,c),
(38,566,o),
(43,521,o),
(48,478,cs),
(63,351,o),
(78,240,o),
(93,146,c),
(63,134,o),
(32,127,o),
(0,127,cs),
(-6,127,o),
(-8,125,o),
(-8,119,cs),
(-8,17,ls),
(-8,12,o),
(-6,9,o),
(0,9,cs)
);
}
);
};
layerId = "506100EA-3BB8-464E-A0A0-F667AF3F2320";
shapes = (
{
closed = 1;
nodes = (
(52,9,o),
(100,25,o),
(130,44,c),
(156,21,o),
(197,9,o),
(253,9,cs),
(259,9,o),
(262,12,o),
(262,17,cs),
(262,119,ls),
(262,125,o),
(259,127,o),
(253,127,cs),
(207,127,o),
(174,135,o),
(144,155,c),
(144,184,o),
(144,213,o),
(144,271,cs),
(145,434,o),
(150,605,o),
(152,680,c),
(109,661,o),
(69,640,o),
(33,614,c),
(38,566,o),
(43,521,o),
(48,478,cs),
(63,351,o),
(78,240,o),
(93,146,c),
(63,134,o),
(32,127,o),
(0,127,cs),
(-6,127,o),
(-8,125,o),
(-8,119,cs),
(-8,17,ls),
(-8,12,o),
(-6,9,o),
(0,9,cs)
);
}
);
width = 245;
}
);
},
{
glyphname = uniFEE0.rlig;
layers = (
{
anchors = (
{
name = bottom;
position = "{497, -110}";
},
{
name = top;
position = "{453, 720}";
}
);
background = {
shapes = (
{
closed = 1;
nodes = (
(64,3,l),
(139,5,o),
(211,9,o),
(293,19,cs),
(329,23,o),
(356,39,o),
(379,68,cs),
(401,97,o),
(419,137,o),
(435,191,cs),
(448,238,o),
(445,244,o),
(462,387,c),
(464,359,o),
(469,298,o),
(472,258,cs),
(476,202,o),
(479,146,o),
(487,99,cs),
(498,33,o),
(562,9,o),
(639,9,cs),
(645,9,o),
(648,12,o),
(648,17,cs),
(648,119,ls),
(648,124,o),
(646,127,o),
(639,127,cs),
(614,127,o),
(593,130,o),
(575,134,c),
(559,139,o),
(544,146,o),
(529,155,c),
(529,176,o),
(527,287,o),
(527,329,cs),
(526,381,o),
(524,623,o),
(524,680,c),
(482,656,o),
(457,635,o),
(418,613,c),
(418,504,o),
(411,420,o),
(396,354,cs),
(382,287,o),
(361,237,o),
(333,195,cs),
(306,156,o),
(275,129,o),
(231,106,cs),
(187,84,o),
(133,67,o),
(59,48,c)
);
}
);
};
layerId = "506100EA-3BB8-464E-A0A0-F667AF3F2320";
shapes = (
{
closed = 1;
nodes = (
(64,3,l),
(139,5,o),
(211,9,o),
(293,19,cs),
(329,23,o),
(356,39,o),
(379,68,cs),
(401,97,o),
(419,137,o),
(435,191,cs),
(448,238,o),
(445,244,o),
(462,387,c),
(464,359,o),
(469,298,o),
(472,258,cs),
(476,202,o),
(479,146,o),
(487,99,cs),
(498,33,o),
(562,9,o),
(639,9,cs),
(645,9,o),
(648,12,o),
(648,17,cs),
(648,119,ls),
(648,124,o),
(646,127,o),
(639,127,cs),
(614,127,o),
(593,130,o),
(575,134,c),
(559,139,o),
(544,146,o),
(529,155,c),
(529,176,o),
(527,287,o),
(527,329,cs),
(526,381,o),
(524,623,o),
(524,680,c),
(482,656,o),
(457,635,o),
(418,613,c),
(418,504,o),
(411,420,o),
(396,354,cs),
(382,287,o),
(361,237,o),
(333,195,cs),
(306,156,o),
(275,129,o),
(231,106,cs),
(187,84,o),
(133,67,o),
(59,48,c)
);
}
);
width = 631;
}
);
},
{
glyphname = uniFEDF;
layers = (
{
anchors = (
{
name = bottom;
position = "{112, -110}";
},
{
name = bottom.dot;
position = "{112, -38}";
},
{
name = top;
position = "{86, 729}";
},
{
name = top.dot;
position = "{106, 669}";
}
);
background = {
shapes = (
{
closed = 1;
nodes = (
(59,9,o),
(106,21,o),
(119,40,cs),
(145,79,o),
(158,122,o),
(158,167,cs),
(158,229,o),
(157,302,o),
(154,387,cs),
(151,472,o),
(148,570,o),
(146,680,c),
(103,659,o),
(62,638,o),
(27,614,c),
(62,421,o),
(83,305,o),
(89,267,cs),
(95,228,o),
(100,189,o),
(105,150,c),
(65,135,o),
(30,127,o),
(0,127,cs),
(-6,127,o),
(-8,125,o),
(-8,119,cs),
(-8,17,ls),
(-8,12,o),
(-6,9,o),
(0,9,cs)
);
}
);
};
layerId = "506100EA-3BB8-464E-A0A0-F667AF3F2320";
shapes = (
{
closed = 1;
nodes = (
(59,9,o),
(106,21,o),
(119,40,cs),
(145,79,o),
(158,122,o),
(158,167,cs),
(158,229,o),
(157,302,o),
(154,387,cs),
(151,472,o),
(148,570,o),
(146,680,c),
(103,659,o),
(62,638,o),
(27,614,c),
(62,421,o),
(83,305,o),
(89,267,cs),
(95,228,o),
(100,189,o),
(105,150,c),
(65,135,o),
(30,127,o),
(0,127,cs),
(-6,127,o),
(-8,125,o),
(-8,119,cs),
(-8,17,ls),
(-8,12,o),
(-6,9,o),
(0,9,cs)
);
}
);
width = 217;
}
);
unicode = 65247;
},
{
glyphname = uni0644.init;
layers = (
{
anchors = (
{
name = bottom;
position = "{112, -110}";
},
{
name = bottom.dot;
position = "{112, -38}";
},
{
name = top;
position = "{86, 729}";
},
{
name = top.dot;
position = "{106, 669}";
}
);
background = {
shapes = (
{
closed = 1;
nodes = (
(59,9,o),
(106,21,o),
(119,40,cs),
(145,79,o),
(158,122,o),
(158,167,cs),
(158,229,o),
(157,302,o),
(154,387,cs),
(151,472,o),
(148,570,o),
(146,680,c),
(103,659,o),
(62,638,o),
(27,614,c),
(62,421,o),
(83,305,o),
(89,267,cs),
(95,228,o),
(100,189,o),
(105,150,c),
(65,135,o),
(30,127,o),
(0,127,cs),
(-6,127,o),
(-8,125,o),
(-8,119,cs),
(-8,17,ls),
(-8,12,o),
(-6,9,o),
(0,9,cs)
);
}
);
};
layerId = "506100EA-3BB8-464E-A0A0-F667AF3F2320";
shapes = (
{
closed = 1;
nodes = (
(59,9,o),
(106,21,o),
(119,40,cs),
(145,79,o),
(158,122,o),
(158,167,cs),
(158,229,o),
(157,302,o),
(154,387,cs),
(151,472,o),
(148,570,o),
(146,680,c),
(103,659,o),
(62,638,o),
(27,614,c),
(62,421,o),
(83,305,o),
(89,267,cs),
(95,228,o),
(100,189,o),
(105,150,c),
(65,135,o),
(30,127,o),
(0,127,cs),
(-6,127,o),
(-8,125,o),
(-8,119,cs),
(-8,17,ls),
(-8,12,o),
(-6,9,o),
(0,9,cs)
);
}
);
width = 217;
}
);
},
{
glyphname = uniFEDF.rlig;
layers = (
{
anchors = (
{
name = bottom;
position = "{419, -110}";
},
{
name = top;
position = "{376, 737}";
}
);
background = {
shapes = (
{
closed = 1;
nodes = (
(231,79,l),
(285,116,o),
(330,155,o),
(369,204,cs),
(421,271,o),
(453,351,o),
(453,436,cs),
(453,446,o),
(451,522,o),
(449,549,c),
(482,574,l),
(465,616,o),
(455,647,o),
(442,697,c),
(380,697,o),
(337,662,o),
(337,608,cs),
(337,570,o),
(368,427,o),
(368,387,cs),
(368,329,o),
(349,279,o),
(316,232,cs),
(283,186,o),
(235,142,o),
(177,97,c)
);
}
);
};
layerId = "506100EA-3BB8-464E-A0A0-F667AF3F2320";
shapes = (
{
closed = 1;
nodes = (
(231,79,l),
(285,116,o),
(330,155,o),
(369,204,cs),
(421,271,o),
(453,351,o),
(453,436,cs),
(453,446,o),
(451,522,o),
(449,549,c),
(482,574,l),
(465,616,o),
(455,647,o),
(442,697,c),
(380,697,o),
(337,662,o),
(337,608,cs),
(337,570,o),
(368,427,o),
(368,387,cs),
(368,329,o),
(349,279,o),
(316,232,cs),
(283,186,o),
(235,142,o),
(177,97,c)
);
}
);
width = 546;
}
);
},
{
glyphname = uni06B8.init;
layers = (
{
anchors = (
{
name = bottom;
position = "{129, -247}";
},
{
name = top;
position = "{173, 729}";
}
);
background = {
shapes = (
{
closed = 1;
nodes = (
(131,9,o),
(203,19,o),
(217,40,cs),
(247,88,o),
(256,123,o),
(256,167,cs),
(256,285,o),
(248,516,o),
(245,680,c),
(205,661,o),
(165,639,o),
(125,614,c),
(161,418,o),
(185,296,o),
(204,150,c),
(158,134,o),
(111,127,o),
(0,127,cs),
(-6,127,o),
(-8,125,o),
(-8,119,cs),
(-8,17,ls),
(-8,12,o),
(-6,9,o),
(0,9,cs)
);
},
{
alignment = -1;
pos = (-87,20);
ref = _uniFBB9;
}
);
};
layerId = "746D22AD-5A45-4C83-9BB7-E72D916E61A2";
associatedMasterId = "506100EA-3BB8-464E-A0A0-F667AF3F2320";
name = "Nov 2 20, 07:44";
shapes = (
{
closed = 1;
nodes = (
(131,9,o),
(203,19,o),
(217,40,cs),
(247,88,o),
(256,123,o),
(256,167,cs),
(256,285,o),
(248,516,o),
(245,680,c),
(205,661,o),
(165,639,o),
(125,614,c),
(161,418,o),
(185,296,o),
(204,150,c),
(158,134,o),
(111,127,o),
(0,127,cs),
(-6,127,o),
(-8,125,o),
(-8,119,cs),
(-8,17,ls),
(-8,12,o),
(-6,9,o),
(0,9,cs)
);
},
{
closed = 1;
nodes = (
(90,-140,o),
(104,-123,o),
(115,-107,c),
(96,-89,o),
(81,-75,o),
(71,-63,c),
(56,-81,o),
(40,-97,o),
(22,-112,c),
(34,-125,o),
(50,-140,o),
(71,-157,c)
);
},
{
closed = 1;
nodes = (
(138,-199,o),
(146,-189,o),
(166,-167,c),
(149,-153,o),
(135,-140,o),
(125,-127,c),
(106,-146,o),
(96,-157,o),
(83,-167,c),
(93,-178,o),
(107,-192,o),
(127,-208,c)
);
},
{
closed = 1;
nodes = (
(188,-130,o),
(202,-113,o),
(213,-97,c),
(196,-83,o),
(182,-68,o),
(168,-53,c),
(153,-71,o),
(137,-87,o),
(121,-102,c),
(135,-118,o),
(151,-132,o),
(169,-146,c)
);
}
);
width = 327;
},
{
anchors = (
{
name = bottom;
position = "{146, -270}";
},
{
name = top;
position = "{173, 729}";
}
);
layerId = "506100EA-3BB8-464E-A0A0-F667AF3F2320";
shapes = (
{
closed = 1;
nodes = (
(131,9,o),
(203,19,o),
(217,40,cs),
(247,88,o),
(256,123,o),
(256,167,cs),
(256,285,o),
(248,516,o),
(245,680,c),
(205,661,o),
(165,639,o),
(125,614,c),
(161,418,o),
(185,296,o),
(204,150,c),
(158,134,o),
(111,127,o),
(0,127,cs),
(-6,127,o),
(-8,125,o),
(-8,119,cs),
(-8,17,ls),
(-8,12,o),
(-6,9,o),
(0,9,cs)
);
},
{
alignment = -1;
pos = (-87,20);
ref = _uniFBB9;
}
);
width = 327;
}
);
},
{
glyphname = uni0645;
layers = (
{
anchors = (
{
name = bottom;
position = "{298, -110}";
},
{
name = bottom.dot;
position = "{298, -38}";
},
{
name = top;
position = "{228, 536}";
},
{
name = top.dot;
position = "{230, 395}";
}
);
background = {
shapes = (
{
closed = 1;
nodes = (
(107,-316,o),
(140,-297,o),
(175,-272,c),
(163,-213,o),
(151,-155,o),
(139,-97,cs),
(131,-60,o),
(123,-22,o),
(115,15,c),
(162,32,o),
(312,51,o),
(422,51,c),
(468,170,l),
(427,199,o),
(391,241,o),
(348,304,cs),
(308,361,o),
(282,383,o),
(250,383,cs),
(195,383,o),
(137,318,o),
(99,219,c),
(140,198,l),
(172,243,o),
(200,266,o),
(231,266,cs),
(263,266,o),
(287,221,o),
(324,180,cs),
(343,159,l),
(289,159,o),
(102,136,o),
(93,118,cs),
(65,58,o),
(51,18,o),
(51,0,cs),
(51,-24,o),
(55,-70,o),
(62,-138,cs),
(70,-205,o),
(74,-268,o),
(74,-328,c)
);
}
);
};
layerId = "506100EA-3BB8-464E-A0A0-F667AF3F2320";
shapes = (
{
closed = 1;
nodes = (
(107,-316,o),
(140,-297,o),
(175,-272,c),
(163,-213,o),
(151,-155,o),
(139,-97,cs),
(131,-60,o),
(123,-22,o),
(115,15,c),
(162,32,o),
(312,51,o),
(422,51,c),
(468,170,l),
(427,199,o),
(391,241,o),
(348,304,cs),
(308,361,o),
(282,383,o),
(250,383,cs),
(195,383,o),
(137,318,o),
(99,219,c),
(140,198,l),
(172,243,o),
(200,266,o),
(231,266,cs),
(263,266,o),
(287,221,o),
(324,180,cs),
(343,159,l),
(289,159,o),
(102,136,o),
(93,118,cs),
(65,58,o),
(51,18,o),
(51,0,cs),
(51,-24,o),
(55,-70,o),
(62,-138,cs),
(70,-205,o),
(74,-268,o),
(74,-328,c)
);
}
);
width = 502;
}
);
unicode = (1605,65249);
},
{
glyphname = uniFEE2;
layers = (
{
anchors = (
{
name = bottom;
position = "{374, -110}";
},
{
name = bottom.dot;
position = "{374, -38}";
},
{
name = top;
position = "{298, 526}";
},
{
name = top.dot;
position = "{300, 385}";
}
);
background = {
shapes = (
{
closed = 1;
nodes = (
(122,-295,o),
(155,-276,o),
(190,-250,c),
(186,-218,o),
(178,-169,o),
(167,-105,cs),
(149,0,o),
(138,65,o),
(128,135,c),
(164,162,o),
(190,180,o),
(206,190,c),
(198,167,o),
(194,144,o),
(194,121,cs),
(194,46,o),
(306,0,o),
(458,0,c),
(471,47,l),
(498,22,o),
(528,9,o),
(561,9,cs),
(568,9,o),
(572,12,o),
(572,20,cs),
(572,118,ls),
(572,124,o),
(568,127,o),
(561,127,cs),
(545,127,o),
(531,133,o),
(520,145,cs),
(498,168,o),
(480,206,o),
(466,247,cs),
(459,267,o),
(451,286,o),
(444,304,c),
(428,339,o),
(411,366,o),
(387,366,cs),
(350,366,o),
(297,345,o),
(241,314,cs),
(186,282,o),
(116,229,o),
(110,219,c),
(94,184,o),
(83,157,o),
(77,140,cs),
(71,122,o),
(68,110,o),
(68,102,cs),
(68,75,o),
(71,16,o),
(79,-76,cs),
(85,-168,o),
(89,-245,o),
(89,-307,c)
);
},
{
closed = 1;
nodes = (
(346,121,o),
(285,141,o),
(251,169,c),
(284,208,o),
(328,238,o),
(384,260,c),
(390,204,o),
(404,155,o),
(426,111,c)
);
}
);
};
layerId = "506100EA-3BB8-464E-A0A0-F667AF3F2320";
shapes = (
{
closed = 1;
nodes = (
(122,-295,o),
(155,-276,o),
(190,-250,c),
(186,-218,o),
(178,-169,o),
(167,-105,cs),
(149,0,o),
(138,65,o),
(128,135,c),
(164,162,o),
(190,180,o),
(206,190,c),
(198,167,o),
(194,144,o),
(194,121,cs),
(194,46,o),
(306,0,o),
(458,0,c),
(471,47,l),
(498,22,o),
(528,9,o),
(561,9,cs),
(568,9,o),
(572,12,o),
(572,20,cs),
(572,118,ls),
(572,124,o),
(568,127,o),
(561,127,cs),
(545,127,o),
(531,133,o),
(520,145,cs),
(498,168,o),
(480,206,o),
(466,247,cs),
(459,267,o),
(451,286,o),
(444,304,c),
(428,339,o),
(411,366,o),
(387,366,cs),
(350,366,o),
(297,345,o),
(241,314,cs),
(186,282,o),
(116,229,o),
(110,219,c),
(94,184,o),
(83,157,o),
(77,140,cs),
(71,122,o),
(68,110,o),
(68,102,cs),
(68,75,o),
(71,16,o),
(79,-76,cs),
(85,-168,o),
(89,-245,o),
(89,-307,c)
);
},
{
closed = 1;
nodes = (
(346,121,o),
(285,141,o),
(251,169,c),
(284,208,o),
(328,238,o),
(384,260,c),
(390,204,o),
(404,155,o),
(426,111,c)
);
}
);
width = 555;
}
);
unicode = 65250;
},
{
glyphname = uniFEE4;
layers = (
{
anchors = (
{
name = bottom;
position = "{224, -110}";
},
{
name = bottom.dot;
position = "{224, -38}";
},
{
name = top;
position = "{228, 526}";
},
{
name = top.dot;
position = "{230, 385}";
}
);
background = {
shapes = (
{
closed = 1;
nodes = (
(329,47,l),
(355,22,o),
(385,9,o),
(419,9,cs),
(426,9,o),
(430,12,o),
(430,20,cs),
(430,118,ls),
(430,124,o),
(426,127,o),
(419,127,cs),
(402,127,o),
(388,135,o),
(374,150,cs),
(356,169,o),
(340,201,o),
(324,247,cs),
(308,291,o),
(294,322,o),
(283,340,c),
(271,357,o),
(258,366,o),
(245,366,cs),
(216,366,o),
(187,355,o),
(159,333,cs),
(105,292,o),
(62,214,o),
(53,144,c),
(53,140,o),
(52,137,o),
(52,134,c),
(33,129,o),
(18,127,o),
(0,127,cs),
(-6,127,o),
(-8,125,o),
(-8,119,cs),
(-8,17,ls),
(-8,12,o),
(-6,9,o),
(0,9,cs),
(39,9,o),
(70,17,o),
(107,42,c),
(153,17,o),
(230,0,o),
(315,0,c)
);
},
{
closed = 1;
nodes = (
(204,121,o),
(146,139,o),
(109,169,c),
(139,207,o),
(184,237,o),
(242,260,c),
(248,204,o),
(262,155,o),
(284,111,c)
);
}
);
};
layerId = "506100EA-3BB8-464E-A0A0-F667AF3F2320";
shapes = (
{
closed = 1;
nodes = (
(329,47,l),
(355,22,o),
(385,9,o),
(419,9,cs),
(426,9,o),
(430,12,o),
(430,20,cs),
(430,118,ls),
(430,124,o),
(426,127,o),
(419,127,cs),
(402,127,o),
(388,135,o),
(374,150,cs),
(356,169,o),
(340,201,o),
(324,247,cs),
(308,291,o),
(294,322,o),
(283,340,c),
(271,357,o),
(258,366,o),
(245,366,cs),
(216,366,o),
(187,355,o),
(159,333,cs),
(105,292,o),
(62,214,o),
(53,144,c),
(53,140,o),
(52,137,o),
(52,134,c),
(33,129,o),
(18,127,o),
(0,127,cs),
(-6,127,o),
(-8,125,o),
(-8,119,cs),
(-8,17,ls),
(-8,12,o),
(-6,9,o),
(0,9,cs),
(39,9,o),
(70,17,o),
(107,42,c),
(153,17,o),
(230,0,o),
(315,0,c)
);
},
{
closed = 1;
nodes = (
(204,121,o),
(146,139,o),
(109,169,c),
(139,207,o),
(184,237,o),
(242,260,c),
(248,204,o),
(262,155,o),
(284,111,c)
);
}
);
width = 413;
}
);
unicode = 65252;
},
{
glyphname = uniFEE3;
layers = (
{
anchors = (
{
name = bottom;
position = "{264, -110}";
},
{
name = bottom.dot;
position = "{264, -38}";
},
{
name = top;
position = "{268, 526}";
},
{
name = top.dot;
position = "{270, 385}";
}
);
background = {
shapes = (
{
closed = 1;
nodes = (
(397,25,o),
(426,78,o),
(426,113,cs),
(426,149,o),
(419,188,o),
(404,229,cs),
(375,311,o),
(325,366,o),
(277,366,cs),
(238,366,o),
(212,348,o),
(179,303,cs),
(164,283,o),
(145,249,o),
(121,201,cs),
(95,152,o),
(55,127,o),
(0,127,cs),
(-6,127,o),
(-8,125,o),
(-8,119,cs),
(-8,17,ls),
(-8,12,o),
(-6,9,o),
(0,9,cs),
(53,9,o),
(86,22,o),
(118,56,c),
(181,23,o),
(278,0,o),
(367,0,c)
);
},
{
closed = 1;
nodes = (
(270,117,o),
(217,131,o),
(175,150,c),
(196,191,o),
(212,218,o),
(223,230,cs),
(234,242,o),
(247,248,o),
(262,248,cs),
(271,248,o),
(280,242,o),
(291,229,cs),
(311,204,o),
(329,159,o),
(334,110,c)
);
}
);
};
layerId = "506100EA-3BB8-464E-A0A0-F667AF3F2320";
shapes = (
{
closed = 1;
nodes = (
(397,25,o),
(426,78,o),
(426,113,cs),
(426,149,o),
(419,188,o),
(404,229,cs),
(375,311,o),
(325,366,o),
(277,366,cs),
(238,366,o),
(212,348,o),
(179,303,cs),
(164,283,o),
(145,249,o),
(121,201,cs),
(95,152,o),
(55,127,o),
(0,127,cs),
(-6,127,o),
(-8,125,o),
(-8,119,cs),
(-8,17,ls),
(-8,12,o),
(-6,9,o),
(0,9,cs),
(53,9,o),
(86,22,o),
(118,56,c),
(181,23,o),
(278,0,o),
(367,0,c)
);
},
{
closed = 1;
nodes = (
(270,117,o),
(217,131,o),
(175,150,c),
(196,191,o),
(212,218,o),
(223,230,cs),
(234,242,o),
(247,248,o),
(262,248,cs),
(271,248,o),
(280,242,o),
(291,229,cs),
(311,204,o),
(329,159,o),
(334,110,c)
);
}
);
width = 473;
}
);
unicode = 65251;
},
{
glyphname = uni06BA;
layers = (
{
anchors = (
{
name = bottom;
position = "{268, -311}";
},
{
name = bottom.dot;
position = "{268, -256}";
},
{
name = top;
position = "{285, 383}";
},
{
name = top.dot;
position = "{285, 193}";
}
);
background = {
shapes = (
{
closed = 1;
nodes = (
(306,-252,o),
(357,-242,o),
(403,-220,cs),
(495,-177,o),
(552,-96,o),
(552,-7,cs),
(552,29,o),
(545,75,o),
(537,123,cs),
(531,163,o),
(518,230,o),
(513,270,c),
(444,236,o),
(412,194,o),
(412,138,cs),
(412,111,o),
(451,43,o),
(497,-45,c),
(426,-109,o),
(359,-134,o),
(254,-134,cs),
(165,-134,o),
(123,-88,o),
(123,7,cs),
(123,30,o),
(128,57,o),
(137,87,c),
(93,98,l),
(76,35,o),
(68,-13,o),
(68,-47,cs),
(68,-180,o),
(132,-252,o),
(251,-252,cs)
);
}
);
};
layerId = "506100EA-3BB8-464E-A0A0-F667AF3F2320";
shapes = (
{
closed = 1;
nodes = (
(306,-252,o),
(357,-242,o),
(403,-220,cs),
(495,-177,o),
(552,-96,o),
(552,-7,cs),
(552,29,o),
(545,75,o),
(537,123,cs),
(531,163,o),
(518,230,o),
(513,270,c),
(444,236,o),
(412,194,o),
(412,138,cs),
(412,111,o),
(451,43,o),
(497,-45,c),
(426,-109,o),
(359,-134,o),
(254,-134,cs),
(165,-134,o),
(123,-88,o),
(123,7,cs),
(123,30,o),
(128,57,o),
(137,87,c),
(93,98,l),
(76,35,o),
(68,-13,o),
(68,-47,cs),
(68,-180,o),
(132,-252,o),
(251,-252,cs)
);
}
);
width = 604;
}
);
unicode = (1722,64414);
},
{
glyphname = uniFB9F;
layers = (
{
anchors = (
{
name = bottom;
position = "{254, -311}";
},
{
name = bottom.dot;
position = "{254, -256}";
},
{
name = top;
position = "{285, 383}";
},
{
name = top.dot;
position = "{285, 193}";
}
);
background = {
shapes = (
{
closed = 1;
nodes = (
(306,-252,o),
(357,-242,o),
(403,-220,cs),
(495,-177,o),
(552,-96,o),
(552,-7,c),
(551,20,l),
(569,12,o),
(588,9,o),
(607,9,cs),
(613,9,o),
(616,12,o),
(616,17,cs),
(616,119,ls),
(616,125,o),
(613,127,o),
(607,127,cs),
(580,127,o),
(555,133,o),
(533,145,c),
(522,207,o),
(516,248,o),
(513,270,c),
(444,236,o),
(412,194,o),
(412,138,cs),
(412,104,o),
(451,39,o),
(497,-45,c),
(426,-109,o),
(359,-134,o),
(254,-134,cs),
(165,-134,o),
(123,-88,o),
(123,7,cs),
(123,30,o),
(128,57,o),
(137,87,c),
(93,98,l),
(76,35,o),
(68,-13,o),
(68,-47,cs),
(68,-180,o),
(132,-252,o),
(251,-252,cs)
);
}
);
};
layerId = "506100EA-3BB8-464E-A0A0-F667AF3F2320";
shapes = (
{
closed = 1;
nodes = (
(306,-252,o),
(357,-242,o),
(403,-220,cs),
(495,-177,o),
(552,-96,o),
(552,-7,c),
(551,20,l),
(569,12,o),
(588,9,o),
(607,9,cs),
(613,9,o),
(616,12,o),
(616,17,cs),
(616,119,ls),
(616,125,o),
(613,127,o),
(607,127,cs),
(580,127,o),
(555,133,o),
(533,145,c),
(522,207,o),
(516,248,o),
(513,270,c),
(444,236,o),
(412,194,o),
(412,138,cs),
(412,104,o),
(451,39,o),
(497,-45,c),
(426,-109,o),
(359,-134,o),
(254,-134,cs),
(165,-134,o),
(123,-88,o),
(123,7,cs),
(123,30,o),
(128,57,o),
(137,87,c),
(93,98,l),
(76,35,o),
(68,-13,o),
(68,-47,cs),
(68,-180,o),
(132,-252,o),
(251,-252,cs)
);
}
);
width = 599;
}
);
unicode = 64415;
},
{
glyphname = uni0647;
layers = (
{
anchors = (
{
name = bottom;
position = "{206, -110}";
},
{
name = top;
position = "{198, 640}";
},
{
name = top.dot;
position = "{198, 459}";
}
);
background = {
shapes = (
{
closed = 1;
nodes = (
(239,0,o),
(278,11,o),
(303,28,c),
(332,46,o),
(374,147,o),
(374,185,cs),
(374,215,o),
(365,246,o),
(346,281,cs),
(308,349,o),
(239,406,o),
(163,430,c),
(144,420,o),
(132,392,o),
(132,364,cs),
(132,344,o),
(137,323,o),
(159,310,c),
(95,246,o),
(68,190,o),
(68,135,cs),
(68,57,o),
(123,0,o),
(199,0,cs)
);
},
{
closed = 1;
nodes = (
(172,105,o),
(143,131,o),
(143,168,cs),
(143,204,o),
(162,241,o),
(201,279,c),
(256,238,o),
(289,192,o),
(309,133,c),
(280,115,o),
(247,105,o),
(210,105,cs)
);
}
);
};
layerId = "506100EA-3BB8-464E-A0A0-F667AF3F2320";
shapes = (
{
closed = 1;
nodes = (
(239,0,o),
(278,11,o),
(303,28,c),
(332,46,o),
(374,147,o),
(374,185,cs),
(374,215,o),
(365,246,o),
(346,281,cs),
(308,349,o),
(239,406,o),
(163,430,c),
(144,420,o),
(132,392,o),
(132,364,cs),
(132,344,o),
(137,323,o),
(159,310,c),
(95,246,o),
(68,190,o),
(68,135,cs),
(68,57,o),
(123,0,o),
(199,0,cs)
);
},
{
closed = 1;
nodes = (
(172,105,o),
(143,131,o),
(143,168,cs),
(143,204,o),
(162,241,o),
(201,279,c),
(256,238,o),
(289,192,o),
(309,133,c),
(280,115,o),
(247,105,o),
(210,105,cs)
);
}
);
width = 425;
}
);
unicode = (1607,65257);
},
{
glyphname = uniFEEA;
layers = (
{
anchors = (
{
name = bottom;
position = "{246, -110}";
},
{
name = top;
position = "{228, 641}";
},
{
name = top.dot;
position = "{228, 460}";
}
);
background = {
shapes = (
{
closed = 1;
nodes = (
(480,9,o),
(483,12,o),
(483,17,cs),
(483,119,ls),
(483,125,o),
(480,127,o),
(475,127,cs),
(436,127,o),
(400,136,o),
(368,154,c),
(368,266,o),
(368,378,o),
(368,490,c),
(334,469,o),
(315,457,o),
(264,417,c),
(269,377,l),
(235,362,o),
(181,327,o),
(144,294,cs),
(125,278,o),
(112,263,o),
(106,250,c),
(92,225,o),
(68,154,o),
(68,139,cs),
(68,116,o),
(127,75,o),
(177,57,cs),
(208,46,o),
(242,42,o),
(284,38,c),
(324,120,l),
(333,83,l),
(342,36,o),
(394,9,o),
(475,9,cs)
);
},
{
closed = 1;
nodes = (
(292,158,o),
(273,160,o),
(255,163,cs),
(220,168,o),
(181,177,o),
(139,206,c),
(174,239,o),
(222,266,o),
(285,287,c),
(297,232,o),
(306,189,o),
(314,157,c)
);
}
);
};
layerId = "506100EA-3BB8-464E-A0A0-F667AF3F2320";
shapes = (
{
closed = 1;
nodes = (
(480,9,o),
(483,12,o),
(483,17,cs),
(483,119,ls),
(483,125,o),
(480,127,o),
(475,127,cs),
(436,127,o),
(400,136,o),
(368,154,c),
(368,266,o),
(368,378,o),
(368,490,c),
(334,469,o),
(315,457,o),
(264,417,c),
(269,377,l),
(235,362,o),
(181,327,o),
(144,294,cs),
(125,278,o),
(112,263,o),
(106,250,c),
(92,225,o),
(68,154,o),
(68,139,cs),
(68,116,o),
(127,75,o),
(177,57,cs),
(208,46,o),
(242,42,o),
(284,38,c),
(324,120,l),
(333,83,l),
(342,36,o),
(394,9,o),
(475,9,cs)
);
},
{
closed = 1;
nodes = (
(292,158,o),
(273,160,o),
(255,163,cs),
(220,168,o),
(181,177,o),
(139,206,c),
(174,239,o),
(222,266,o),
(285,287,c),
(297,232,o),
(306,189,o),
(314,157,c)
);
}
);
width = 466;
}
);
unicode = 65258;
},
{
glyphname = uniFEEC;
layers = (
{
anchors = (
{
name = bottom;
position = "{243, -244}";
},
{
name = top;
position = "{229, 641}";
}
);
background = {
shapes = (
{
closed = 1;
nodes = (
(307,-195,o),
(337,-180,o),
(351,-164,c),
(360,-152,o),
(385,-88,o),
(385,-69,cs),
(385,-41,o),
(362,-11,o),
(333,3,c),
(357,7,o),
(381,9,o),
(404,9,cs),
(411,9,o),
(415,12,o),
(415,20,cs),
(415,118,ls),
(415,124,o),
(411,127,o),
(404,127,cs),
(376,127,o),
(353,127,o),
(289,114,c),
(320,143,o),
(336,174,o),
(336,208,cs),
(336,228,o),
(332,262,o),
(323,312,cs),
(313,370,o),
(307,412,o),
(305,439,c),
(261,449,l),
(161,354,o),
(98,248,o),
(72,130,c),
(50,128,o),
(26,127,o),
(0,127,cs),
(-6,127,o),
(-8,125,o),
(-8,119,cs),
(-8,17,ls),
(-8,12,o),
(-6,9,o),
(0,9,c),
(26,11,l),
(37,-34,l),
(67,-20,l),
(85,-129,o),
(158,-195,o),
(264,-195,cs)
);
},
{
closed = 1;
nodes = (
(203,-100,o),
(161,-65,o),
(148,5,c),
(159,8,o),
(167,9,o),
(171,9,cs),
(231,9,o),
(290,-24,o),
(330,-82,c),
(309,-95,o),
(295,-100,o),
(272,-100,cs)
);
},
{
closed = 1;
nodes = (
(151,173,o),
(173,230,o),
(231,312,c),
(235,287,o),
(246,252,o),
(262,207,cs),
(275,168,l),
(242,142,o),
(200,126,o),
(146,118,c)
);
}
);
};
layerId = "506100EA-3BB8-464E-A0A0-F667AF3F2320";
shapes = (
{
closed = 1;
nodes = (
(307,-195,o),
(337,-180,o),
(351,-164,c),
(360,-152,o),
(385,-88,o),
(385,-69,cs),
(385,-41,o),
(362,-11,o),
(333,3,c),
(357,7,o),
(381,9,o),
(404,9,cs),
(411,9,o),
(415,12,o),
(415,20,cs),
(415,118,ls),
(415,124,o),
(411,127,o),
(404,127,cs),
(376,127,o),
(353,127,o),
(289,114,c),
(320,143,o),
(336,174,o),
(336,208,cs),
(336,228,o),
(332,262,o),
(323,312,cs),
(313,370,o),
(307,412,o),
(305,439,c),
(261,449,l),
(161,354,o),
(98,248,o),
(72,130,c),
(50,128,o),
(26,127,o),
(0,127,cs),
(-6,127,o),
(-8,125,o),
(-8,119,cs),
(-8,17,ls),
(-8,12,o),
(-6,9,o),
(0,9,c),
(26,11,l),
(37,-34,l),
(67,-20,l),
(85,-129,o),
(158,-195,o),
(264,-195,cs)
);
},
{
closed = 1;
nodes = (
(203,-100,o),
(161,-65,o),
(148,5,c),
(159,8,o),
(167,9,o),
(171,9,cs),
(231,9,o),
(290,-24,o),
(330,-82,c),
(309,-95,o),
(295,-100,o),
(272,-100,cs)
);
},
{
closed = 1;
nodes = (
(151,173,o),
(173,230,o),
(231,312,c),
(235,287,o),
(246,252,o),
(262,207,cs),
(275,168,l),
(242,142,o),
(200,126,o),
(146,118,c)
);
}
);
width = 397;
}
);
unicode = 65260;
},
{
glyphname = uniFEEB;
layers = (
{
anchors = (
{
name = bottom;
position = "{212, -110}";
},
{
name = top;
position = "{165, 686}";
},
{
name = top.dot;
position = "{165, 505}";
}
);
background = {
shapes = (
{
closed = 1;
nodes = (
(444,42,o),
(465,94,o),
(465,125,cs),
(465,174,o),
(451,224,o),
(422,274,cs),
(366,375,o),
(264,452,o),
(155,479,c),
(126,375,l),
(81,344,o),
(44,270,o),
(44,216,cs),
(44,186,o),
(54,157,o),
(75,129,c),
(50,128,o),
(25,128,o),
(0,127,c),
(-6,127,o),
(-8,125,o),
(-8,121,cs),
(-8,17,ls),
(-8,12,o),
(-6,9,o),
(0,9,cs),
(69,9,o),
(127,22,o),
(175,48,c),
(238,14,o),
(325,-7,o),
(414,-9,c)
);
},
{
closed = 1;
nodes = (
(150,169,o),
(120,190,o),
(95,217,c),
(102,233,o),
(109,248,o),
(116,259,cs),
(134,287,o),
(154,301,o),
(179,301,cs),
(203,301,o),
(229,272,o),
(229,240,cs),
(229,201,o),
(210,166,o),
(183,153,c)
);
},
{
closed = 1;
nodes = (
(347,108,o),
(298,116,o),
(263,125,c),
(284,157,o),
(294,194,o),
(294,237,cs),
(294,257,o),
(291,277,o),
(284,295,c),
(303,280,o),
(320,263,o),
(335,242,c),
(363,206,o),
(386,160,o),
(409,100,c)
);
}
);
};
layerId = "506100EA-3BB8-464E-A0A0-F667AF3F2320";
shapes = (
{
closed = 1;
nodes = (
(444,42,o),
(465,94,o),
(465,125,cs),
(465,174,o),
(451,224,o),
(422,274,cs),
(366,375,o),
(264,452,o),
(155,479,c),
(126,375,l),
(81,344,o),
(44,270,o),
(44,216,cs),
(44,186,o),
(54,157,o),
(75,129,c),
(50,128,o),
(25,128,o),
(0,127,c),
(-6,127,o),
(-8,125,o),
(-8,121,cs),
(-8,17,ls),
(-8,12,o),
(-6,9,o),
(0,9,cs),
(69,9,o),
(127,22,o),
(175,48,c),
(238,14,o),
(325,-7,o),
(414,-9,c)
);
},
{
closed = 1;
nodes = (
(150,169,o),
(120,190,o),
(95,217,c),
(102,233,o),
(109,248,o),
(116,259,cs),
(134,287,o),
(154,301,o),
(179,301,cs),
(203,301,o),
(229,272,o),
(229,240,cs),
(229,201,o),
(210,166,o),
(183,153,c)
);
},
{
closed = 1;
nodes = (
(347,108,o),
(298,116,o),
(263,125,c),
(284,157,o),
(294,194,o),
(294,237,cs),
(294,257,o),
(291,277,o),
(284,295,c),
(303,280,o),
(320,263,o),
(335,242,c),
(363,206,o),
(386,160,o),
(409,100,c)
);
}
);
width = 516;
}
);
unicode = 65259;
},
{
glyphname = uniFBA7;
layers = (
{
anchors = (
{
name = bottom;
position = "{245, -110}";
},
{
name = top;
position = "{238, 456}";
},
{
name = top.dot;
position = "{238, 275}";
}
);
background = {
shapes = (
{
closed = 1;
nodes = (
(101,9,l),
(122,36,o),
(142,57,o),
(161,73,cs),
(188,95,o),
(213,107,o),
(236,107,cs),
(244,107,o),
(251,105,o),
(258,100,cs),
(264,96,o),
(280,82,o),
(304,58,cs),
(336,26,o),
(382,9,o),
(437,9,cs),
(444,9,o),
(448,12,o),
(448,20,cs),
(448,118,ls),
(448,124,o),
(444,127,o),
(437,127,cs),
(406,127,o),
(378,145,o),
(348,184,c),
(316,223,o),
(296,239,o),
(270,239,cs),
(243,239,o),
(212,222,o),
(178,187,cs),
(144,153,o),
(107,102,o),
(68,36,c)
);
}
);
};
layerId = "506100EA-3BB8-464E-A0A0-F667AF3F2320";
shapes = (
{
closed = 1;
nodes = (
(101,9,l),
(122,36,o),
(142,57,o),
(161,73,cs),
(188,95,o),
(213,107,o),
(236,107,cs),
(244,107,o),
(251,105,o),
(258,100,cs),
(264,96,o),
(280,82,o),
(304,58,cs),
(336,26,o),
(382,9,o),
(437,9,cs),
(444,9,o),
(448,12,o),
(448,20,cs),
(448,118,ls),
(448,124,o),
(444,127,o),
(437,127,cs),
(406,127,o),
(378,145,o),
(348,184,c),
(316,223,o),
(296,239,o),
(270,239,cs),
(243,239,o),
(212,222,o),
(178,187,cs),
(144,153,o),
(107,102,o),
(68,36,c)
);
}
);
width = 431;
}
);
unicode = 64423;
},
{
glyphname = uniFBA9;
layers = (
{
anchors = (
{
name = bottom;
position = "{195, -256}";
},
{
name = top;
position = "{236, 401}";
},
{
name = top.dot;
position = "{236, 249}";
}
);
background = {
shapes = (
{
closed = 1;
nodes = (
(277,-164,l),
(277,-92,o),
(282,-59,o),
(296,-7,c),
(321,3,o),
(361,9,o),
(418,9,cs),
(426,9,o),
(429,12,o),
(429,20,cs),
(429,118,ls),
(429,124,o),
(426,127,o),
(418,127,cs),
(376,127,o),
(342,118,o),
(315,98,cs),
(267,63,o),
(237,-2,o),
(223,-78,cs),
(218,-108,l),
(173,-43,o),
(156,7,o),
(156,76,cs),
(156,110,o),
(161,152,o),
(171,200,c),
(158,211,o),
(144,217,o),
(129,217,cs),
(103,217,o),
(79,198,o),
(68,171,cs),
(57,144,o),
(29,127,o),
(0,127,cs),
(-6,127,o),
(-8,125,o),
(-8,119,cs),
(-8,17,ls),
(-8,12,o),
(-6,9,o),
(0,9,cs),
(21,9,o),
(39,12,o),
(55,20,c),
(58,-64,o),
(120,-164,o),
(195,-218,c)
);
}
);
};
layerId = "506100EA-3BB8-464E-A0A0-F667AF3F2320";
shapes = (
{
closed = 1;
nodes = (
(277,-164,l),
(277,-92,o),
(282,-59,o),
(296,-7,c),
(321,3,o),
(361,9,o),
(418,9,cs),
(426,9,o),
(429,12,o),
(429,20,cs),
(429,118,ls),
(429,124,o),
(426,127,o),
(418,127,cs),
(376,127,o),
(342,118,o),
(315,98,cs),
(267,63,o),
(237,-2,o),
(223,-78,cs),
(218,-108,l),
(173,-43,o),
(156,7,o),
(156,76,cs),
(156,110,o),
(161,152,o),
(171,200,c),
(158,211,o),
(144,217,o),
(129,217,cs),
(103,217,o),
(79,198,o),
(68,171,cs),
(57,144,o),
(29,127,o),
(0,127,cs),
(-6,127,o),
(-8,125,o),
(-8,119,cs),
(-8,17,ls),
(-8,12,o),
(-6,9,o),
(0,9,cs),
(21,9,o),
(39,12,o),
(55,20,c),
(58,-64,o),
(120,-164,o),
(195,-218,c)
);
}
);
width = 412;
}
);
unicode = 64425;
},
{
glyphname = uniFBA8;
layers = (
{
anchors = (
{
name = bottom;
position = "{148, -271}";
},
{
name = top;
position = "{143, 616}";
},
{
name = top.dot;
position = "{143, 423}";
}
);
background = {
shapes = (
{
closed = 1;
nodes = (
(71,9,o),
(137,27,o),
(198,64,c),
(219,106,o),
(237,154,o),
(237,185,cs),
(237,206,o),
(227,262,o),
(208,352,cs),
(204,374,o),
(200,395,o),
(195,417,c),
(146,392,o),
(104,348,o),
(104,315,cs),
(104,298,o),
(114,277,o),
(128,252,cs),
(140,230,o),
(164,187,o),
(178,156,c),
(141,139,o),
(66,127,o),
(0,127,cs),
(-6,127,o),
(-8,125,o),
(-8,119,cs),
(-8,17,ls),
(-8,12,o),
(-6,9,o),
(0,9,cs)
);
},
{
closed = 1;
nodes = (
(158,-231,o),
(188,-201,o),
(201,-174,c),
(168,-165,o),
(155,-153,o),
(155,-132,cs),
(155,-105,o),
(167,-75,o),
(190,-42,c),
(160,-24,l),
(116,-81,o),
(94,-132,o),
(94,-177,cs),
(94,-205,o),
(114,-228,o),
(144,-231,c)
);
}
);
};
layerId = "506100EA-3BB8-464E-A0A0-F667AF3F2320";
shapes = (
{
closed = 1;
nodes = (
(71,9,o),
(137,27,o),
(198,64,c),
(219,106,o),
(237,154,o),
(237,185,cs),
(237,206,o),
(227,262,o),
(208,352,cs),
(204,374,o),
(200,395,o),
(195,417,c),
(146,392,o),
(104,348,o),
(104,315,cs),
(104,298,o),
(114,277,o),
(128,252,cs),
(140,230,o),
(164,187,o),
(178,156,c),
(141,139,o),
(66,127,o),
(0,127,cs),
(-6,127,o),
(-8,125,o),
(-8,119,cs),
(-8,17,ls),
(-8,12,o),
(-6,9,o),
(0,9,cs)
);
},
{
closed = 1;
nodes = (
(158,-231,o),
(188,-201,o),
(201,-174,c),
(168,-165,o),
(155,-153,o),
(155,-132,cs),
(155,-105,o),
(167,-75,o),
(190,-42,c),
(160,-24,l),
(116,-81,o),
(94,-132,o),
(94,-177,cs),
(94,-205,o),
(114,-228,o),
(144,-231,c)
);
}
);
width = 275;
}
);
unicode = 64424;
},
{
glyphname = uni06BE;
layers = (
{
anchors = (
{
name = bottom;
position = "{362, -110}";
},
{
name = top;
position = "{325, 686}";
},
{
name = top.dot;
position = "{325, 505}";
}
);
background = {
shapes = (
{
closed = 1;
nodes = (
(602,48,o),
(619,93,o),
(619,125,cs),
(619,174,o),
(604,224,o),
(576,274,cs),
(520,375,o),
(417,452,o),
(309,479,c),
(280,375,l),
(235,344,o),
(198,269,o),
(198,216,cs),
(198,185,o),
(210,154,o),
(233,123,c),
(212,120,o),
(188,119,o),
(164,119,cs),
(126,119,o),
(90,123,o),
(54,130,c),
(34,90,l),
(68,52,o),
(133,9,o),
(154,9,cs),
(223,9,o),
(281,22,o),
(329,48,c),
(392,15,o),
(475,-7,o),
(568,-9,c)
);
},
{
closed = 1;
nodes = (
(304,169,o),
(274,190,o),
(249,217,c),
(256,236,o),
(264,251,o),
(273,264,cs),
(290,289,o),
(310,301,o),
(333,301,cs),
(356,301,o),
(383,272,o),
(383,240,cs),
(383,203,o),
(363,166,o),
(337,153,c)
);
},
{
closed = 1;
nodes = (
(500,108,o),
(451,116,o),
(417,125,c),
(437,157,o),
(448,194,o),
(448,237,cs),
(448,258,o),
(444,277,o),
(437,296,c),
(490,253,o),
(528,193,o),
(563,100,c)
);
}
);
};
layerId = "506100EA-3BB8-464E-A0A0-F667AF3F2320";
shapes = (
{
closed = 1;
nodes = (
(602,48,o),
(619,93,o),
(619,125,cs),
(619,174,o),
(604,224,o),
(576,274,cs),
(520,375,o),
(417,452,o),
(309,479,c),
(280,375,l),
(235,344,o),
(198,269,o),
(198,216,cs),
(198,185,o),
(210,154,o),
(233,123,c),
(212,120,o),
(188,119,o),
(164,119,cs),
(126,119,o),
(90,123,o),
(54,130,c),
(34,90,l),
(68,52,o),
(133,9,o),
(154,9,cs),
(223,9,o),
(281,22,o),
(329,48,c),
(392,15,o),
(475,-7,o),
(568,-9,c)
);
},
{
closed = 1;
nodes = (
(304,169,o),
(274,190,o),
(249,217,c),
(256,236,o),
(264,251,o),
(273,264,cs),
(290,289,o),
(310,301,o),
(333,301,cs),
(356,301,o),
(383,272,o),
(383,240,cs),
(383,203,o),
(363,166,o),
(337,153,c)
);
},
{
closed = 1;
nodes = (
(500,108,o),
(451,116,o),
(417,125,c),
(437,157,o),
(448,194,o),
(448,237,cs),
(448,258,o),
(444,277,o),
(437,296,c),
(490,253,o),
(528,193,o),
(563,100,c)
);
}
);
width = 670;
}
);
unicode = (1726,64426);
},
{
glyphname = uniFBAB;
layers = (
{
anchors = (
{
name = bottom;
position = "{362, -110}";
},
{
name = top;
position = "{325, 686}";
},
{
name = top.dot;
position = "{325, 505}";
}
);
background = {
shapes = (
{
closed = 1;
nodes = (
(223,9,o),
(297,23,o),
(343,57,c),
(387,34,o),
(438,20,o),
(496,20,cs),
(537,20,o),
(558,33,o),
(568,45,c),
(587,17,o),
(629,9,o),
(717,9,cs),
(725,9,o),
(728,14,o),
(728,20,cs),
(728,118,ls),
(728,124,o),
(724,127,o),
(717,127,cs),
(667,127,o),
(637,128,o),
(624,139,cs),
(619,144,o),
(617,150,o),
(617,159,cs),
(617,165,o),
(617,187,o),
(617,205,cs),
(617,269,o),
(572,336,o),
(517,379,cs),
(458,425,o),
(385,458,o),
(309,478,c),
(280,375,l),
(238,344,o),
(198,274,o),
(198,216,cs),
(198,187,o),
(207,159,o),
(227,132,c),
(233,123,l),
(211,120,o),
(189,119,o),
(164,119,cs),
(140,119,o),
(88,123,o),
(54,130,c),
(34,90,l),
(61,60,o),
(130,9,o),
(154,9,cs)
);
},
{
closed = 1;
nodes = (
(308,179,o),
(276,197,o),
(249,217,c),
(262,266,o),
(296,301,o),
(328,301,cs),
(367,301,o),
(383,266,o),
(383,240,cs),
(383,210,o),
(373,183,o),
(351,163,c)
);
},
{
closed = 1;
nodes = (
(493,129,o),
(473,131,o),
(458,134,cs),
(443,137,o),
(432,140,o),
(425,142,c),
(441,168,o),
(448,200,o),
(448,237,cs),
(448,262,o),
(444,277,o),
(434,306,c),
(463,294,o),
(493,275,o),
(515,252,cs),
(539,228,o),
(554,198,o),
(554,163,cs),
(554,136,o),
(537,129,o),
(517,129,cs)
);
}
);
};
layerId = "506100EA-3BB8-464E-A0A0-F667AF3F2320";
shapes = (
{
closed = 1;
nodes = (
(223,9,o),
(297,23,o),
(343,57,c),
(387,34,o),
(438,20,o),
(496,20,cs),
(537,20,o),
(558,33,o),
(568,45,c),
(587,17,o),
(629,9,o),
(717,9,cs),
(725,9,o),
(728,14,o),
(728,20,cs),
(728,118,ls),
(728,124,o),
(724,127,o),
(717,127,cs),
(667,127,o),
(637,128,o),
(624,139,cs),
(619,144,o),
(617,150,o),
(617,159,cs),
(617,165,o),
(617,187,o),
(617,205,cs),
(617,269,o),
(572,336,o),
(517,379,cs),
(458,425,o),
(385,458,o),
(309,478,c),
(280,375,l),
(238,344,o),
(198,274,o),
(198,216,cs),
(198,187,o),
(207,159,o),
(227,132,c),
(233,123,l),
(211,120,o),
(189,119,o),
(164,119,cs),
(140,119,o),
(88,123,o),
(54,130,c),
(34,90,l),
(61,60,o),
(130,9,o),
(154,9,cs)
);
},
{
closed = 1;
nodes = (
(308,179,o),
(276,197,o),
(249,217,c),
(262,266,o),
(296,301,o),
(328,301,cs),
(367,301,o),
(383,266,o),
(383,240,cs),
(383,210,o),
(373,183,o),
(351,163,c)
);
},
{
closed = 1;
nodes = (
(493,129,o),
(473,131,o),
(458,134,cs),
(443,137,o),
(432,140,o),
(425,142,c),
(441,168,o),
(448,200,o),
(448,237,cs),
(448,262,o),
(444,277,o),
(434,306,c),
(463,294,o),
(493,275,o),
(515,252,cs),
(539,228,o),
(554,198,o),
(554,163,cs),
(554,136,o),
(537,129,o),
(517,129,cs)
);
}
);
width = 710;
}
);
unicode = 64427;
},
{
glyphname = uniFBAD;
layers = (
{
anchors = (
{
name = bottom;
position = "{212, -110}";
},
{
name = top;
position = "{175, 686}";
},
{
name = top.dot;
position = "{175, 505}";
}
);
background = {
shapes = (
{
closed = 1;
nodes = (
(20,9,ls),
(83,9,o),
(143,27,o),
(189,57,c),
(233,34,o),
(284,20,o),
(342,20,cs),
(383,20,o),
(404,33,o),
(415,45,c),
(433,18,o),
(479,9,o),
(546,9,cs),
(563,9,ls),
(571,9,o),
(574,14,o),
(574,20,cs),
(574,118,ls),
(574,124,o),
(570,127,o),
(563,127,cs),
(513,127,o),
(483,128,o),
(470,140,cs),
(465,145,o),
(462,150,o),
(462,159,cs),
(462,165,o),
(463,187,o),
(463,195,cs),
(463,270,o),
(423,333,o),
(363,379,cs),
(304,425,o),
(231,458,o),
(155,478,c),
(126,375,l),
(84,344,o),
(44,274,o),
(44,216,cs),
(44,185,o),
(56,152,o),
(75,129,c),
(64,128,o),
(29,127,o),
(13,127,cs),
(0,127,ls),
(-6,127,o),
(-8,125,o),
(-8,121,cs),
(-8,17,ls),
(-8,13,o),
(-7,9,o),
(0,9,cs)
);
},
{
closed = 1;
nodes = (
(154,179,o),
(123,197,o),
(95,217,c),
(108,266,o),
(142,301,o),
(174,301,cs),
(213,301,o),
(229,266,o),
(229,240,cs),
(229,210,o),
(220,183,o),
(197,163,c)
);
},
{
closed = 1;
nodes = (
(339,129,o),
(319,131,o),
(304,134,cs),
(289,137,o),
(278,140,o),
(271,142,c),
(287,168,o),
(294,200,o),
(294,237,cs),
(294,256,o),
(291,276,o),
(285,292,cs),
(280,306,l),
(310,293,o),
(339,275,o),
(362,251,cs),
(385,228,o),
(400,197,o),
(400,163,cs),
(400,136,o),
(383,129,o),
(363,129,cs)
);
}
);
};
layerId = "506100EA-3BB8-464E-A0A0-F667AF3F2320";
shapes = (
{
closed = 1;
nodes = (
(20,9,ls),
(83,9,o),
(143,27,o),
(189,57,c),
(233,34,o),
(284,20,o),
(342,20,cs),
(383,20,o),
(404,33,o),
(415,45,c),
(433,18,o),
(479,9,o),
(546,9,cs),
(563,9,ls),
(571,9,o),
(574,14,o),
(574,20,cs),
(574,118,ls),
(574,124,o),
(570,127,o),
(563,127,cs),
(513,127,o),
(483,128,o),
(470,140,cs),
(465,145,o),
(462,150,o),
(462,159,cs),
(462,165,o),
(463,187,o),
(463,195,cs),
(463,270,o),
(423,333,o),
(363,379,cs),
(304,425,o),
(231,458,o),
(155,478,c),
(126,375,l),
(84,344,o),
(44,274,o),
(44,216,cs),
(44,185,o),
(56,152,o),
(75,129,c),
(64,128,o),
(29,127,o),
(13,127,cs),
(0,127,ls),
(-6,127,o),
(-8,125,o),
(-8,121,cs),
(-8,17,ls),
(-8,13,o),
(-7,9,o),
(0,9,cs)
);
},
{
closed = 1;
nodes = (
(154,179,o),
(123,197,o),
(95,217,c),
(108,266,o),
(142,301,o),
(174,301,cs),
(213,301,o),
(229,266,o),
(229,240,cs),
(229,210,o),
(220,183,o),
(197,163,c)
);
},
{
closed = 1;
nodes = (
(339,129,o),
(319,131,o),
(304,134,cs),
(289,137,o),
(278,140,o),
(271,142,c),
(287,168,o),
(294,200,o),
(294,237,cs),
(294,256,o),
(291,276,o),
(285,292,cs),
(280,306,l),
(310,293,o),
(339,275,o),
(362,251,cs),
(385,228,o),
(400,197,o),
(400,163,cs),
(400,136,o),
(383,129,o),
(363,129,cs)
);
}
);
width = 557;
}
);
unicode = 64429;
},
{
glyphname = uni0648;
layers = (
{
anchors = (
{
name = bottom;
position = "{195, -245}";
},
{
name = top;
position = "{269, 570}";
},
{
name = top.dot;
position = "{269, 379}";
}
);
background = {
shapes = (
{
closed = 1;
nodes = (
(240,-195,o),
(282,-183,o),
(321,-157,cs),
(398,-106,o),
(445,-12,o),
(445,89,cs),
(445,131,o),
(437,174,o),
(421,219,cs),
(388,309,o),
(333,366,o),
(276,366,cs),
(252,366,o),
(228,355,o),
(206,333,c),
(160,290,o),
(130,213,o),
(130,138,cs),
(130,50,o),
(177,0,o),
(260,0,cs),
(306,0,o),
(353,25,o),
(392,65,c),
(393,58,l),
(363,-31,o),
(281,-86,o),
(177,-86,cs),
(139,-86,o),
(103,-81,o),
(67,-72,c),
(51,-114,l),
(101,-156,o),
(170,-195,o),
(195,-195,cs)
);
},
{
closed = 1;
nodes = (
(219,110,o),
(184,131,o),
(184,171,cs),
(184,180,o),
(185,189,o),
(188,198,cs),
(199,226,o),
(226,246,o),
(259,246,cs),
(275,246,o),
(290,240,o),
(305,230,cs),
(336,209,o),
(363,164,o),
(375,127,c),
(342,116,o),
(310,110,o),
(280,110,cs)
);
}
);
};
layerId = "506100EA-3BB8-464E-A0A0-F667AF3F2320";
shapes = (
{
closed = 1;
nodes = (
(240,-195,o),
(282,-183,o),
(321,-157,cs),
(398,-106,o),
(445,-12,o),
(445,89,cs),
(445,131,o),
(437,174,o),
(421,219,cs),
(388,309,o),
(333,366,o),
(276,366,cs),
(252,366,o),
(228,355,o),
(206,333,c),
(160,290,o),
(130,213,o),
(130,138,cs),
(130,50,o),
(177,0,o),
(260,0,cs),
(306,0,o),
(353,25,o),
(392,65,c),
(393,58,l),
(363,-31,o),
(281,-86,o),
(177,-86,cs),
(139,-86,o),
(103,-81,o),
(67,-72,c),
(51,-114,l),
(101,-156,o),
(170,-195,o),
(195,-195,cs)
);
},
{
closed = 1;
nodes = (
(219,110,o),
(184,131,o),
(184,171,cs),
(184,180,o),
(185,189,o),
(188,198,cs),
(199,226,o),
(226,246,o),
(259,246,cs),
(275,246,o),
(290,240,o),
(305,230,cs),
(336,209,o),
(363,164,o),
(375,127,c),
(342,116,o),
(310,110,o),
(280,110,cs)
);
}
);
width = 497;
}
);
unicode = (1608,65261);
},
{
glyphname = uniFEEE;
layers = (
{
anchors = (
{
name = bottom;
position = "{195, -245}";
},
{
name = top;
position = "{269, 580}";
},
{
name = top.dot;
position = "{269, 399}";
}
);
background = {
shapes = (
{
closed = 1;
nodes = (
(228,-195,o),
(259,-188,o),
(288,-175,cs),
(356,-145,o),
(411,-79,o),
(435,9,c),
(497,9,ls),
(502,9,o),
(505,12,o),
(505,17,cs),
(505,119,ls),
(505,125,o),
(502,127,o),
(497,127,cs),
(443,127,l),
(439,174,o),
(428,217,o),
(414,254,cs),
(382,333,o),
(331,387,o),
(276,387,cs),
(253,387,o),
(230,376,o),
(207,354,cs),
(161,310,o),
(131,232,o),
(131,159,cs),
(131,83,o),
(168,40,o),
(246,23,cs),
(271,18,o),
(313,14,o),
(370,10,c),
(333,-48,o),
(261,-86,o),
(177,-86,cs),
(139,-86,o),
(103,-81,o),
(67,-72,c),
(51,-114,l),
(101,-156,o),
(170,-195,o),
(195,-195,cs)
);
},
{
closed = 1;
nodes = (
(328,130,o),
(297,132,o),
(282,134,cs),
(216,143,o),
(184,165,o),
(184,202,cs),
(184,213,o),
(187,224,o),
(193,234,cs),
(206,253,o),
(228,268,o),
(254,268,cs),
(305,268,o),
(350,218,o),
(378,128,c)
);
}
);
};
layerId = "506100EA-3BB8-464E-A0A0-F667AF3F2320";
shapes = (
{
closed = 1;
nodes = (
(228,-195,o),
(259,-188,o),
(288,-175,cs),
(356,-145,o),
(411,-79,o),
(435,9,c),
(497,9,ls),
(502,9,o),
(505,12,o),
(505,17,cs),
(505,119,ls),
(505,125,o),
(502,127,o),
(497,127,cs),
(443,127,l),
(439,174,o),
(428,217,o),
(414,254,cs),
(382,333,o),
(331,387,o),
(276,387,cs),
(253,387,o),
(230,376,o),
(207,354,cs),
(161,310,o),
(131,232,o),
(131,159,cs),
(131,83,o),
(168,40,o),
(246,23,cs),
(271,18,o),
(313,14,o),
(370,10,c),
(333,-48,o),
(261,-86,o),
(177,-86,cs),
(139,-86,o),
(103,-81,o),
(67,-72,c),
(51,-114,l),
(101,-156,o),
(170,-195,o),
(195,-195,cs)
);
},
{
closed = 1;
nodes = (
(328,130,o),
(297,132,o),
(282,134,cs),
(216,143,o),
(184,165,o),
(184,202,cs),
(184,213,o),
(187,224,o),
(193,234,cs),
(206,253,o),
(228,268,o),
(254,268,cs),
(305,268,o),
(350,218,o),
(378,128,c)
);
}
);
width = 488;
}
);
unicode = 65262;
},
{
glyphname = uni08B1;
layers = (
{
anchors = (
{
name = bottom;
position = "{414, -257}";
},
{
name = top;
position = "{269, 580}";
},
{
name = top.dot;
position = "{269, 399}";
}
);
background = {
shapes = (
{
closed = 1;
nodes = (
(443,9,l),
(497,9,ls),
(502,9,o),
(505,12,o),
(505,17,cs),
(505,119,ls),
(505,125,o),
(502,127,o),
(497,127,cs),
(443,127,l),
(437,174,o),
(428,217,o),
(414,254,cs),
(382,333,o),
(331,387,o),
(276,387,cs),
(253,387,o),
(230,376,o),
(207,354,cs),
(161,310,o),
(131,232,o),
(131,159,cs),
(131,83,o),
(168,40,o),
(246,23,cs),
(271,18,o),
(321,14,o),
(378,10,c),
(373,-215,l),
(463,-230,l)
);
},
{
closed = 1;
nodes = (
(328,130,o),
(297,132,o),
(282,134,cs),
(216,143,o),
(184,165,o),
(184,202,cs),
(184,213,o),
(187,224,o),
(193,234,cs),
(206,253,o),
(228,268,o),
(254,268,cs),
(305,268,o),
(350,218,o),
(378,128,c)
);
}
);
};
layerId = "506100EA-3BB8-464E-A0A0-F667AF3F2320";
shapes = (
{
closed = 1;
nodes = (
(443,9,l),
(497,9,ls),
(502,9,o),
(505,12,o),
(505,17,cs),
(505,119,ls),
(505,125,o),
(502,127,o),
(497,127,cs),
(443,127,l),
(437,174,o),
(428,217,o),
(414,254,cs),
(382,333,o),
(331,387,o),
(276,387,cs),
(253,387,o),
(230,376,o),
(207,354,cs),
(161,310,o),
(131,232,o),
(131,159,cs),
(131,83,o),
(168,40,o),
(246,23,cs),
(271,18,o),
(321,14,o),
(378,10,c),
(373,-215,l),
(463,-230,l)
);
},
{
closed = 1;
nodes = (
(328,130,o),
(297,132,o),
(282,134,cs),
(216,143,o),
(184,165,o),
(184,202,cs),
(184,213,o),
(187,224,o),
(193,234,cs),
(206,253,o),
(228,268,o),
(254,268,cs),
(305,268,o),
(350,218,o),
(378,128,c)
);
}
);
width = 488;
}
);
unicode = 2225;
},
{
glyphname = uni06C5;
layers = (
{
anchors = (
{
name = bottom;
position = "{196, -295}";
},
{
name = top;
position = "{280, 570}";
},
{
name = top.dot;
position = "{280, 379}";
}
);
background = {
shapes = (
{
closed = 1;
nodes = (
(240,-255,o),
(282,-239,o),
(322,-207,cs),
(401,-143,o),
(454,-24,o),
(454,89,cs),
(454,131,o),
(446,175,o),
(429,220,cs),
(396,310,o),
(341,366,o),
(285,366,cs),
(260,366,o),
(237,355,o),
(214,334,cs),
(169,291,o),
(139,213,o),
(139,138,cs),
(139,50,o),
(186,0,o),
(269,0,cs),
(315,0,o),
(361,25,o),
(400,65,c),
(401,58,l),
(386,9,o),
(362,-33,o),
(329,-68,c),
(299,-59,o),
(274,-51,o),
(254,-45,cs),
(229,-38,o),
(210,-35,o),
(200,-35,cs),
(177,-35,o),
(164,-45,o),
(137,-64,c),
(152,-99,l),
(172,-90,o),
(187,-86,o),
(199,-86,cs),
(220,-86,o),
(249,-93,o),
(286,-106,c),
(253,-130,o),
(214,-145,o),
(177,-145,cs),
(139,-145,o),
(103,-140,o),
(67,-131,c),
(51,-173,l),
(101,-216,o),
(170,-255,o),
(195,-255,cs)
);
},
{
closed = 1;
nodes = (
(228,110,o),
(192,131,o),
(192,171,cs),
(192,187,o),
(197,202,o),
(206,213,c),
(219,233,o),
(241,246,o),
(267,246,cs),
(313,246,o),
(355,201,o),
(383,127,c),
(350,116,o),
(319,110,o),
(288,110,cs)
);
}
);
};
layerId = "506100EA-3BB8-464E-A0A0-F667AF3F2320";
shapes = (
{
closed = 1;
nodes = (
(240,-255,o),
(282,-239,o),
(322,-207,cs),
(401,-143,o),
(454,-24,o),
(454,89,cs),
(454,131,o),
(446,175,o),
(429,220,cs),
(396,310,o),
(341,366,o),
(285,366,cs),
(260,366,o),
(237,355,o),
(214,334,cs),
(169,291,o),
(139,213,o),
(139,138,cs),
(139,50,o),
(186,0,o),
(269,0,cs),
(315,0,o),
(361,25,o),
(400,65,c),
(401,58,l),
(386,9,o),
(362,-33,o),
(329,-68,c),
(299,-59,o),
(274,-51,o),
(254,-45,cs),
(229,-38,o),
(210,-35,o),
(200,-35,cs),
(177,-35,o),
(164,-45,o),
(137,-64,c),
(152,-99,l),
(172,-90,o),
(187,-86,o),
(199,-86,cs),
(220,-86,o),
(249,-93,o),
(286,-106,c),
(253,-130,o),
(214,-145,o),
(177,-145,cs),
(139,-145,o),
(103,-140,o),
(67,-131,c),
(51,-173,l),
(101,-216,o),
(170,-255,o),
(195,-255,cs)
);
},
{
closed = 1;
nodes = (
(228,110,o),
(192,131,o),
(192,171,cs),
(192,187,o),
(197,202,o),
(206,213,c),
(219,233,o),
(241,246,o),
(267,246,cs),
(313,246,o),
(355,201,o),
(383,127,c),
(350,116,o),
(319,110,o),
(288,110,cs)
);
}
);
width = 506;
}
);
unicode = (1733,64480);
},
{
glyphname = uniFBE1;
layers = (
{
anchors = (
{
name = bottom;
position = "{196, -295}";
},
{
name = top;
position = "{280, 570}";
},
{
name = top.dot;
position = "{280, 379}";
}
);
background = {
shapes = (
{
closed = 1;
nodes = (
(233,-255,o),
(268,-244,o),
(302,-221,c),
(371,-177,o),
(424,-90,o),
(445,9,c),
(505,9,ls),
(510,9,o),
(513,12,o),
(513,17,cs),
(513,119,ls),
(513,125,o),
(510,127,o),
(505,127,cs),
(452,127,l),
(448,174,o),
(437,218,o),
(421,256,cs),
(390,334,o),
(339,387,o),
(285,387,cs),
(261,387,o),
(238,376,o),
(216,354,cs),
(170,310,o),
(140,232,o),
(140,159,cs),
(140,87,o),
(162,52,o),
(231,29,cs),
(262,19,o),
(312,13,o),
(382,10,c),
(369,-15,o),
(354,-39,o),
(336,-60,c),
(331,-58,o),
(303,-49,o),
(274,-40,c),
(248,-33,o),
(221,-26,o),
(208,-26,cs),
(189,-26,o),
(179,-29,o),
(145,-56,c),
(161,-90,l),
(181,-81,o),
(197,-77,o),
(208,-77,cs),
(230,-77,o),
(249,-83,o),
(297,-98,c),
(259,-129,o),
(219,-145,o),
(177,-145,cs),
(139,-145,o),
(103,-140,o),
(67,-131,c),
(51,-173,l),
(101,-216,o),
(170,-255,o),
(195,-255,cs)
);
},
{
closed = 1;
nodes = (
(326,130,o),
(285,134,o),
(262,139,cs),
(218,150,o),
(192,171,o),
(192,202,cs),
(192,211,o),
(195,220,o),
(199,228,cs),
(210,250,o),
(235,268,o),
(263,268,cs),
(313,268,o),
(358,220,o),
(386,128,c)
);
}
);
};
layerId = "506100EA-3BB8-464E-A0A0-F667AF3F2320";
shapes = (
{
closed = 1;
nodes = (
(233,-255,o),
(268,-244,o),
(302,-221,c),
(371,-177,o),
(424,-90,o),
(445,9,c),
(505,9,ls),
(510,9,o),
(513,12,o),
(513,17,cs),
(513,119,ls),
(513,125,o),
(510,127,o),
(505,127,cs),
(452,127,l),
(448,174,o),
(437,218,o),
(421,256,cs),
(390,334,o),
(339,387,o),
(285,387,cs),
(261,387,o),
(238,376,o),
(216,354,cs),
(170,310,o),
(140,232,o),
(140,159,cs),
(140,87,o),
(162,52,o),
(231,29,cs),
(262,19,o),
(312,13,o),
(382,10,c),
(369,-15,o),
(354,-39,o),
(336,-60,c),
(331,-58,o),
(303,-49,o),
(274,-40,c),
(248,-33,o),
(221,-26,o),
(208,-26,cs),
(189,-26,o),
(179,-29,o),
(145,-56,c),
(161,-90,l),
(181,-81,o),
(197,-77,o),
(208,-77,cs),
(230,-77,o),
(249,-83,o),
(297,-98,c),
(259,-129,o),
(219,-145,o),
(177,-145,cs),
(139,-145,o),
(103,-140,o),
(67,-131,c),
(51,-173,l),
(101,-216,o),
(170,-255,o),
(195,-255,cs)
);
},
{
closed = 1;
nodes = (
(326,130,o),
(285,134,o),
(262,139,cs),
(218,150,o),
(192,171,o),
(192,202,cs),
(192,211,o),
(195,220,o),
(199,228,cs),
(210,250,o),
(235,268,o),
(263,268,cs),
(313,268,o),
(358,220,o),
(386,128,c)
);
}
);
width = 497;
}
);
unicode = 64481;
},
{
glyphname = uni0649;
layers = (
{
anchors = (
{
name = bottom;
position = "{288, -311}";
},
{
name = bottom.dot;
position = "{288, -256}";
},
{
name = top;
position = "{214, 277}";
},
{
name = top.dot;
position = "{148, 104}";
}
);
background = {
shapes = (
{
closed = 1;
nodes = (
(304,-252,o),
(357,-240,o),
(410,-215,cs),
(518,-165,o),
(597,-80,o),
(597,-19,cs),
(597,11,o),
(583,48,o),
(563,63,cs),
(543,79,o),
(518,87,o),
(472,93,cs),
(420,99,o),
(380,107,o),
(354,118,c),
(365,145,o),
(380,170,o),
(400,192,cs),
(441,238,o),
(490,266,o),
(526,266,cs),
(538,266,o),
(548,260,o),
(558,247,c),
(602,256,l),
(589,341,o),
(560,385,o),
(514,385,cs),
(485,385,o),
(453,371,o),
(420,344,cs),
(353,288,o),
(303,194,o),
(303,119,cs),
(303,85,o),
(311,58,o),
(327,36,cs),
(355,-1,o),
(411,-22,o),
(500,-27,cs),
(514,-28,o),
(530,-28,o),
(546,-28,c),
(519,-49,o),
(489,-67,o),
(458,-83,cs),
(393,-115,o),
(322,-134,o),
(263,-134,cs),
(170,-134,o),
(123,-86,o),
(123,7,cs),
(123,30,o),
(128,57,o),
(137,87,c),
(93,98,l),
(76,35,o),
(68,-13,o),
(68,-47,cs),
(68,-180,o),
(132,-252,o),
(251,-252,cs)
);
}
);
};
layerId = "506100EA-3BB8-464E-A0A0-F667AF3F2320";
shapes = (
{
closed = 1;
nodes = (
(304,-252,o),
(357,-240,o),
(410,-215,cs),
(518,-165,o),
(597,-80,o),
(597,-19,cs),
(597,11,o),
(583,48,o),
(563,63,cs),
(543,79,o),
(518,87,o),
(472,93,cs),
(420,99,o),
(380,107,o),
(354,118,c),
(365,145,o),
(380,170,o),
(400,192,cs),
(441,238,o),
(490,266,o),
(526,266,cs),
(538,266,o),
(548,260,o),
(558,247,c),
(602,256,l),
(589,341,o),
(560,385,o),
(514,385,cs),
(485,385,o),
(453,371,o),
(420,344,cs),
(353,288,o),
(303,194,o),
(303,119,cs),
(303,85,o),
(311,58,o),
(327,36,cs),
(355,-1,o),
(411,-22,o),
(500,-27,cs),
(514,-28,o),
(530,-28,o),
(546,-28,c),
(519,-49,o),
(489,-67,o),
(458,-83,cs),
(393,-115,o),
(322,-134,o),
(263,-134,cs),
(170,-134,o),
(123,-86,o),
(123,7,cs),
(123,30,o),
(128,57,o),
(137,87,c),
(93,98,l),
(76,35,o),
(68,-13,o),
(68,-47,cs),
(68,-180,o),
(132,-252,o),
(251,-252,cs)
);
}
);
width = 636;
}
);
unicode = (1609,65263);
},
{
glyphname = uniFEF0;
layers = (
{
anchors = (
{
name = bottom;
position = "{308, -311}";
},
{
name = bottom.dot;
position = "{308, -256}";
},
{
name = top;
position = "{325, 278}";
},
{
name = top.dot;
position = "{148, 104}";
}
);
background = {
shapes = (
{
closed = 1;
nodes = (
(340,-252,o),
(397,-243,o),
(457,-225,cs),
(577,-189,o),
(660,-131,o),
(660,-81,cs),
(660,-63,o),
(657,-41,o),
(648,-31,c),
(641,-21,o),
(625,-13,o),
(543,26,c),
(583,16,o),
(653,9,o),
(696,9,cs),
(703,9,o),
(707,12,o),
(707,19,cs),
(707,117,ls),
(707,124,o),
(703,127,o),
(696,127,cs),
(611,127,o),
(539,133,o),
(479,144,c),
(470,144,o),
(426,60,o),
(426,34,cs),
(426,28,o),
(434,19,o),
(452,5,cs),
(487,-22,o),
(564,-65,o),
(609,-83,c),
(582,-94,o),
(548,-103,o),
(513,-111,cs),
(445,-125,o),
(367,-134,o),
(297,-134,cs),
(178,-134,o),
(123,-85,o),
(123,7,cs),
(123,30,o),
(128,57,o),
(137,87,c),
(93,98,l),
(76,35,o),
(68,-13,o),
(68,-47,cs),
(68,-181,o),
(144,-252,o),
(286,-252,cs)
);
}
);
};
layerId = "506100EA-3BB8-464E-A0A0-F667AF3F2320";
shapes = (
{
closed = 1;
nodes = (
(340,-252,o),
(397,-243,o),
(457,-225,cs),
(577,-189,o),
(660,-131,o),
(660,-81,cs),
(660,-63,o),
(657,-41,o),
(648,-31,c),
(641,-21,o),
(625,-13,o),
(543,26,c),
(583,16,o),
(653,9,o),
(696,9,cs),
(703,9,o),
(707,12,o),
(707,19,cs),
(707,117,ls),
(707,124,o),
(703,127,o),
(696,127,cs),
(611,127,o),
(539,133,o),
(479,144,c),
(470,144,o),
(426,60,o),
(426,34,cs),
(426,28,o),
(434,19,o),
(452,5,cs),
(487,-22,o),
(564,-65,o),
(609,-83,c),
(582,-94,o),
(548,-103,o),
(513,-111,cs),
(445,-125,o),
(367,-134,o),
(297,-134,cs),
(178,-134,o),
(123,-85,o),
(123,7,cs),
(123,30,o),
(128,57,o),
(137,87,c),
(93,98,l),
(76,35,o),
(68,-13,o),
(68,-47,cs),
(68,-181,o),
(144,-252,o),
(286,-252,cs)
);
}
);
width = 690;
}
);
unicode = 65264;
},
{
glyphname = uni06CD;
layers = (
{
anchors = (
{
name = bottom;
position = "{409, -310}";
},
{
name = top;
position = "{355, 297}";
}
);
background = {
shapes = (
{
closed = 1;
nodes = (
(445,-252,o),
(498,-240,o),
(552,-215,cs),
(659,-165,o),
(738,-80,o),
(738,-19,cs),
(738,11,o),
(724,48,o),
(704,63,cs),
(684,79,o),
(660,87,o),
(613,93,cs),
(561,99,o),
(521,107,o),
(495,118,c),
(506,145,o),
(521,170,o),
(542,192,c),
(582,238,o),
(631,266,o),
(667,266,cs),
(679,266,o),
(689,260,o),
(699,247,c),
(743,256,l),
(730,341,o),
(701,385,o),
(655,385,cs),
(626,385,o),
(594,371,o),
(561,344,cs),
(494,288,o),
(444,194,o),
(444,119,cs),
(444,86,o),
(451,60,o),
(467,38,cs),
(494,0,o),
(548,-21,o),
(637,-27,cs),
(652,-28,o),
(669,-28,o),
(687,-28,c),
(665,-45,o),
(641,-61,o),
(615,-74,c),
(545,-112,o),
(468,-134,o),
(404,-134,cs),
(313,-134,o),
(268,-89,o),
(268,0,cs),
(268,25,o),
(276,62,o),
(286,90,c),
(246,110,l),
(191,83,o),
(96,25,o),
(86,13,c),
(75,2,o),
(69,-16,o),
(69,-35,cs),
(69,-54,o),
(73,-71,o),
(83,-86,c),
(138,-56,o),
(180,-34,o),
(210,-21,c),
(209,-29,o),
(209,-38,o),
(209,-47,cs),
(209,-180,o),
(273,-252,o),
(393,-252,cs)
);
}
);
};
layerId = "506100EA-3BB8-464E-A0A0-F667AF3F2320";
shapes = (
{
closed = 1;
nodes = (
(445,-252,o),
(498,-240,o),
(552,-215,cs),
(659,-165,o),
(738,-80,o),
(738,-19,cs),
(738,11,o),
(724,48,o),
(704,63,cs),
(684,79,o),
(660,87,o),
(613,93,cs),
(561,99,o),
(521,107,o),
(495,118,c),
(506,145,o),
(521,170,o),
(542,192,c),
(582,238,o),
(631,266,o),
(667,266,cs),
(679,266,o),
(689,260,o),
(699,247,c),
(743,256,l),
(730,341,o),
(701,385,o),
(655,385,cs),
(626,385,o),
(594,371,o),
(561,344,cs),
(494,288,o),
(444,194,o),
(444,119,cs),
(444,86,o),
(451,60,o),
(467,38,cs),
(494,0,o),
(548,-21,o),
(637,-27,cs),
(652,-28,o),
(669,-28,o),
(687,-28,c),
(665,-45,o),
(641,-61,o),
(615,-74,c),
(545,-112,o),
(468,-134,o),
(404,-134,cs),
(313,-134,o),
(268,-89,o),
(268,0,cs),
(268,25,o),
(276,62,o),
(286,90,c),
(246,110,l),
(191,83,o),
(96,25,o),
(86,13,c),
(75,2,o),
(69,-16,o),
(69,-35,cs),
(69,-54,o),
(73,-71,o),
(83,-86,c),
(138,-56,o),
(180,-34,o),
(210,-21,c),
(209,-29,o),
(209,-38,o),
(209,-47,cs),
(209,-180,o),
(273,-252,o),
(393,-252,cs)
);
}
);
width = 777;
}
);
unicode = 1741;
},
{
glyphname = uni06CD.fina;
layers = (
{
anchors = (
{
name = bottom;
position = "{451, -331}";
},
{
name = top;
position = "{468, 278}";
}
);
background = {
shapes = (
{
closed = 1;
nodes = (
(484,-272,o),
(542,-262,o),
(603,-241,cs),
(724,-200,o),
(803,-136,o),
(803,-81,cs),
(803,-56,o),
(800,-42,o),
(792,-31,cs),
(780,-16,o),
(745,-1,o),
(686,26,c),
(726,16,o),
(795,9,o),
(839,9,cs),
(846,9,o),
(850,12,o),
(850,19,cs),
(850,117,ls),
(850,124,o),
(846,127,o),
(839,127,cs),
(754,127,o),
(682,133,o),
(621,144,c),
(618,144,o),
(612,135,o),
(603,119,cs),
(583,85,o),
(568,50,o),
(568,34,cs),
(568,28,o),
(577,19,o),
(594,5,cs),
(629,-22,o),
(706,-65,o),
(752,-83,c),
(726,-100,o),
(690,-114,o),
(650,-125,cs),
(587,-143,o),
(512,-153,o),
(439,-153,cs),
(327,-153,o),
(268,-107,o),
(268,-20,cs),
(268,5,o),
(276,43,o),
(286,71,c),
(246,91,l),
(191,63,o),
(96,5,o),
(86,-6,cs),
(64,-29,o),
(63,-74,o),
(83,-105,c),
(138,-76,o),
(180,-54,o),
(210,-40,c),
(209,-49,o),
(209,-58,o),
(209,-66,cs),
(209,-197,o),
(285,-272,o),
(428,-272,cs)
);
}
);
};
layerId = "506100EA-3BB8-464E-A0A0-F667AF3F2320";
shapes = (
{
closed = 1;
nodes = (
(484,-272,o),
(542,-262,o),
(603,-241,cs),
(724,-200,o),
(803,-136,o),
(803,-81,cs),
(803,-56,o),
(800,-42,o),
(792,-31,cs),
(780,-16,o),
(745,-1,o),
(686,26,c),
(726,16,o),
(795,9,o),
(839,9,cs),
(846,9,o),
(850,12,o),
(850,19,cs),
(850,117,ls),
(850,124,o),
(846,127,o),
(839,127,cs),
(754,127,o),
(682,133,o),
(621,144,c),
(618,144,o),
(612,135,o),
(603,119,cs),
(583,85,o),
(568,50,o),
(568,34,cs),
(568,28,o),
(577,19,o),
(594,5,cs),
(629,-22,o),
(706,-65,o),
(752,-83,c),
(726,-100,o),
(690,-114,o),
(650,-125,cs),
(587,-143,o),
(512,-153,o),
(439,-153,cs),
(327,-153,o),
(268,-107,o),
(268,-20,cs),
(268,5,o),
(276,43,o),
(286,71,c),
(246,91,l),
(191,63,o),
(96,5,o),
(86,-6,cs),
(64,-29,o),
(63,-74,o),
(83,-105,c),
(138,-76,o),
(180,-54,o),
(210,-40,c),
(209,-49,o),
(209,-58,o),
(209,-66,cs),
(209,-197,o),
(285,-272,o),
(428,-272,cs)
);
}
);
width = 833;
}
);
},
{
glyphname = uni06D2;
layers = (
{
anchors = (
{
name = bottom;
position = "{445, -110}";
},
{
name = top;
position = "{254, 484}";
},
{
name = top.dot;
position = "{254, 343}";
}
);
background = {
shapes = (
{
closed = 1;
nodes = (
(497,0,o),
(680,21,o),
(729,46,cs),
(756,60,o),
(773,84,o),
(773,112,cs),
(773,132,o),
(766,149,o),
(753,165,c),
(659,137,o),
(533,119,o),
(431,119,cs),
(304,119,o),
(225,128,o),
(144,161,c),
(165,170,o),
(193,180,o),
(227,190,c),
(257,200,o),
(284,210,o),
(305,219,cs),
(350,239,o),
(383,279,o),
(402,338,c),
(359,357,l),
(346,329,o),
(318,307,o),
(256,289,cs),
(233,282,o),
(216,276,o),
(205,271,cs),
(165,253,o),
(136,235,o),
(117,214,c),
(104,202,o),
(68,83,o),
(68,59,cs),
(68,50,o),
(85,42,o),
(119,32,cs),
(192,12,o),
(316,0,o),
(418,0,cs)
);
}
);
};
layerId = "506100EA-3BB8-464E-A0A0-F667AF3F2320";
shapes = (
{
closed = 1;
nodes = (
(497,0,o),
(680,21,o),
(729,46,cs),
(756,60,o),
(773,84,o),
(773,112,cs),
(773,132,o),
(766,149,o),
(753,165,c),
(659,137,o),
(533,119,o),
(431,119,cs),
(304,119,o),
(225,128,o),
(144,161,c),
(165,170,o),
(193,180,o),
(227,190,c),
(257,200,o),
(284,210,o),
(305,219,cs),
(350,239,o),
(383,279,o),
(402,338,c),
(359,357,l),
(346,329,o),
(318,307,o),
(256,289,cs),
(233,282,o),
(216,276,o),
(205,271,cs),
(165,253,o),
(136,235,o),
(117,214,c),
(104,202,o),
(68,83,o),
(68,59,cs),
(68,50,o),
(85,42,o),
(119,32,cs),
(192,12,o),
(316,0,o),
(418,0,cs)
);
}
);
width = 808;
}
);
unicode = (1746,64430);
},
{
glyphname = uniFBAF;
layers = (
{
anchors = (
{
name = bottom;
position = "{324, -244}";
},
{
name = top;
position = "{222, 297}";
},
{
name = top.dot;
position = "{222, 156}";
}
);
background = {
shapes = (
{
closed = 1;
nodes = (
(387,-195,o),
(490,-190,o),
(537,-182,cs),
(576,-175,o),
(600,-146,o),
(600,-110,cs),
(600,-95,o),
(596,-82,o),
(586,-70,c),
(504,-86,o),
(417,-93,o),
(326,-93,cs),
(246,-93,o),
(173,-84,o),
(108,-64,c),
(150,-49,o),
(188,-38,o),
(221,-28,cs),
(324,3,o),
(448,9,o),
(589,9,cs),
(596,9,o),
(600,12,o),
(600,19,cs),
(600,115,ls),
(600,123,o),
(596,127,o),
(589,127,cs),
(369,127,o),
(167,86,o),
(75,-6,cs),
(66,-15,o),
(41,-120,o),
(41,-135,cs),
(41,-142,o),
(56,-151,o),
(84,-161,cs),
(142,-182,o),
(233,-195,o),
(319,-195,cs)
);
}
);
};
layerId = "506100EA-3BB8-464E-A0A0-F667AF3F2320";
shapes = (
{
closed = 1;
nodes = (
(387,-195,o),
(490,-190,o),
(537,-182,cs),
(576,-175,o),
(600,-146,o),
(600,-110,cs),
(600,-95,o),
(596,-82,o),
(586,-70,c),
(504,-86,o),
(417,-93,o),
(326,-93,cs),
(246,-93,o),
(173,-84,o),
(108,-64,c),
(150,-49,o),
(188,-38,o),
(221,-28,cs),
(324,3,o),
(448,9,o),
(589,9,cs),
(596,9,o),
(600,12,o),
(600,19,cs),
(600,115,ls),
(600,123,o),
(596,127,o),
(589,127,cs),
(369,127,o),
(167,86,o),
(75,-6,cs),
(66,-15,o),
(41,-120,o),
(41,-135,cs),
(41,-142,o),
(56,-151,o),
(84,-161,cs),
(142,-182,o),
(233,-195,o),
(319,-195,cs)
);
}
);
width = 566;
}
);
unicode = 64431;
},
{
glyphname = uniFE73;
layers = (
{
anchors = (
{
name = bottom;
position = "{113, -363}";
},
{
name = top;
position = "{103, 149}";
}
);
background = {
shapes = (
{
closed = 1;
nodes = (
(385,-109,l),
(346,-128,o),
(310,-135,o),
(254,-135,cs),
(165,-135,o),
(123,-89,o),
(123,6,cs),
(123,29,o),
(128,56,o),
(137,86,c),
(93,97,l),
(76,34,o),
(68,-14,o),
(68,-48,cs),
(68,-181,o),
(132,-253,o),
(251,-253,cs),
(306,-253,o),
(357,-243,o),
(403,-221,c)
);
}
);
};
layerId = "506100EA-3BB8-464E-A0A0-F667AF3F2320";
shapes = (
{
closed = 1;
nodes = (
(385,-109,l),
(346,-128,o),
(310,-135,o),
(254,-135,cs),
(165,-135,o),
(123,-89,o),
(123,6,cs),
(123,29,o),
(128,56,o),
(137,86,c),
(93,97,l),
(76,34,o),
(68,-14,o),
(68,-48,cs),
(68,-181,o),
(132,-253,o),
(251,-253,cs),
(306,-253,o),
(357,-243,o),
(403,-221,c)
);
}
);
width = 378;
}
);
unicode = 65139;
},
{
glyphname = uni0640;
layers = (
{
anchors = (
{
name = bottom;
position = "{99, -135}";
},
{
name = top;
position = "{99, 361}";
}
);
background = {
shapes = (
{
closed = 1;
nodes = (
(215,9,ls),
(221,9,o),
(224,12,o),
(224,17,cs),
(224,119,ls),
(224,125,o),
(221,127,o),
(215,127,cs),
(0,127,ls),
(-6,127,o),
(-8,125,o),
(-8,119,cs),
(-8,17,ls),
(-8,12,o),
(-6,9,o),
(0,9,cs)
);
}
);
};
layerId = "506100EA-3BB8-464E-A0A0-F667AF3F2320";
shapes = (
{
closed = 1;
nodes = (
(215,9,ls),
(221,9,o),
(224,12,o),
(224,17,cs),
(224,119,ls),
(224,125,o),
(221,127,o),
(215,127,cs),
(0,127,ls),
(-6,127,o),
(-8,125,o),
(-8,119,cs),
(-8,17,ls),
(-8,12,o),
(-6,9,o),
(0,9,cs)
);
}
);
width = 210;
}
);
unicode = 1600;
},
{
glyphname = uniFEFB;
layers = (
{
anchors = (
{
name = bottom_one;
position = "{419, -110}";
},
{
name = bottom_two;
position = "{152, -110}";
},
{
name = top_one;
position = "{376, 737}";
},
{
name = top_two;
position = "{64, 622}";
}
);
background = {
shapes = (
{
closed = 1;
nodes = (
(286,0,o),
(391,6,o),
(456,17,cs),
(465,19,o),
(496,96,o),
(496,119,cs),
(496,140,o),
(416,249,o),
(406,260,c),
(437,317,o),
(453,376,o),
(453,436,c),
(450,531,l),
(449,549,l),
(482,574,l),
(466,613,o),
(453,654,o),
(442,697,c),
(381,697,o),
(336,662,o),
(336,608,cs),
(336,599,o),
(340,574,o),
(347,533,cs),
(361,452,o),
(368,403,o),
(368,387,cs),
(368,363,o),
(365,340,o),
(359,319,c),
(331,351,o),
(298,385,o),
(264,418,cs),
(201,480,o),
(135,538,o),
(89,569,c),
(53,548,o),
(34,520,o),
(34,484,cs),
(34,444,o),
(54,414,o),
(93,395,c),
(130,397,l),
(209,349,o),
(274,299,o),
(326,247,c),
(300,206,o),
(256,161,o),
(194,110,c),
(153,110,ls),
(146,110,o),
(138,35,o),
(138,8,cs),
(138,3,o),
(139,0,o),
(140,0,cs)
);
},
{
closed = 1;
nodes = (
(312,140,o),
(341,169,o),
(368,203,c),
(389,178,o),
(409,154,o),
(430,130,c),
(382,122,o),
(338,117,o),
(278,114,c)
);
}
);
};
layerId = "506100EA-3BB8-464E-A0A0-F667AF3F2320";
shapes = (
{
closed = 1;
nodes = (
(286,0,o),
(391,6,o),
(456,17,cs),
(465,19,o),
(496,96,o),
(496,119,cs),
(496,140,o),
(416,249,o),
(406,260,c),
(437,317,o),
(453,376,o),
(453,436,c),
(450,531,l),
(449,549,l),
(482,574,l),
(466,613,o),
(453,654,o),
(442,697,c),
(381,697,o),
(336,662,o),
(336,608,cs),
(336,599,o),
(340,574,o),
(347,533,cs),
(361,452,o),
(368,403,o),
(368,387,cs),
(368,363,o),
(365,340,o),
(359,319,c),
(331,351,o),
(298,385,o),
(264,418,cs),
(201,480,o),
(135,538,o),
(89,569,c),
(53,548,o),
(34,520,o),
(34,484,cs),
(34,444,o),
(54,414,o),
(93,395,c),
(130,397,l),
(209,349,o),
(274,299,o),
(326,247,c),
(300,206,o),
(256,161,o),
(194,110,c),
(153,110,l),
(146,110,o),
(138,35,o),
(138,8,cs),
(138,3,o),
(139,0,o),
(140,0,cs)
);
},
{
closed = 1;
nodes = (
(312,140,o),
(341,169,o),
(368,203,c),
(389,178,o),
(409,154,o),
(430,130,c),
(382,122,o),
(338,117,o),
(278,114,c)
);
}
);
width = 546;
}
);
unicode = 65275;
},
{
glyphname = uniFEFC;
layers = (
{
anchors = (
{
name = bottom_one;
position = "{497, -110}";
},
{
name = bottom_two;
position = "{166, -110}";
},
{
name = top_one;
position = "{453, 720}";
},
{
name = top_two;
position = "{89, 580}";
}
);
background = {
shapes = (
{
closed = 1;
nodes = (
(64,3,l),
(138,5,o),
(214,10,o),
(293,19,cs),
(361,27,o),
(402,78,o),
(435,191,c),
(443,222,o),
(452,279,o),
(459,361,c),
(462,387,l),
(465,353,o),
(468,310,o),
(472,258,cs),
(476,191,o),
(481,137,o),
(487,99,cs),
(497,41,o),
(549,9,o),
(639,9,cs),
(645,9,o),
(648,12,o),
(648,17,cs),
(648,119,ls),
(648,125,o),
(645,127,o),
(639,127,cs),
(590,127,o),
(562,135,o),
(529,155,c),
(526,329,o),
(523,503,o),
(524,680,c),
(507,670,o),
(488,658,o),
(470,646,cs),
(447,631,o),
(430,620,o),
(418,613,c),
(418,530,o),
(414,461,o),
(405,402,cs),
(392,313,o),
(369,248,o),
(331,191,c),
(315,235,o),
(303,264,o),
(297,279,c),
(232,420,o),
(166,513,o),
(99,556,c),
(52,541,o),
(34,520,o),
(34,480,cs),
(34,449,o),
(44,425,o),
(79,389,c),
(116,389,l),
(191,318,o),
(247,243,o),
(293,148,c),
(269,127,o),
(244,111,o),
(210,97,cs),
(174,81,o),
(127,66,o),
(59,48,c)
);
}
);
};
layerId = "506100EA-3BB8-464E-A0A0-F667AF3F2320";
shapes = (
{
closed = 1;
nodes = (
(64,3,l),
(138,5,o),
(214,10,o),
(293,19,cs),
(361,27,o),
(402,78,o),
(435,191,c),
(443,222,o),
(452,279,o),
(459,361,c),
(462,387,l),
(465,353,o),
(468,310,o),
(472,258,cs),
(476,191,o),
(481,137,o),
(487,99,cs),
(497,41,o),
(549,9,o),
(639,9,cs),
(645,9,o),
(648,12,o),
(648,17,cs),
(648,119,ls),
(648,125,o),
(645,127,o),
(639,127,cs),
(590,127,o),
(562,135,o),
(529,155,c),
(526,329,o),
(523,503,o),
(524,680,c),
(507,670,o),
(488,658,o),
(470,646,cs),
(447,631,o),
(430,620,o),
(418,613,c),
(418,530,o),
(414,461,o),
(405,402,cs),
(392,313,o),
(369,248,o),
(331,191,c),
(315,235,o),
(303,264,o),
(297,279,c),
(232,420,o),
(166,513,o),
(99,556,c),
(52,541,o),
(34,520,o),
(34,480,cs),
(34,449,o),
(44,425,o),
(79,389,c),
(116,389,l),
(191,318,o),
(247,243,o),
(293,148,c),
(269,127,o),
(244,111,o),
(210,97,cs),
(174,81,o),
(127,66,o),
(59,48,c)
);
}
);
width = 631;
}
);
unicode = 65276;
},
{
glyphname = uniFEDF_uniFEE0_uniFEEA;
layers = (
{
anchors = (
{
name = bottom_1;
position = "{827, -110}";
},
{
name = bottom_2;
position = "{591, -110}";
},
{
name = bottom_3;
position = "{250, -110}";
},
{
name = top_1;
position = "{790, 730}";
},
{
name = top_2;
position = "{570, 633}";
},
{
name = top_3;
position = "{232, 641}";
}
);
background = {
shapes = (
{
closed = 1;
nodes = (
(515,9,o),
(539,15,o),
(597,44,c),
(624,20,o),
(659,11,o),
(721,9,c),
(781,11,o),
(817,22,o),
(830,40,cs),
(856,79,o),
(869,122,o),
(869,167,cs),
(869,289,o),
(860,514,o),
(856,680,c),
(816,659,o),
(777,637,o),
(738,614,c),
(773,421,o),
(794,305,o),
(800,267,cs),
(806,228,o),
(811,189,o),
(816,150,c),
(777,136,o),
(735,127,o),
(716,127,cs),
(674,127,o),
(638,137,o),
(609,155,c),
(616,555,l),
(593,542,o),
(563,525,o),
(510,492,c),
(520,435,o),
(530,386,o),
(559,146,c),
(530,134,o),
(501,128,o),
(471,127,c),
(434,128,o),
(399,137,o),
(368,154,c),
(368,490,l),
(341,473,o),
(321,461,o),
(264,417,c),
(269,377,l),
(222,356,o),
(128,293,o),
(106,250,c),
(92,225,o),
(68,154,o),
(68,139,cs),
(68,116,o),
(127,75,o),
(177,57,cs),
(208,46,o),
(242,42,o),
(284,38,c),
(324,120,l),
(333,83,ls),
(344,39,o),
(391,11,o),
(466,9,c)
);
},
{
closed = 1;
nodes = (
(244,160,o),
(189,171,o),
(139,206,c),
(174,239,o),
(222,266,o),
(285,287,c),
(297,232,o),
(306,189,o),
(314,157,c)
);
}
);
};
layerId = "506100EA-3BB8-464E-A0A0-F667AF3F2320";
shapes = (
{
closed = 1;
nodes = (
(515,9,o),
(539,15,o),
(597,44,c),
(624,20,o),
(659,11,o),
(721,9,c),
(781,11,o),
(817,22,o),
(830,40,cs),
(856,79,o),
(869,122,o),
(869,167,cs),
(869,289,o),
(860,514,o),
(856,680,c),
(816,659,o),
(777,637,o),
(738,614,c),
(773,421,o),
(794,305,o),
(800,267,cs),
(806,228,o),
(811,189,o),
(816,150,c),
(777,136,o),
(735,127,o),
(716,127,cs),
(674,127,o),
(638,137,o),
(609,155,c),
(616,555,l),
(593,542,o),
(563,525,o),
(510,492,c),
(520,435,o),
(530,386,o),
(559,146,c),
(530,134,o),
(501,128,o),
(471,127,c),
(434,128,o),
(399,137,o),
(368,154,c),
(368,490,l),
(341,473,o),
(321,461,o),
(264,417,c),
(269,377,l),
(222,356,o),
(128,293,o),
(106,250,c),
(92,225,o),
(68,154,o),
(68,139,cs),
(68,116,o),
(127,75,o),
(177,57,cs),
(208,46,o),
(242,42,o),
(284,38,c),
(324,120,l),
(333,83,ls),
(344,39,o),
(391,11,o),
(466,9,c)
);
},
{
closed = 1;
nodes = (
(244,160,o),
(189,171,o),
(139,206,c),
(174,239,o),
(222,266,o),
(285,287,c),
(297,232,o),
(306,189,o),
(314,157,c)
);
}
);
width = 967;
}
);
},
{
glyphname = uniFDFA;
layers = (
{
background = {
shapes = (
{
closed = 1;
nodes = (
(90,-167,o),
(105,-154,o),
(116,-143,c),
(97,-21,o),
(90,29,o),
(86,71,c),
(95,78,o),
(104,84,o),
(114,91,c),
(111,83,o),
(110,76,o),
(110,68,cs),
(110,31,o),
(169,2,o),
(254,2,c),
(260,21,l),
(273,8,o),
(289,2,o),
(306,2,cs),
(330,2,o),
(352,8,o),
(373,19,c),
(394,3,o),
(431,2,o),
(480,2,cs),
(543,2,o),
(631,14,o),
(673,27,cs),
(679,29,o),
(685,32,o),
(690,36,c),
(708,26,o),
(735,21,o),
(753,21,cs),
(778,21,o),
(814,26,o),
(821,38,c),
(823,40,o),
(824,42,o),
(824,42,c),
(859,26,o),
(889,21,o),
(937,21,c),
(952,55,o),
(959,79,o),
(959,91,cs),
(959,105,o),
(957,123,o),
(951,146,cs),
(949,155,o),
(944,178,o),
(937,214,c),
(916,201,o),
(894,184,o),
(894,161,cs),
(894,148,o),
(917,93,o),
(923,73,c),
(894,74,o),
(868,80,o),
(843,90,c),
(853,124,o),
(861,146,o),
(866,157,c),
(859,161,o),
(853,164,o),
(847,164,cs),
(839,164,o),
(831,159,o),
(824,149,cs),
(817,139,o),
(810,121,o),
(803,94,cs),
(801,88,o),
(799,82,o),
(797,76,c),
(787,73,o),
(774,71,o),
(759,71,cs),
(743,71,o),
(730,73,o),
(720,76,c),
(726,86,o),
(733,102,o),
(741,123,c),
(733,128,o),
(728,130,o),
(719,130,cs),
(709,130,o),
(700,121,o),
(691,104,cs),
(685,91,o),
(677,83,o),
(667,78,cs),
(645,66,o),
(533,51,o),
(478,51,cs),
(431,51,o),
(399,55,o),
(384,63,c),
(383,114,o),
(382,165,o),
(381,215,c),
(521,215,o),
(610,224,o),
(698,254,c),
(701,257,o),
(703,260,o),
(706,263,c),
(732,242,o),
(756,232,o),
(778,232,cs),
(799,232,o),
(807,239,o),
(816,248,c),
(831,237,o),
(851,231,o),
(876,231,cs),
(925,231,o),
(959,234,o),
(982,237,c),
(1010,242,o),
(1081,258,o),
(1108,268,cs),
(1124,274,o),
(1129,286,o),
(1129,299,cs),
(1129,306,o),
(1125,316,o),
(1117,322,c),
(1083,309,o),
(1057,299,o),
(1026,292,c),
(974,298,o),
(942,326,o),
(940,369,c),
(961,380,o),
(982,386,o),
(1002,386,cs),
(1020,386,o),
(1027,384,o),
(1056,373,c),
(1069,396,l),
(1050,412,o),
(1038,422,o),
(1031,426,cs),
(1017,435,o),
(1005,438,o),
(990,438,cs),
(975,438,o),
(961,433,o),
(947,423,cs),
(919,402,o),
(900,366,o),
(900,331,cs),
(900,312,o),
(908,296,o),
(923,282,c),
(907,282,o),
(891,282,o),
(875,282,cs),
(857,282,o),
(840,285,o),
(825,293,c),
(824,359,o),
(823,425,o),
(821,491,c),
(836,496,o),
(845,500,o),
(858,516,c),
(885,500,o),
(948,487,o),
(999,487,cs),
(1029,487,o),
(1059,492,o),
(1087,502,cs),
(1143,522,o),
(1173,557,o),
(1173,604,cs),
(1173,611,o),
(1170,620,o),
(1163,630,c),
(1135,664,o),
(1100,685,o),
(1075,685,cs),
(1028,685,o),
(970,641,o),
(901,553,c),
(896,554,o),
(890,556,o),
(884,560,c),
(899,594,l),
(893,600,o),
(887,603,o),
(880,603,cs),
(866,603,o),
(857,589,o),
(848,572,cs),
(843,564,o),
(832,548,o),
(820,542,c),
(818,592,o),
(816,642,o),
(814,691,c),
(797,681,o),
(782,669,o),
(769,654,c),
(769,651,o),
(775,549,o),
(776,539,c),
(765,540,o),
(755,543,o),
(744,549,c),
(743,603,o),
(742,658,o),
(740,712,cs),
(739,775,o),
(738,812,o),
(737,856,c),
(712,837,o),
(701,828,o),
(691,818,c),
(695,772,o),
(698,731,o),
(700,696,cs),
(706,623,o),
(710,573,o),
(712,549,c),
(701,543,o),
(688,540,o),
(675,540,cs),
(660,540,o),
(620,545,o),
(618,546,c),
(605,546,o),
(594,518,o),
(594,506,cs),
(594,495,o),
(629,472,o),
(662,456,c),
(685,443,l),
(659,413,o),
(595,393,o),
(519,393,cs),
(464,393,o),
(433,422,o),
(433,470,cs),
(433,480,o),
(435,493,o),
(438,506,c),
(447,517,o),
(458,544,o),
(458,562,c),
(454,659,o),
(449,755,o),
(444,853,c),
(417,835,o),
(411,829,o),
(399,814,c),
(409,731,o),
(417,642,o),
(425,547,c),
(410,540,o),
(393,536,o),
(373,536,cs),
(354,536,o),
(337,539,o),
(322,547,c),
(321,596,o),
(321,635,o),
(320,669,cs),
(319,713,o),
(318,749,o),
(315,788,c),
(295,775,o),
(282,764,o),
(271,752,c),
(273,710,o),
(286,582,o),
(291,546,c),
(279,539,o),
(268,536,o),
(256,536,cs),
(237,536,o),
(221,539,o),
(207,547,c),
(206,574,o),
(205,602,o),
(204,629,cs),
(203,667,o),
(202,705,o),
(201,743,c),
(178,731,o),
(165,721,o),
(151,707,c),
(153,686,l),
(111,669,o),
(75,641,o),
(64,621,cs),
(51,597,o),
(44,579,o),
(44,570,cs),
(44,553,o),
(85,529,o),
(106,524,cs),
(119,521,o),
(133,519,o),
(163,516,c),
(176,540,l),
(179,528,ls),
(186,500,o),
(215,485,o),
(255,485,cs),
(272,485,o),
(291,491,o),
(311,502,c),
(326,491,o),
(342,486,o),
(364,485,c),
(375,485,o),
(388,485,o),
(403,487,c),
(400,474,o),
(399,459,o),
(399,444,cs),
(399,376,o),
(445,339,o),
(517,339,cs),
(559,339,o),
(607,352,o),
(646,371,cs),
(689,392,o),
(716,419,o),
(716,445,cs),
(716,469,o),
(711,476,o),
(684,491,c),
(687,491,o),
(688,490,o),
(691,490,cs),
(705,490,o),
(719,495,o),
(733,505,c),
(744,496,o),
(759,490,o),
(778,488,c),
(783,413,o),
(788,348,o),
(794,292,c),
(794,284,o),
(788,279,o),
(775,279,cs),
(762,279,o),
(746,286,o),
(728,301,c),
(737,318,o),
(746,336,o),
(754,358,c),
(744,362,o),
(739,364,o),
(731,364,c),
(718,362,o),
(708,349,o),
(695,319,cs),
(685,298,o),
(679,293,o),
(645,286,c),
(591,273,o),
(503,266,o),
(380,266,c),
(377,326,o),
(375,385,o),
(373,444,c),
(346,423,o),
(338,417,o),
(328,406,c),
(336,266,l),
(276,266,o),
(240,269,o),
(228,275,c),
(227,315,o),
(225,391,o),
(222,472,c),
(194,454,o),
(184,447,o),
(172,435,c),
(175,415,l),
(135,397,o),
(100,372,o),
(85,350,c),
(76,330,o),
(66,305,o),
(66,298,cs),
(66,286,o),
(81,273,o),
(109,260,c),
(136,249,o),
(153,245,o),
(185,244,c),
(197,268,l),
(200,256,l),
(206,226,o),
(278,217,o),
(339,215,c),
(344,151,o),
(348,100,o),
(353,63,c),
(340,58,o),
(324,54,o),
(304,52,c),
(286,53,o),
(277,75,o),
(248,152,cs),
(238,179,o),
(225,191,o),
(213,191,cs),
(191,191,o),
(158,172,o),
(132,156,cs),
(108,141,o),
(86,125,o),
(82,120,c),
(74,114,o),
(67,104,o),
(63,90,cs),
(59,79,o),
(54,66,o),
(54,56,cs),
(54,32,o),
(56,-4,o),
(61,-51,c),
(64,-92,o),
(68,-135,o),
(70,-180,c)
);
},
{
closed = 1;
nodes = (
(222,51,o),
(204,55,o),
(187,61,cs),
(172,66,o),
(159,73,o),
(149,81,c),
(157,98,o),
(188,125,o),
(210,137,c),
(213,106,o),
(222,77,o),
(238,49,c)
);
},
{
closed = 1;
nodes = (
(193,297,l),
(141,301,o),
(128,306,o),
(104,323,c),
(120,341,o),
(146,357,o),
(181,371,c)
);
},
{
closed = 1;
nodes = (
(528,142,o),
(535,150,o),
(542,161,c),
(535,167,o),
(513,189,o),
(503,200,c),
(498,194,o),
(485,180,o),
(462,157,c),
(478,142,o),
(491,129,o),
(504,118,c)
);
},
{
closed = 1;
nodes = (
(171,569,l),
(124,573,o),
(107,576,o),
(82,595,c),
(98,613,o),
(124,629,o),
(159,643,c)
);
},
{
closed = 1;
nodes = (
(609,141,o),
(624,156,o),
(630,169,c),
(619,180,o),
(606,194,o),
(592,208,c),
(577,190,o),
(563,177,o),
(551,166,c),
(568,148,o),
(575,141,o),
(593,126,c)
);
},
{
closed = 1;
nodes = (
(1117,-95,o),
(1170,-16,o),
(1170,61,cs),
(1170,82,o),
(1166,104,o),
(1157,128,cs),
(1140,176,o),
(1114,202,o),
(1083,202,c),
(1042,200,o),
(1003,144,o),
(1003,86,cs),
(1003,41,o),
(1031,13,o),
(1074,13,cs),
(1096,13,o),
(1117,20,o),
(1137,35,c),
(1138,34,l),
(1116,-18,o),
(1082,-43,o),
(1035,-43,cs),
(1007,-43,o),
(985,-40,o),
(968,-32,c),
(957,-58,l),
(973,-69,o),
(986,-77,o),
(995,-81,cs),
(1013,-89,o),
(1033,-95,o),
(1047,-95,cs)
);
},
{
closed = 1;
nodes = (
(272,793,o),
(283,800,o),
(290,813,c),
(296,808,o),
(302,806,o),
(309,806,cs),
(333,806,o),
(347,827,o),
(347,849,cs),
(347,864,o),
(341,878,o),
(333,894,c),
(320,892,o),
(310,881,o),
(310,871,cs),
(310,869,o),
(312,864,o),
(312,861,c),
(316,852,o),
(317,849,o),
(320,842,c),
(318,840,o),
(316,838,o),
(312,838,cs),
(300,838,o),
(298,846,o),
(293,876,c),
(271,862,l),
(271,854,o),
(271,847,o),
(271,839,cs),
(271,830,o),
(268,826,o),
(261,826,cs),
(256,826,o),
(251,826,o),
(251,837,cs),
(251,842,o),
(253,848,o),
(255,857,c),
(237,860,l),
(230,847,o),
(227,836,o),
(227,828,cs),
(227,806,o),
(240,793,o),
(259,793,cs)
);
},
{
closed = 1;
nodes = (
(1051,66,o),
(1034,78,o),
(1034,101,cs),
(1034,117,o),
(1054,147,o),
(1075,147,cs),
(1096,147,o),
(1124,115,o),
(1134,76,c),
(1116,68,o),
(1104,66,o),
(1087,66,cs)
);
},
{
closed = 1;
nodes = (
(560,490,l),
(562,511,o),
(563,560,o),
(563,638,cs),
(562,681,o),
(562,724,o),
(561,767,c),
(575,779,l),
(565,808,o),
(560,825,o),
(555,849,c),
(526,846,o),
(511,831,o),
(511,803,cs),
(511,779,o),
(513,746,o),
(517,703,cs),
(523,631,o),
(526,561,o),
(526,484,c)
);
},
{
closed = 1;
nodes = (
(978,538,o),
(955,540,o),
(937,543,c),
(983,599,o),
(1030,631,o),
(1062,631,cs),
(1085,631,o),
(1116,616,o),
(1138,579,c),
(1086,548,o),
(1047,538,o),
(1004,538,cs)
);
}
);
};
layerId = "506100EA-3BB8-464E-A0A0-F667AF3F2320";
shapes = (
{
closed = 1;
nodes = (
(90,-167,o),
(105,-154,o),
(116,-143,c),
(97,-21,o),
(90,29,o),
(86,71,c),
(95,78,o),
(104,84,o),
(114,91,c),
(111,83,o),
(110,76,o),
(110,68,cs),
(110,31,o),
(169,2,o),
(254,2,c),
(260,21,l),
(273,8,o),
(289,2,o),
(306,2,cs),
(330,2,o),
(352,8,o),
(373,19,c),
(394,3,o),
(431,2,o),
(480,2,cs),
(543,2,o),
(631,14,o),
(673,27,cs),
(679,29,o),
(685,32,o),
(690,36,c),
(708,26,o),
(735,21,o),
(753,21,cs),
(778,21,o),
(814,26,o),
(821,38,c),
(823,40,o),
(824,42,o),
(824,42,c),
(859,26,o),
(889,21,o),
(937,21,c),
(952,55,o),
(959,79,o),
(959,91,cs),
(959,105,o),
(957,123,o),
(951,146,cs),
(949,155,o),
(944,178,o),
(937,214,c),
(916,201,o),
(894,184,o),
(894,161,cs),
(894,148,o),
(917,93,o),
(923,73,c),
(894,74,o),
(868,80,o),
(843,90,c),
(853,124,o),
(861,146,o),
(866,157,c),
(859,161,o),
(853,164,o),
(847,164,cs),
(839,164,o),
(831,159,o),
(824,149,cs),
(817,139,o),
(810,121,o),
(803,94,cs),
(801,88,o),
(799,82,o),
(797,76,c),
(787,73,o),
(774,71,o),
(759,71,cs),
(743,71,o),
(730,73,o),
(720,76,c),
(726,86,o),
(733,102,o),
(741,123,c),
(733,128,o),
(728,130,o),
(719,130,cs),
(709,130,o),
(700,121,o),
(691,104,cs),
(685,91,o),
(677,83,o),
(667,78,cs),
(645,66,o),
(533,51,o),
(478,51,cs),
(431,51,o),
(399,55,o),
(384,63,c),
(383,114,o),
(382,165,o),
(381,215,c),
(521,215,o),
(610,224,o),
(698,254,c),
(701,257,o),
(703,260,o),
(706,263,c),
(732,242,o),
(756,232,o),
(778,232,cs),
(799,232,o),
(807,239,o),
(816,248,c),
(831,237,o),
(851,231,o),
(876,231,cs),
(925,231,o),
(959,234,o),
(982,237,c),
(1010,242,o),
(1081,258,o),
(1108,268,cs),
(1124,274,o),
(1129,286,o),
(1129,299,cs),
(1129,306,o),
(1125,316,o),
(1117,322,c),
(1083,309,o),
(1057,299,o),
(1026,292,c),
(974,298,o),
(942,326,o),
(940,369,c),
(961,380,o),
(982,386,o),
(1002,386,cs),
(1020,386,o),
(1027,384,o),
(1056,373,c),
(1069,396,l),
(1050,412,o),
(1038,422,o),
(1031,426,cs),
(1017,435,o),
(1005,438,o),
(990,438,cs),
(975,438,o),
(961,433,o),
(947,423,cs),
(919,402,o),
(900,366,o),
(900,331,cs),
(900,312,o),
(908,296,o),
(923,282,c),
(907,282,o),
(891,282,o),
(875,282,cs),
(857,282,o),
(840,285,o),
(825,293,c),
(824,359,o),
(823,425,o),
(821,491,c),
(836,496,o),
(845,500,o),
(858,516,c),
(885,500,o),
(948,487,o),
(999,487,cs),
(1029,487,o),
(1059,492,o),
(1087,502,cs),
(1143,522,o),
(1173,557,o),
(1173,604,cs),
(1173,611,o),
(1170,620,o),
(1163,630,c),
(1135,664,o),
(1100,685,o),
(1075,685,cs),
(1028,685,o),
(970,641,o),
(901,553,c),
(896,554,o),
(890,556,o),
(884,560,c),
(899,594,l),
(893,600,o),
(887,603,o),
(880,603,cs),
(866,603,o),
(857,589,o),
(848,572,cs),
(843,564,o),
(832,548,o),
(820,542,c),
(818,592,o),
(816,642,o),
(814,691,c),
(797,681,o),
(782,669,o),
(769,654,c),
(769,651,o),
(775,549,o),
(776,539,c),
(765,540,o),
(755,543,o),
(744,549,c),
(743,603,o),
(742,658,o),
(740,712,cs),
(739,775,o),
(738,812,o),
(737,856,c),
(712,837,o),
(701,828,o),
(691,818,c),
(695,772,o),
(698,731,o),
(700,696,cs),
(706,623,o),
(710,573,o),
(712,549,c),
(701,543,o),
(688,540,o),
(675,540,cs),
(660,540,o),
(620,545,o),
(618,546,c),
(605,546,o),
(594,518,o),
(594,506,cs),
(594,495,o),
(629,472,o),
(662,456,c),
(685,443,l),
(659,413,o),
(595,393,o),
(519,393,cs),
(464,393,o),
(433,422,o),
(433,470,cs),
(433,480,o),
(435,493,o),
(438,506,c),
(447,517,o),
(458,544,o),
(458,562,c),
(454,659,o),
(449,755,o),
(444,853,c),
(417,835,o),
(411,829,o),
(399,814,c),
(409,731,o),
(417,642,o),
(425,547,c),
(410,540,o),
(393,536,o),
(373,536,cs),
(354,536,o),
(337,539,o),
(322,547,c),
(321,596,o),
(321,635,o),
(320,669,cs),
(319,713,o),
(318,749,o),
(315,788,c),
(295,775,o),
(282,764,o),
(271,752,c),
(273,710,o),
(286,582,o),
(291,546,c),
(279,539,o),
(268,536,o),
(256,536,cs),
(237,536,o),
(221,539,o),
(207,547,c),
(206,574,o),
(205,602,o),
(204,629,cs),
(203,667,o),
(202,705,o),
(201,743,c),
(178,731,o),
(165,721,o),
(151,707,c),
(153,686,l),
(111,669,o),
(75,641,o),
(64,621,cs),
(51,597,o),
(44,579,o),
(44,570,cs),
(44,553,o),
(85,529,o),
(106,524,cs),
(119,521,o),
(133,519,o),
(163,516,c),
(176,540,l),
(179,528,ls),
(186,500,o),
(215,485,o),
(255,485,cs),
(272,485,o),
(291,491,o),
(311,502,c),
(326,491,o),
(342,486,o),
(364,485,c),
(375,485,o),
(388,485,o),
(403,487,c),
(400,474,o),
(399,459,o),
(399,444,cs),
(399,376,o),
(445,339,o),
(517,339,cs),
(559,339,o),
(607,352,o),
(646,371,cs),
(689,392,o),
(716,419,o),
(716,445,cs),
(716,469,o),
(711,476,o),
(684,491,c),
(687,491,o),
(688,490,o),
(691,490,cs),
(705,490,o),
(719,495,o),
(733,505,c),
(744,496,o),
(759,490,o),
(778,488,c),
(783,413,o),
(788,348,o),
(794,292,c),
(794,284,o),
(788,279,o),
(775,279,cs),
(762,279,o),
(746,286,o),
(728,301,c),
(737,318,o),
(746,336,o),
(754,358,c),
(744,362,o),
(739,364,o),
(731,364,c),
(718,362,o),
(708,349,o),
(695,319,cs),
(685,298,o),
(679,293,o),
(645,286,c),
(591,273,o),
(503,266,o),
(380,266,c),
(377,326,o),
(375,385,o),
(373,444,c),
(346,423,o),
(338,417,o),
(328,406,c),
(336,266,l),
(276,266,o),
(240,269,o),
(228,275,c),
(227,315,o),
(225,391,o),
(222,472,c),
(194,454,o),
(184,447,o),
(172,435,c),
(175,415,l),
(135,397,o),
(100,372,o),
(85,350,c),
(76,330,o),
(66,305,o),
(66,298,cs),
(66,286,o),
(81,273,o),
(109,260,c),
(136,249,o),
(153,245,o),
(185,244,c),
(197,268,l),
(200,256,l),
(206,226,o),
(278,217,o),
(339,215,c),
(344,151,o),
(348,100,o),
(353,63,c),
(340,58,o),
(324,54,o),
(304,52,c),
(286,53,o),
(277,75,o),
(248,152,cs),
(238,179,o),
(225,191,o),
(213,191,cs),
(191,191,o),
(158,172,o),
(132,156,cs),
(108,141,o),
(86,125,o),
(82,120,c),
(74,114,o),
(67,104,o),
(63,90,cs),
(59,79,o),
(54,66,o),
(54,56,cs),
(54,32,o),
(56,-4,o),
(61,-51,c),
(64,-92,o),
(68,-135,o),
(70,-180,c)
);
},
{
closed = 1;
nodes = (
(222,51,o),
(204,55,o),
(187,61,cs),
(172,66,o),
(159,73,o),
(149,81,c),
(157,98,o),
(188,125,o),
(210,137,c),
(213,106,o),
(222,77,o),
(238,49,c)
);
},
{
closed = 1;
nodes = (
(193,297,l),
(141,301,o),
(128,306,o),
(104,323,c),
(120,341,o),
(146,357,o),
(181,371,c)
);
},
{
closed = 1;
nodes = (
(528,142,o),
(535,150,o),
(542,161,c),
(535,167,o),
(513,189,o),
(503,200,c),
(498,194,o),
(485,180,o),
(462,157,c),
(478,142,o),
(491,129,o),
(504,118,c)
);
},
{
closed = 1;
nodes = (
(171,569,l),
(124,573,o),
(107,576,o),
(82,595,c),
(98,613,o),
(124,629,o),
(159,643,c)
);
},
{
closed = 1;
nodes = (
(609,141,o),
(624,156,o),
(630,169,c),
(619,180,o),
(606,194,o),
(592,208,c),
(577,190,o),
(563,177,o),
(551,166,c),
(568,148,o),
(575,141,o),
(593,126,c)
);
},
{
closed = 1;
nodes = (
(1117,-95,o),
(1170,-16,o),
(1170,61,cs),
(1170,82,o),
(1166,104,o),
(1157,128,cs),
(1140,176,o),
(1114,202,o),
(1083,202,c),
(1042,200,o),
(1003,144,o),
(1003,86,cs),
(1003,41,o),
(1031,13,o),
(1074,13,cs),
(1096,13,o),
(1117,20,o),
(1137,35,c),
(1138,34,l),
(1116,-18,o),
(1082,-43,o),
(1035,-43,cs),
(1007,-43,o),
(985,-40,o),
(968,-32,c),
(957,-58,l),
(973,-69,o),
(986,-77,o),
(995,-81,cs),
(1013,-89,o),
(1033,-95,o),
(1047,-95,cs)
);
},
{
closed = 1;
nodes = (
(272,793,o),
(283,800,o),
(290,813,c),
(296,808,o),
(302,806,o),
(309,806,cs),
(333,806,o),
(347,827,o),
(347,849,cs),
(347,864,o),
(341,878,o),
(333,894,c),
(320,892,o),
(310,881,o),
(310,871,cs),
(310,869,o),
(312,864,o),
(312,861,c),
(316,852,o),
(317,849,o),
(320,842,c),
(318,840,o),
(316,838,o),
(312,838,cs),
(300,838,o),
(298,846,o),
(293,876,c),
(271,862,l),
(271,854,o),
(271,847,o),
(271,839,cs),
(271,830,o),
(268,826,o),
(261,826,cs),
(256,826,o),
(251,826,o),
(251,837,cs),
(251,842,o),
(253,848,o),
(255,857,c),
(237,860,l),
(230,847,o),
(227,836,o),
(227,828,cs),
(227,806,o),
(240,793,o),
(259,793,cs)
);
},
{
closed = 1;
nodes = (
(1051,66,o),
(1034,78,o),
(1034,101,cs),
(1034,117,o),
(1054,147,o),
(1075,147,cs),
(1096,147,o),
(1124,115,o),
(1134,76,c),
(1116,68,o),
(1104,66,o),
(1087,66,cs)
);
},
{
closed = 1;
nodes = (
(560,490,l),
(562,511,o),
(563,560,o),
(563,638,cs),
(562,681,o),
(562,724,o),
(561,767,c),
(575,779,l),
(565,808,o),
(560,825,o),
(555,849,c),
(526,846,o),
(511,831,o),
(511,803,cs),
(511,779,o),
(513,746,o),
(517,703,cs),
(523,631,o),
(526,561,o),
(526,484,c)
);
},
{
closed = 1;
nodes = (
(978,538,o),
(955,540,o),
(937,543,c),
(983,599,o),
(1030,631,o),
(1062,631,cs),
(1085,631,o),
(1116,616,o),
(1138,579,c),
(1086,548,o),
(1047,538,o),
(1004,538,cs)
);
}
);
width = 1217;
}
);
unicode = 65018;
},
